<svg width="448" height="419" viewBox="0 0 448 419" fill="none" xmlns="http://www.w3.org/2000/svg">
<rect width="448" height="418.427" rx="20.5523" fill="white"/>
<path d="M46.5687 44.628H44.4173C44.3346 44.1683 44.1806 43.7638 43.9553 43.4144C43.73 43.065 43.4542 42.7685 43.1278 42.5249C42.8014 42.2812 42.436 42.0973 42.0314 41.9732C41.6315 41.8491 41.2063 41.787 40.7558 41.787C39.9421 41.787 39.2134 41.9916 38.5699 42.4007C37.9309 42.8099 37.4252 43.4098 37.0528 44.2005C36.6851 44.9912 36.5012 45.9566 36.5012 47.0966C36.5012 48.2459 36.6851 49.2159 37.0528 50.0066C37.4252 50.7973 37.9332 51.3949 38.5768 51.7994C39.2203 52.204 39.9444 52.4062 40.7489 52.4062C41.1948 52.4062 41.6177 52.3465 42.0176 52.227C42.4222 52.1028 42.7877 51.9212 43.114 51.6822C43.4404 51.4432 43.7163 51.1512 43.9415 50.8065C44.1714 50.4571 44.33 50.0571 44.4173 49.6066L46.5687 49.6135C46.4538 50.3077 46.2308 50.9467 45.8999 51.5305C45.5735 52.1097 45.1528 52.6108 44.638 53.0337C44.1277 53.4521 43.5439 53.7762 42.8865 54.006C42.2291 54.2359 41.512 54.3508 40.7351 54.3508C39.5123 54.3508 38.4228 54.0612 37.4666 53.4819C36.5104 52.8981 35.7565 52.0638 35.2048 50.9789C34.6578 49.8939 34.3842 48.5999 34.3842 47.0966C34.3842 45.5888 34.6601 44.2947 35.2117 43.2144C35.7634 42.1295 36.5173 41.2975 37.4735 40.7182C38.4296 40.1344 39.5169 39.8425 40.7351 39.8425C41.4844 39.8425 42.1831 39.9505 42.8313 40.1666C43.4841 40.378 44.0702 40.6906 44.5897 41.1044C45.1092 41.5135 45.539 42.0146 45.8792 42.6076C46.2194 43.196 46.4492 43.8695 46.5687 44.628ZM53.4143 54.3715C52.4214 54.3715 51.5548 54.1439 50.8147 53.6888C50.0746 53.2337 49.4999 52.597 49.0908 51.7787C48.6817 50.9605 48.4771 50.0043 48.4771 48.9102C48.4771 47.8115 48.6817 46.8507 49.0908 46.0278C49.4999 45.205 50.0746 44.566 50.8147 44.1109C51.5548 43.6557 52.4214 43.4282 53.4143 43.4282C54.4073 43.4282 55.2738 43.6557 56.014 44.1109C56.7541 44.566 57.3287 45.205 57.7378 46.0278C58.147 46.8507 58.3516 47.8115 58.3516 48.9102C58.3516 50.0043 58.147 50.9605 57.7378 51.7787C57.3287 52.597 56.7541 53.2337 56.014 53.6888C55.2738 54.1439 54.4073 54.3715 53.4143 54.3715ZM53.4212 52.6407C54.0648 52.6407 54.5981 52.4706 55.021 52.1304C55.4439 51.7902 55.7565 51.3374 55.9588 50.772C56.1657 50.2065 56.2691 49.5836 56.2691 48.9033C56.2691 48.2275 56.1657 47.6069 55.9588 47.0415C55.7565 46.4714 55.4439 46.014 55.021 45.6693C54.5981 45.3245 54.0648 45.1521 53.4212 45.1521C52.773 45.1521 52.2352 45.3245 51.8076 45.6693C51.3847 46.014 51.0698 46.4714 50.863 47.0415C50.6607 47.6069 50.5595 48.2275 50.5595 48.9033C50.5595 49.5836 50.6607 50.2065 50.863 50.772C51.0698 51.3374 51.3847 51.7902 51.8076 52.1304C52.2352 52.4706 52.773 52.6407 53.4212 52.6407ZM62.7147 40.0356V54.1577H60.653V40.0356H62.7147ZM69.9499 54.3715C68.957 54.3715 68.0904 54.1439 67.3503 53.6888C66.6102 53.2337 66.0355 52.597 65.6264 51.7787C65.2173 50.9605 65.0127 50.0043 65.0127 48.9102C65.0127 47.8115 65.2173 46.8507 65.6264 46.0278C66.0355 45.205 66.6102 44.566 67.3503 44.1109C68.0904 43.6557 68.957 43.4282 69.9499 43.4282C70.9429 43.4282 71.8094 43.6557 72.5496 44.1109C73.2897 44.566 73.8643 45.205 74.2735 46.0278C74.6826 46.8507 74.8872 47.8115 74.8872 48.9102C74.8872 50.0043 74.6826 50.9605 74.2735 51.7787C73.8643 52.597 73.2897 53.2337 72.5496 53.6888C71.8094 54.1439 70.9429 54.3715 69.9499 54.3715ZM69.9568 52.6407C70.6004 52.6407 71.1337 52.4706 71.5566 52.1304C71.9795 51.7902 72.2921 51.3374 72.4944 50.772C72.7013 50.2065 72.8047 49.5836 72.8047 48.9033C72.8047 48.2275 72.7013 47.6069 72.4944 47.0415C72.2921 46.4714 71.9795 46.014 71.5566 45.6693C71.1337 45.3245 70.6004 45.1521 69.9568 45.1521C69.3086 45.1521 68.7708 45.3245 68.3433 45.6693C67.9203 46.014 67.6054 46.4714 67.3986 47.0415C67.1963 47.6069 67.0952 48.2275 67.0952 48.9033C67.0952 49.5836 67.1963 50.2065 67.3986 50.772C67.6054 51.3374 67.9203 51.7902 68.3433 52.1304C68.7708 52.4706 69.3086 52.6407 69.9568 52.6407ZM77.1886 54.1577V43.5661H79.1814V45.2486H79.2917C79.4848 44.6786 79.825 44.2304 80.3123 43.904C80.8041 43.573 81.3604 43.4075 81.981 43.4075C82.1097 43.4075 82.2614 43.4121 82.4361 43.4213C82.6154 43.4305 82.7556 43.442 82.8567 43.4558V45.4279C82.774 45.4049 82.6269 45.3796 82.4154 45.3521C82.2039 45.3199 81.9925 45.3038 81.781 45.3038C81.2937 45.3038 80.8593 45.4072 80.4778 45.6141C80.1008 45.8164 79.802 46.0991 79.5813 46.4622C79.3607 46.8208 79.2503 47.23 79.2503 47.6897V54.1577H77.1886Z" fill="#0F172A"/>
<path d="M407.777 50.6254L400.842 43.6904L393.907 50.6254" stroke="#94A3B8" stroke-width="2.31166" stroke-linecap="round" stroke-linejoin="round"/>
<path d="M34.9979 115.316V101.194H43.4657V102.711H36.7081V107.482H42.8313V108.999H36.7081V115.316H34.9979ZM46.174 115.316V104.724H47.8013V115.316H46.174ZM47.0014 102.959C46.6842 102.959 46.4107 102.851 46.1809 102.635C45.9556 102.419 45.843 102.159 45.843 101.856C45.843 101.552 45.9556 101.292 46.1809 101.076C46.4107 100.86 46.6842 100.752 47.0014 100.752C47.3186 100.752 47.5899 100.86 47.8151 101.076C48.045 101.292 48.1599 101.552 48.1599 101.856C48.1599 102.159 48.045 102.419 47.8151 102.635C47.5899 102.851 47.3186 102.959 47.0014 102.959ZM52.4093 101.194V115.316H50.7819V101.194H52.4093ZM57.0173 101.194V115.316H55.3899V101.194H57.0173Z" fill="#475467"/>
<rect x="33.9813" y="139.653" width="37.4489" height="37.4489" rx="4.85449" stroke="#333333" stroke-width="1.387"/>
<path d="M61.0284 153.116C61.0237 152.698 60.9348 152.286 60.7671 151.904C60.5994 151.522 60.3563 151.177 60.0523 150.891C58.8387 149.74 56.8692 149.784 55.6642 150.989L53.6427 153.02C53.2471 152.66 52.7279 152.466 52.1929 152.478C51.6579 152.491 51.1482 152.709 50.7699 153.087L50.3364 153.521C50.2075 153.649 50.1052 153.802 50.0354 153.971C49.9656 154.139 49.9296 154.32 49.9296 154.502C49.9296 154.684 49.9656 154.865 50.0354 155.033C50.1052 155.201 50.2075 155.354 50.3364 155.483L50.5098 155.662L46.0887 160.083C45.6632 160.505 45.3552 161.031 45.1951 161.609C45.035 162.186 45.0284 162.796 45.1759 163.377L44.4824 164.973C44.3855 165.192 44.3574 165.435 44.4019 165.671C44.4463 165.906 44.5611 166.123 44.7312 166.291C44.9276 166.49 45.1794 166.624 45.4536 166.676C45.7277 166.728 46.0111 166.695 46.2664 166.583L47.7861 165.919C48.3566 166.048 48.9504 166.03 49.5121 165.867C50.0738 165.705 50.5849 165.402 50.9978 164.988L55.4189 160.567L55.5975 160.745C55.8576 161.005 56.2102 161.151 56.5779 161.151C56.9456 161.151 57.2983 161.005 57.5583 160.745L57.9918 160.312C58.3709 159.933 58.5892 159.422 58.6011 158.886C58.6131 158.351 58.4178 157.831 58.0559 157.435L60.1147 155.366C60.4107 155.072 60.6442 154.721 60.8012 154.334C60.9582 153.947 61.0355 153.533 61.0284 153.116ZM53.5733 160.458H47.6847L51.4989 156.644L54.4411 159.591L53.5733 160.458Z" fill="#808A9D"/>
<rect x="88.7678" y="138.959" width="152.57" height="38.8359" rx="5.54799" fill="#F8FAFC"/>
<rect x="97.0898" y="147.282" width="22.192" height="22.192" rx="2.77399" fill="#FD5D01"/>
<path d="M136.105 163.281L138.091 151.177H139.509L137.523 163.281H136.105ZM130.626 160.043L130.856 158.624H140.03L139.799 160.043H130.626ZM131.849 163.281L133.835 151.177H135.254L133.268 163.281H131.849ZM131.329 155.834L131.56 154.416H140.733L140.502 155.834H131.329ZM142.305 163.281V151.177H149.811V152.749H144.131V156.437H149.274V158.003H144.131V163.281H142.305ZM155.976 163.281H152.057V151.177H156.1C157.286 151.177 158.305 151.419 159.156 151.904C160.007 152.385 160.659 153.076 161.112 153.978C161.569 154.877 161.798 155.954 161.798 157.211C161.798 158.472 161.567 159.556 161.106 160.462C160.649 161.368 159.987 162.066 159.12 162.555C158.254 163.039 157.205 163.281 155.976 163.281ZM153.884 161.686H155.876C156.798 161.686 157.564 161.512 158.175 161.166C158.786 160.815 159.243 160.309 159.546 159.647C159.849 158.981 160.001 158.169 160.001 157.211C160.001 156.262 159.849 155.456 159.546 154.794C159.247 154.132 158.799 153.63 158.204 153.287C157.609 152.944 156.871 152.773 155.988 152.773H153.884V161.686ZM167.899 163.447C167.158 163.447 166.492 163.305 165.901 163.021C165.314 162.734 164.845 162.34 164.495 161.839C164.144 161.339 163.957 160.768 163.933 160.125H165.706C165.75 160.645 165.98 161.073 166.398 161.408C166.815 161.743 167.316 161.91 167.899 161.91C168.364 161.91 168.776 161.804 169.134 161.591C169.497 161.374 169.781 161.077 169.985 160.699C170.194 160.32 170.299 159.889 170.299 159.404C170.299 158.912 170.192 158.472 169.979 158.086C169.767 157.7 169.473 157.397 169.099 157.176C168.728 156.955 168.303 156.843 167.822 156.839C167.456 156.839 167.087 156.902 166.717 157.028C166.347 157.154 166.047 157.32 165.819 157.525L164.146 157.276L164.826 151.177H171.481V152.743H166.345L165.96 156.13H166.031C166.268 155.901 166.581 155.71 166.971 155.556C167.365 155.403 167.787 155.326 168.236 155.326C168.973 155.326 169.629 155.501 170.204 155.852C170.783 156.203 171.238 156.681 171.569 157.288C171.904 157.891 172.07 158.585 172.066 159.369C172.07 160.153 171.893 160.852 171.534 161.467C171.179 162.082 170.687 162.566 170.056 162.921C169.43 163.272 168.711 163.447 167.899 163.447ZM178.309 163.281H174.39V151.177H178.433C179.619 151.177 180.638 151.419 181.489 151.904C182.34 152.385 182.992 153.076 183.445 153.978C183.902 154.877 184.131 155.954 184.131 157.211C184.131 158.472 183.9 159.556 183.439 160.462C182.982 161.368 182.32 162.066 181.453 162.555C180.586 163.039 179.538 163.281 178.309 163.281ZM176.217 161.686H178.208C179.13 161.686 179.897 161.512 180.508 161.166C181.118 160.815 181.575 160.309 181.879 159.647C182.182 158.981 182.334 158.169 182.334 157.211C182.334 156.262 182.182 155.456 181.879 154.794C181.579 154.132 181.132 153.63 180.537 153.287C179.942 152.944 179.203 152.773 178.321 152.773H176.217V161.686ZM190.451 163.482C189.517 163.479 188.719 163.232 188.057 162.744C187.395 162.255 186.888 161.544 186.538 160.61C186.187 159.676 186.012 158.551 186.012 157.235C186.012 155.923 186.187 154.802 186.538 153.872C186.892 152.942 187.401 152.233 188.063 151.744C188.729 151.256 189.525 151.011 190.451 151.011C191.376 151.011 192.17 151.258 192.832 151.75C193.494 152.239 194.001 152.948 194.351 153.878C194.706 154.804 194.883 155.923 194.883 157.235C194.883 158.555 194.708 159.682 194.357 160.616C194.007 161.546 193.5 162.257 192.838 162.75C192.176 163.238 191.38 163.482 190.451 163.482ZM190.451 161.904C191.27 161.904 191.91 161.504 192.371 160.705C192.836 159.905 193.069 158.748 193.069 157.235C193.069 156.23 192.962 155.381 192.75 154.688C192.541 153.99 192.239 153.462 191.845 153.104C191.455 152.741 190.99 152.56 190.451 152.56C189.635 152.56 188.995 152.962 188.53 153.766C188.065 154.569 187.83 155.726 187.826 157.235C187.826 158.244 187.931 159.097 188.14 159.794C188.352 160.488 188.654 161.014 189.044 161.372C189.434 161.727 189.903 161.904 190.451 161.904ZM201.573 151.177V163.281H199.74V153.009H199.669L196.773 154.9V153.151L199.794 151.177H201.573Z" fill="#0F172A"/>
<rect x="258.675" y="139.653" width="99.8638" height="37.4489" rx="4.85449" stroke="#333333" stroke-width="1.387"/>
<path d="M268.153 158.377C268.153 158.377 270.927 151.905 277.399 151.905C283.872 151.905 286.646 158.377 286.646 158.377C286.646 158.377 283.872 164.85 277.399 164.85C270.927 164.85 268.153 158.377 268.153 158.377Z" stroke="#475569" stroke-width="1.23289" stroke-linecap="round" stroke-linejoin="round"/>
<path d="M277.399 161.152C278.932 161.152 280.173 159.91 280.173 158.378C280.173 156.845 278.932 155.604 277.399 155.604C275.867 155.604 274.625 156.845 274.625 158.378C274.625 159.91 275.867 161.152 277.399 161.152Z" stroke="#475569" stroke-width="1.23289" stroke-linecap="round" stroke-linejoin="round"/>
<path d="M305.348 151.177V163.281H303.516V153.009H303.445L300.549 154.9V153.151L303.569 151.177H305.348ZM312.837 163.482C311.903 163.479 311.105 163.232 310.443 162.744C309.781 162.255 309.275 161.544 308.924 160.61C308.573 159.676 308.398 158.551 308.398 157.235C308.398 155.923 308.573 154.802 308.924 153.872C309.279 152.942 309.787 152.233 310.449 151.744C311.115 151.256 311.911 151.011 312.837 151.011C313.763 151.011 314.557 151.258 315.219 151.75C315.881 152.239 316.387 152.948 316.738 153.878C317.092 154.804 317.27 155.923 317.27 157.235C317.27 158.555 317.094 159.682 316.744 160.616C316.393 161.546 315.887 162.257 315.225 162.75C314.563 163.238 313.767 163.482 312.837 163.482ZM312.837 161.904C313.656 161.904 314.297 161.504 314.758 160.705C315.223 159.905 315.455 158.748 315.455 157.235C315.455 156.23 315.349 155.381 315.136 154.688C314.927 153.99 314.626 153.462 314.232 153.104C313.842 152.741 313.377 152.56 312.837 152.56C312.021 152.56 311.381 152.962 310.916 153.766C310.451 154.569 310.216 155.726 310.212 157.235C310.212 158.244 310.317 159.097 310.526 159.794C310.739 160.488 311.04 161.014 311.43 161.372C311.82 161.727 312.289 161.904 312.837 161.904ZM323.581 163.482C322.647 163.479 321.849 163.232 321.187 162.744C320.525 162.255 320.018 161.544 319.668 160.61C319.317 159.676 319.142 158.551 319.142 157.235C319.142 155.923 319.317 154.802 319.668 153.872C320.022 152.942 320.531 152.233 321.193 151.744C321.859 151.256 322.655 151.011 323.581 151.011C324.507 151.011 325.3 151.258 325.962 151.75C326.624 152.239 327.131 152.948 327.481 153.878C327.836 154.804 328.013 155.923 328.013 157.235C328.013 158.555 327.838 159.682 327.487 160.616C327.137 161.546 326.63 162.257 325.968 162.75C325.306 163.238 324.51 163.482 323.581 163.482ZM323.581 161.904C324.4 161.904 325.04 161.504 325.501 160.705C325.966 159.905 326.199 158.748 326.199 157.235C326.199 156.23 326.093 155.381 325.88 154.688C325.671 153.99 325.369 153.462 324.975 153.104C324.585 152.741 324.12 152.56 323.581 152.56C322.765 152.56 322.125 152.962 321.66 153.766C321.195 154.569 320.96 155.726 320.956 157.235C320.956 158.244 321.061 159.097 321.27 159.794C321.482 160.488 321.784 161.014 322.174 161.372C322.564 161.727 323.033 161.904 323.581 161.904ZM336.428 161.012V160.374C336.428 159.916 336.523 159.499 336.712 159.121C336.905 158.738 337.185 158.433 337.551 158.204C337.922 157.972 338.369 157.856 338.893 157.856C339.429 157.856 339.878 157.97 340.241 158.198C340.603 158.427 340.877 158.732 341.062 159.115C341.251 159.497 341.346 159.916 341.346 160.374V161.012C341.346 161.469 341.251 161.889 341.062 162.271C340.873 162.649 340.595 162.954 340.229 163.187C339.866 163.415 339.421 163.53 338.893 163.53C338.361 163.53 337.912 163.415 337.546 163.187C337.179 162.954 336.901 162.649 336.712 162.271C336.523 161.889 336.428 161.469 336.428 161.012ZM337.806 160.374V161.012C337.806 161.351 337.886 161.658 338.048 161.934C338.21 162.21 338.491 162.348 338.893 162.348C339.291 162.348 339.569 162.21 339.727 161.934C339.884 161.658 339.963 161.351 339.963 161.012V160.374C339.963 160.035 339.886 159.727 339.732 159.451C339.583 159.176 339.303 159.038 338.893 159.038C338.499 159.038 338.219 159.176 338.054 159.451C337.888 159.727 337.806 160.035 337.806 160.374ZM330.341 154.085V153.446C330.341 152.989 330.435 152.57 330.624 152.187C330.817 151.805 331.097 151.5 331.464 151.271C331.834 151.043 332.281 150.929 332.805 150.929C333.341 150.929 333.79 151.043 334.153 151.271C334.515 151.5 334.789 151.805 334.975 152.187C335.16 152.57 335.252 152.989 335.252 153.446V154.085C335.252 154.542 335.158 154.961 334.969 155.344C334.783 155.722 334.508 156.027 334.141 156.26C333.779 156.488 333.333 156.603 332.805 156.603C332.269 156.603 331.818 156.488 331.452 156.26C331.089 156.027 330.814 155.722 330.624 155.344C330.435 154.961 330.341 154.542 330.341 154.085ZM331.724 153.446V154.085C331.724 154.424 331.803 154.731 331.96 155.007C332.122 155.283 332.403 155.421 332.805 155.421C333.199 155.421 333.475 155.283 333.633 155.007C333.794 154.731 333.875 154.424 333.875 154.085V153.446C333.875 153.108 333.798 152.8 333.645 152.524C333.491 152.249 333.211 152.111 332.805 152.111C332.411 152.111 332.132 152.249 331.966 152.524C331.805 152.8 331.724 153.108 331.724 153.446ZM330.902 163.281L339.224 151.177H340.637L332.315 163.281H330.902Z" fill="#808A9D"/>
<rect x="376.569" y="139.653" width="37.4489" height="37.4489" rx="4.85449" stroke="#333333" stroke-width="1.387"/>
<path d="M395.294 151.905V164.85" stroke="#475569" stroke-width="1.23289" stroke-linecap="round" stroke-linejoin="round"/>
<path d="M388.822 158.378H401.767" stroke="#475569" stroke-width="1.23289" stroke-linecap="round" stroke-linejoin="round"/>
<path d="M39.8705 220.221C38.9514 220.221 38.11 220.052 37.3462 219.716C36.5824 219.366 35.9352 218.894 35.4044 218.298C34.8736 217.703 34.4918 217.036 34.2587 216.298L35.9093 215.619C36.2588 216.551 36.7766 217.269 37.4627 217.774C38.1617 218.266 38.9773 218.512 39.9094 218.512C40.479 218.512 40.9774 218.421 41.4045 218.24C41.8317 218.059 42.1618 217.806 42.3949 217.483C42.6408 217.146 42.7638 216.758 42.7638 216.318C42.7638 215.709 42.589 215.23 42.2395 214.881C41.9029 214.518 41.4045 214.246 40.7443 214.065L38.0841 213.25C37.0355 212.926 36.2329 212.415 35.6763 211.715C35.1196 211.016 34.8413 210.214 34.8413 209.308C34.8413 208.518 35.029 207.825 35.4044 207.23C35.7928 206.622 36.3235 206.149 36.9967 205.812C37.6828 205.463 38.4595 205.288 39.3268 205.288C40.1942 205.288 40.9774 205.443 41.6764 205.754C42.3884 206.065 42.9903 206.486 43.4823 207.016C43.9742 207.534 44.3367 208.13 44.5697 208.803L42.9386 209.482C42.6279 208.667 42.1618 208.052 41.5405 207.638C40.9191 207.211 40.1877 206.997 39.3462 206.997C38.8284 206.997 38.3689 207.088 37.9676 207.269C37.5792 207.437 37.275 207.69 37.0549 208.026C36.8478 208.35 36.7442 208.738 36.7442 209.191C36.7442 209.722 36.9125 210.194 37.2491 210.609C37.5857 211.023 38.097 211.34 38.7831 211.56L41.2104 212.279C42.3496 212.628 43.2104 213.127 43.793 213.774C44.3755 214.421 44.6668 215.224 44.6668 216.182C44.6668 216.971 44.4596 217.67 44.0454 218.279C43.6441 218.887 43.081 219.366 42.356 219.716C41.644 220.052 40.8155 220.221 39.8705 220.221ZM51.4919 220.104C50.4692 220.104 49.6795 219.813 49.1229 219.23C48.5792 218.648 48.3073 217.826 48.3073 216.764V211.249H46.4044V209.521H46.7927C47.2588 209.521 47.6277 209.379 47.8995 209.094C48.1714 208.809 48.3073 208.434 48.3073 207.968V207.113H50.1132V209.521H52.4628V211.249H50.1132V216.706C50.1132 217.055 50.165 217.36 50.2685 217.619C50.385 217.877 50.5728 218.085 50.8317 218.24C51.0906 218.382 51.4336 218.454 51.8608 218.454C51.9514 218.454 52.0615 218.447 52.1909 218.434C52.3333 218.421 52.4628 218.408 52.5793 218.395V219.988C52.411 220.026 52.2233 220.052 52.0162 220.065C51.809 220.091 51.6343 220.104 51.4919 220.104ZM54.9383 219.988V209.521H56.7053V211.444L56.5111 211.172C56.7571 210.576 57.1325 210.136 57.6374 209.851C58.1422 209.554 58.7571 209.405 59.4821 209.405H60.1229V211.114H59.2102C58.4723 211.114 57.8768 211.347 57.4238 211.813C56.9707 212.266 56.7441 212.913 56.7441 213.754V219.988H54.9383ZM66.698 220.221C65.6882 220.221 64.7756 219.988 63.96 219.522C63.1445 219.043 62.4972 218.389 62.0182 217.56C61.5392 216.732 61.2998 215.793 61.2998 214.745C61.2998 213.696 61.5328 212.764 61.9988 211.949C62.4778 211.133 63.125 210.486 63.9406 210.007C64.7562 209.528 65.6753 209.288 66.698 209.288C67.7077 209.288 68.6203 209.528 69.4359 210.007C70.2514 210.473 70.8922 211.114 71.3583 211.929C71.8372 212.745 72.0767 213.683 72.0767 214.745C72.0767 215.806 71.8308 216.751 71.3388 217.58C70.8469 218.395 70.1932 219.043 69.3776 219.522C68.575 219.988 67.6818 220.221 66.698 220.221ZM66.698 218.473C67.3452 218.473 67.9278 218.311 68.4456 217.987C68.9763 217.664 69.3906 217.217 69.6883 216.648C69.999 216.078 70.1543 215.444 70.1543 214.745C70.1543 214.033 69.999 213.405 69.6883 212.861C69.3906 212.305 68.9763 211.864 68.4456 211.541C67.9278 211.204 67.3452 211.036 66.698 211.036C66.0377 211.036 65.4423 211.204 64.9115 211.541C64.3937 211.864 63.9794 212.305 63.6687 212.861C63.3581 213.405 63.2027 214.033 63.2027 214.745C63.2027 215.444 63.3581 216.078 63.6687 216.648C63.9794 217.217 64.3937 217.664 64.9115 217.987C65.4423 218.311 66.0377 218.473 66.698 218.473ZM74.4321 219.988V205.288H76.2379V215.366L75.5001 215.191L81.0536 209.521H83.3643L79.3448 213.735L83.6362 219.988H81.5002L77.5778 214.318L78.704 214.259L75.6554 217.444L76.2379 216.123V219.988H74.4321ZM89.8859 220.221C88.8761 220.221 87.9764 219.981 87.1868 219.502C86.3971 219.023 85.7757 218.369 85.3227 217.541C84.8696 216.699 84.643 215.761 84.643 214.725C84.643 213.677 84.8631 212.745 85.3032 211.929C85.7563 211.114 86.3647 210.473 87.1285 210.007C87.9052 209.528 88.7726 209.288 89.7305 209.288C90.5072 209.288 91.1933 209.431 91.7888 209.715C92.3973 209.987 92.9086 210.363 93.3229 210.842C93.75 211.308 94.0737 211.845 94.2937 212.453C94.5268 213.049 94.6433 213.67 94.6433 214.318C94.6433 214.46 94.6303 214.622 94.6044 214.803C94.5915 214.971 94.5721 215.133 94.5462 215.288H85.9634V213.735H93.4976L92.6432 214.434C92.7597 213.761 92.695 213.159 92.449 212.628C92.2031 212.097 91.8406 211.677 91.3616 211.366C90.8827 211.055 90.339 210.9 89.7305 210.9C89.1221 210.9 88.5655 211.055 88.0606 211.366C87.5557 211.677 87.1609 212.123 86.8761 212.706C86.6042 213.275 86.4942 213.955 86.546 214.745C86.4942 215.508 86.6107 216.182 86.8955 216.764C87.1932 217.334 87.6075 217.78 88.1383 218.104C88.682 218.415 89.271 218.57 89.9053 218.57C90.6043 218.57 91.1933 218.408 91.6723 218.085C92.1513 217.761 92.5397 217.347 92.8374 216.842L94.352 217.619C94.1449 218.098 93.8212 218.538 93.3811 218.939C92.9539 219.327 92.4426 219.638 91.8471 219.871C91.2645 220.104 90.6108 220.221 89.8859 220.221Z" fill="#475467"/>
<rect x="33.9813" y="241.325" width="37.4489" height="37.4489" rx="4.85449" stroke="#333333" stroke-width="1.387"/>
<path d="M61.0284 254.788C61.0237 254.37 60.9348 253.958 60.7671 253.576C60.5994 253.194 60.3563 252.849 60.0523 252.563C58.8387 251.412 56.8692 251.455 55.6642 252.661L53.6427 254.692C53.2471 254.332 52.7279 254.138 52.1929 254.15C51.6579 254.162 51.1482 254.381 50.7699 254.759L50.3364 255.192C50.2075 255.321 50.1052 255.474 50.0354 255.643C49.9656 255.811 49.9296 255.991 49.9296 256.174C49.9296 256.356 49.9656 256.537 50.0354 256.705C50.1052 256.873 50.2075 257.026 50.3364 257.155L50.5098 257.334L46.0887 261.755C45.6632 262.177 45.3552 262.703 45.1951 263.281C45.035 263.858 45.0284 264.468 45.1759 265.049L44.4824 266.645C44.3855 266.864 44.3574 267.107 44.4019 267.343C44.4463 267.578 44.5611 267.794 44.7312 267.963C44.9276 268.161 45.1794 268.295 45.4536 268.347C45.7277 268.399 46.0111 268.367 46.2664 268.255L47.7861 267.591C48.3566 267.72 48.9504 267.702 49.5121 267.539C50.0738 267.376 50.5849 267.074 50.9978 266.659L55.4189 262.238L55.5975 262.417C55.8576 262.677 56.2102 262.823 56.5779 262.823C56.9456 262.823 57.2983 262.677 57.5583 262.417L57.9918 261.984C58.3709 261.605 58.5892 261.094 58.6011 260.558C58.6131 260.022 58.4178 259.503 58.0559 259.107L60.1147 257.038C60.4107 256.744 60.6442 256.393 60.8012 256.006C60.9582 255.619 61.0355 255.205 61.0284 254.788ZM53.5733 262.13H47.6847L51.4989 258.316L54.4411 261.263L53.5733 262.13Z" fill="#808A9D"/>
<rect x="88.7678" y="240.632" width="152.57" height="38.8359" rx="5.54799" fill="#F8FAFC"/>
<rect x="97.0898" y="248.954" width="22.192" height="22.192" rx="2.77399" fill="#B4B4B4"/>
<path d="M136.105 264.954L138.091 252.849H139.509L137.523 264.954H136.105ZM130.626 261.715L130.856 260.296H140.03L139.799 261.715H130.626ZM131.849 264.954L133.835 252.849H135.254L133.268 264.954H131.849ZM131.329 257.506L131.56 256.088H140.733L140.502 257.506H131.329ZM142.305 264.954V252.849H146.738C147.597 252.849 148.308 252.991 148.872 253.274C149.435 253.554 149.857 253.934 150.136 254.415C150.416 254.892 150.556 255.43 150.556 256.029C150.556 256.533 150.464 256.959 150.278 257.305C150.093 257.648 149.845 257.924 149.534 258.133C149.226 258.338 148.887 258.488 148.517 258.582V258.7C148.919 258.72 149.311 258.85 149.693 259.09C150.079 259.327 150.399 259.664 150.651 260.101C150.903 260.538 151.029 261.07 151.029 261.697C151.029 262.316 150.883 262.871 150.592 263.364C150.304 263.852 149.859 264.24 149.256 264.528C148.653 264.812 147.883 264.954 146.945 264.954H142.305ZM144.131 263.387H146.767C147.642 263.387 148.269 263.218 148.647 262.879C149.025 262.54 149.214 262.117 149.214 261.608C149.214 261.226 149.118 260.875 148.925 260.556C148.732 260.237 148.456 259.983 148.097 259.794C147.743 259.605 147.321 259.51 146.833 259.51H144.131V263.387ZM144.131 258.086H146.578C146.988 258.086 147.357 258.007 147.684 257.849C148.015 257.692 148.277 257.471 148.47 257.187C148.667 256.9 148.765 256.561 148.765 256.171C148.765 255.67 148.59 255.251 148.239 254.912C147.889 254.573 147.351 254.403 146.626 254.403H144.131V258.086ZM152.776 262.589V261.112L158.006 252.849H159.171V255.024H158.432L154.691 260.946V261.041H161.86V262.589H152.776ZM158.515 264.954V262.14L158.526 261.466V252.849H160.258V264.954H158.515ZM164.085 264.954V252.849H168.518C169.377 252.849 170.088 252.991 170.652 253.274C171.215 253.554 171.637 253.934 171.917 254.415C172.196 254.892 172.336 255.43 172.336 256.029C172.336 256.533 172.244 256.959 172.059 257.305C171.873 257.648 171.625 257.924 171.314 258.133C171.006 258.338 170.668 258.488 170.297 258.582V258.7C170.699 258.72 171.091 258.85 171.473 259.09C171.86 259.327 172.179 259.664 172.431 260.101C172.683 260.538 172.809 261.07 172.809 261.697C172.809 262.316 172.663 262.871 172.372 263.364C172.084 263.852 171.639 264.24 171.036 264.528C170.433 264.812 169.663 264.954 168.725 264.954H164.085ZM165.912 263.387H168.548C169.422 263.387 170.049 263.218 170.427 262.879C170.805 262.54 170.995 262.117 170.995 261.608C170.995 261.226 170.898 260.875 170.705 260.556C170.512 260.237 170.236 259.983 169.878 259.794C169.523 259.605 169.101 259.51 168.613 259.51H165.912V263.387ZM165.912 258.086H168.359C168.768 258.086 169.137 258.007 169.464 257.849C169.795 257.692 170.057 257.471 170.25 257.187C170.447 256.9 170.545 256.561 170.545 256.171C170.545 255.67 170.37 255.251 170.019 254.912C169.669 254.573 169.131 254.403 168.406 254.403H165.912V258.086ZM174.556 262.589V261.112L179.786 252.849H180.951V255.024H180.212L176.471 260.946V261.041H183.64V262.589H174.556ZM180.295 264.954V262.14L180.307 261.466V252.849H182.038V264.954H180.295ZM185.865 264.954V252.849H190.298C191.157 252.849 191.869 252.991 192.432 253.274C192.995 253.554 193.417 253.934 193.697 254.415C193.977 254.892 194.116 255.43 194.116 256.029C194.116 256.533 194.024 256.959 193.839 257.305C193.654 257.648 193.405 257.924 193.094 258.133C192.787 258.338 192.448 258.488 192.077 258.582V258.7C192.479 258.72 192.871 258.85 193.254 259.09C193.64 259.327 193.959 259.664 194.211 260.101C194.463 260.538 194.589 261.07 194.589 261.697C194.589 262.316 194.444 262.871 194.152 263.364C193.864 263.852 193.419 264.24 192.816 264.528C192.213 264.812 191.443 264.954 190.505 264.954H185.865ZM187.692 263.387H190.328C191.203 263.387 191.829 263.218 192.207 262.879C192.586 262.54 192.775 262.117 192.775 261.608C192.775 261.226 192.678 260.875 192.485 260.556C192.292 260.237 192.016 259.983 191.658 259.794C191.303 259.605 190.881 259.51 190.393 259.51H187.692V263.387ZM187.692 258.086H190.139C190.549 258.086 190.917 258.007 191.244 257.849C191.575 257.692 191.837 257.471 192.03 257.187C192.227 256.9 192.326 256.561 192.326 256.171C192.326 255.67 192.15 255.251 191.8 254.912C191.449 254.573 190.911 254.403 190.186 254.403H187.692V258.086ZM196.336 262.589V261.112L201.567 252.849H202.731V255.024H201.992L198.251 260.946V261.041H205.42V262.589H196.336ZM202.075 264.954V262.14L202.087 261.466V252.849H203.819V264.954H202.075Z" fill="#0F172A"/>
<rect x="258.675" y="241.325" width="99.8638" height="37.4489" rx="4.85449" stroke="#0F172A" stroke-opacity="0.2" stroke-width="1.387"/>
<path d="M268.153 260.05C268.153 260.05 270.927 253.577 277.399 253.577C283.872 253.577 286.646 260.05 286.646 260.05C286.646 260.05 283.872 266.522 277.399 266.522C270.927 266.522 268.153 260.05 268.153 260.05Z" stroke="#475569" stroke-width="1.23289" stroke-linecap="round" stroke-linejoin="round"/>
<path d="M277.399 262.824C278.932 262.824 280.173 261.582 280.173 260.05C280.173 258.518 278.932 257.276 277.399 257.276C275.867 257.276 274.625 258.518 274.625 260.05C274.625 261.582 275.867 262.824 277.399 262.824Z" stroke="#475569" stroke-width="1.23289" stroke-linecap="round" stroke-linejoin="round"/>
<path d="M305.348 252.849V264.954H303.516V254.681H303.445L300.549 256.573V254.823L303.569 252.849H305.348ZM312.837 265.155C311.903 265.151 311.105 264.904 310.443 264.416C309.781 263.927 309.275 263.216 308.924 262.282C308.573 261.348 308.398 260.223 308.398 258.907C308.398 257.595 308.573 256.474 308.924 255.544C309.279 254.614 309.787 253.905 310.449 253.416C311.115 252.928 311.911 252.683 312.837 252.683C313.763 252.683 314.557 252.93 315.219 253.422C315.881 253.911 316.387 254.62 316.738 255.55C317.092 256.476 317.27 257.595 317.27 258.907C317.27 260.227 317.094 261.354 316.744 262.288C316.393 263.218 315.887 263.929 315.225 264.422C314.563 264.91 313.767 265.155 312.837 265.155ZM312.837 263.576C313.656 263.576 314.297 263.177 314.758 262.377C315.223 261.577 315.455 260.42 315.455 258.907C315.455 257.902 315.349 257.053 315.136 256.36C314.927 255.662 314.626 255.134 314.232 254.776C313.842 254.413 313.377 254.232 312.837 254.232C312.021 254.232 311.381 254.634 310.916 255.438C310.451 256.242 310.216 257.398 310.212 258.907C310.212 259.916 310.317 260.769 310.526 261.466C310.739 262.16 311.04 262.686 311.43 263.045C311.82 263.399 312.289 263.576 312.837 263.576ZM323.581 265.155C322.647 265.151 321.849 264.904 321.187 264.416C320.525 263.927 320.018 263.216 319.668 262.282C319.317 261.348 319.142 260.223 319.142 258.907C319.142 257.595 319.317 256.474 319.668 255.544C320.022 254.614 320.531 253.905 321.193 253.416C321.859 252.928 322.655 252.683 323.581 252.683C324.507 252.683 325.3 252.93 325.962 253.422C326.624 253.911 327.131 254.62 327.481 255.55C327.836 256.476 328.013 257.595 328.013 258.907C328.013 260.227 327.838 261.354 327.487 262.288C327.137 263.218 326.63 263.929 325.968 264.422C325.306 264.91 324.51 265.155 323.581 265.155ZM323.581 263.576C324.4 263.576 325.04 263.177 325.501 262.377C325.966 261.577 326.199 260.42 326.199 258.907C326.199 257.902 326.093 257.053 325.88 256.36C325.671 255.662 325.369 255.134 324.975 254.776C324.585 254.413 324.12 254.232 323.581 254.232C322.765 254.232 322.125 254.634 321.66 255.438C321.195 256.242 320.96 257.398 320.956 258.907C320.956 259.916 321.061 260.769 321.27 261.466C321.482 262.16 321.784 262.686 322.174 263.045C322.564 263.399 323.033 263.576 323.581 263.576ZM336.428 262.684V262.046C336.428 261.589 336.523 261.171 336.712 260.793C336.905 260.41 337.185 260.105 337.551 259.876C337.922 259.644 338.369 259.528 338.893 259.528C339.429 259.528 339.878 259.642 340.241 259.871C340.603 260.099 340.877 260.405 341.062 260.787C341.251 261.169 341.346 261.589 341.346 262.046V262.684C341.346 263.141 341.251 263.561 341.062 263.943C340.873 264.321 340.595 264.627 340.229 264.859C339.866 265.088 339.421 265.202 338.893 265.202C338.361 265.202 337.912 265.088 337.546 264.859C337.179 264.627 336.901 264.321 336.712 263.943C336.523 263.561 336.428 263.141 336.428 262.684ZM337.806 262.046V262.684C337.806 263.023 337.886 263.33 338.048 263.606C338.21 263.882 338.491 264.02 338.893 264.02C339.291 264.02 339.569 263.882 339.727 263.606C339.884 263.33 339.963 263.023 339.963 262.684V262.046C339.963 261.707 339.886 261.399 339.732 261.124C339.583 260.848 339.303 260.71 338.893 260.71C338.499 260.71 338.219 260.848 338.054 261.124C337.888 261.399 337.806 261.707 337.806 262.046ZM330.341 255.757V255.119C330.341 254.661 330.435 254.242 330.624 253.86C330.817 253.477 331.097 253.172 331.464 252.943C331.834 252.715 332.281 252.601 332.805 252.601C333.341 252.601 333.79 252.715 334.153 252.943C334.515 253.172 334.789 253.477 334.975 253.86C335.16 254.242 335.252 254.661 335.252 255.119V255.757C335.252 256.214 335.158 256.634 334.969 257.016C334.783 257.394 334.508 257.699 334.141 257.932C333.779 258.16 333.333 258.275 332.805 258.275C332.269 258.275 331.818 258.16 331.452 257.932C331.089 257.699 330.814 257.394 330.624 257.016C330.435 256.634 330.341 256.214 330.341 255.757ZM331.724 255.119V255.757C331.724 256.096 331.803 256.403 331.96 256.679C332.122 256.955 332.403 257.093 332.805 257.093C333.199 257.093 333.475 256.955 333.633 256.679C333.794 256.403 333.875 256.096 333.875 255.757V255.119C333.875 254.78 333.798 254.472 333.645 254.197C333.491 253.921 333.211 253.783 332.805 253.783C332.411 253.783 332.132 253.921 331.966 254.197C331.805 254.472 331.724 254.78 331.724 255.119ZM330.902 264.954L339.224 252.849H340.637L332.315 264.954H330.902Z" fill="#808A9D"/>
<rect x="376.569" y="241.325" width="37.4489" height="37.4489" rx="4.85449" stroke="#333333" stroke-width="1.387"/>
<path d="M395.294 253.577V266.522" stroke="#475569" stroke-width="1.23289" stroke-linecap="round" stroke-linejoin="round"/>
<path d="M388.822 260.05H401.767" stroke="#475569" stroke-width="1.23289" stroke-linecap="round" stroke-linejoin="round"/>
<path d="M34.9979 322.659V308.537H39.7697C40.873 308.537 41.7786 308.726 42.4865 309.103C43.1945 309.475 43.7186 309.988 44.0587 310.64C44.3989 311.293 44.569 312.036 44.569 312.868C44.569 313.7 44.3989 314.438 44.0587 315.081C43.7186 315.725 43.1968 316.23 42.4934 316.598C41.7901 316.961 40.8914 317.143 39.7973 317.143H35.9357V315.598H39.7421C40.496 315.598 41.1028 315.488 41.5625 315.267C42.0268 315.047 42.3624 314.734 42.5693 314.33C42.7808 313.92 42.8865 313.433 42.8865 312.868C42.8865 312.302 42.7808 311.808 42.5693 311.385C42.3578 310.962 42.0199 310.636 41.5556 310.406C41.0913 310.172 40.4776 310.054 39.7145 310.054H36.7081V322.659H34.9979ZM41.6453 316.315L45.1207 322.659H43.1347L39.7145 316.315H41.6453ZM51.5249 322.88C50.5044 322.88 49.624 322.655 48.8839 322.204C48.1484 321.749 47.5807 321.115 47.1807 320.301C46.7854 319.483 46.5877 318.531 46.5877 317.446C46.5877 316.361 46.7854 315.405 47.1807 314.578C47.5807 313.746 48.1369 313.098 48.8494 312.633C49.5666 312.164 50.4032 311.93 51.3594 311.93C51.9111 311.93 52.4558 312.022 52.9937 312.206C53.5315 312.39 54.0211 312.688 54.4624 313.102C54.9038 313.511 55.2554 314.054 55.5175 314.73C55.7795 315.405 55.9105 316.237 55.9105 317.226V317.915H47.7462V316.509H54.2556C54.2556 315.911 54.1361 315.378 53.897 314.909C53.6626 314.44 53.327 314.07 52.8903 313.799C52.4581 313.527 51.9479 313.392 51.3594 313.392C50.7113 313.392 50.1504 313.553 49.6769 313.874C49.208 314.192 48.8471 314.605 48.5943 315.116C48.3415 315.626 48.2151 316.173 48.2151 316.757V317.695C48.2151 318.494 48.353 319.173 48.6288 319.729C48.9092 320.28 49.2977 320.701 49.7941 320.991C50.2906 321.276 50.8676 321.418 51.5249 321.418C51.9525 321.418 52.3386 321.358 52.6834 321.239C53.0328 321.115 53.3339 320.931 53.5867 320.687C53.8395 320.439 54.0349 320.131 54.1728 319.763L55.745 320.205C55.5795 320.738 55.3014 321.207 54.9107 321.611C54.5199 322.011 54.0372 322.324 53.4626 322.549C52.888 322.77 52.2421 322.88 51.5249 322.88ZM62.6889 322.88C61.6959 322.88 60.8409 322.646 60.1237 322.177C59.4066 321.708 58.8549 321.062 58.4688 320.239C58.0826 319.416 57.8896 318.476 57.8896 317.419C57.8896 316.343 58.0872 315.394 58.4826 314.571C58.8825 313.743 59.4388 313.098 60.1513 312.633C60.8684 312.164 61.7051 311.93 62.6613 311.93C63.406 311.93 64.0772 312.068 64.6748 312.344C65.2724 312.619 65.762 313.006 66.1436 313.502C66.5251 313.999 66.7619 314.578 66.8538 315.24H65.2264C65.1023 314.757 64.8265 314.33 64.399 313.957C63.9761 313.58 63.406 313.392 62.6889 313.392C62.0545 313.392 61.4982 313.557 61.0201 313.888C60.5466 314.215 60.1766 314.677 59.91 315.274C59.6479 315.867 59.5169 316.564 59.5169 317.364C59.5169 318.182 59.6456 318.894 59.9031 319.501C60.1651 320.108 60.5329 320.579 61.0064 320.915C61.4844 321.25 62.0453 321.418 62.6889 321.418C63.1118 321.418 63.4957 321.345 63.8404 321.198C64.1852 321.05 64.4771 320.839 64.7162 320.563C64.9552 320.287 65.1253 319.956 65.2264 319.57H66.8538C66.7619 320.195 66.5343 320.759 66.1711 321.26C65.8126 321.756 65.3368 322.151 64.7438 322.446C64.1553 322.735 63.4704 322.88 62.6889 322.88ZM73.6735 322.88C72.653 322.88 71.7727 322.655 71.0325 322.204C70.297 321.749 69.7293 321.115 69.3293 320.301C68.934 319.483 68.7363 318.531 68.7363 317.446C68.7363 316.361 68.934 315.405 69.3293 314.578C69.7293 313.746 70.2855 313.098 70.998 312.633C71.7152 312.164 72.5519 311.93 73.508 311.93C74.0597 311.93 74.6044 312.022 75.1423 312.206C75.6801 312.39 76.1697 312.688 76.6111 313.102C77.0524 313.511 77.404 314.054 77.6661 314.73C77.9281 315.405 78.0591 316.237 78.0591 317.226V317.915H69.8948V316.509H76.4042C76.4042 315.911 76.2847 315.378 76.0456 314.909C75.8112 314.44 75.4756 314.07 75.0389 313.799C74.6067 313.527 74.0965 313.392 73.508 313.392C72.8599 313.392 72.299 313.553 71.8255 313.874C71.3566 314.192 70.9958 314.605 70.7429 315.116C70.4901 315.626 70.3637 316.173 70.3637 316.757V317.695C70.3637 318.494 70.5016 319.173 70.7774 319.729C71.0578 320.28 71.4463 320.701 71.9427 320.991C72.4392 321.276 73.0162 321.418 73.6735 321.418C74.1011 321.418 74.4872 321.358 74.832 321.239C75.1814 321.115 75.4825 320.931 75.7353 320.687C75.9882 320.439 76.1835 320.131 76.3214 319.763L77.8936 320.205C77.7281 320.738 77.45 321.207 77.0593 321.611C76.6685 322.011 76.1858 322.324 75.6112 322.549C75.0366 322.77 74.3907 322.88 73.6735 322.88ZM82.162 316.288V322.659H80.5346V312.068H82.1068V313.723H82.2447C82.493 313.185 82.8699 312.753 83.3756 312.426C83.8813 312.095 84.5341 311.93 85.334 311.93C86.0511 311.93 86.6786 312.077 87.2165 312.371C87.7543 312.661 88.1726 313.102 88.4715 313.695C88.7703 314.284 88.9197 315.028 88.9197 315.929V322.659H87.2923V316.04C87.2923 315.208 87.0762 314.559 86.6441 314.095C86.212 313.626 85.619 313.392 84.8651 313.392C84.3456 313.392 83.8813 313.504 83.4722 313.73C83.0676 313.955 82.7481 314.284 82.5137 314.716C82.2792 315.148 82.162 315.672 82.162 316.288ZM96.4996 312.068V313.447H91.0107V312.068H96.4996ZM92.6105 309.53H94.2379V319.625C94.2379 320.085 94.3045 320.43 94.4379 320.66C94.5758 320.885 94.7505 321.037 94.9619 321.115C95.178 321.188 95.4055 321.225 95.6446 321.225C95.8239 321.225 95.971 321.216 96.0859 321.198C96.2008 321.175 96.2928 321.156 96.3617 321.142L96.6927 322.604C96.5824 322.646 96.4284 322.687 96.2307 322.728C96.033 322.774 95.7825 322.797 95.4791 322.797C95.0194 322.797 94.5689 322.698 94.1276 322.501C93.6908 322.303 93.3277 322.002 93.0381 321.598C92.753 321.193 92.6105 320.683 92.6105 320.067V309.53ZM115.993 312.95H114.283C114.182 312.459 114.005 312.026 113.752 311.654C113.504 311.282 113.201 310.969 112.842 310.716C112.488 310.459 112.095 310.266 111.663 310.137C111.231 310.008 110.78 309.944 110.311 309.944C109.456 309.944 108.682 310.16 107.988 310.592C107.298 311.024 106.749 311.661 106.34 312.502C105.935 313.343 105.733 314.376 105.733 315.598C105.733 316.821 105.935 317.853 106.34 318.694C106.749 319.536 107.298 320.172 107.988 320.605C108.682 321.037 109.456 321.253 110.311 321.253C110.78 321.253 111.231 321.188 111.663 321.06C112.095 320.931 112.488 320.74 112.842 320.487C113.201 320.23 113.504 319.915 113.752 319.543C114.005 319.166 114.182 318.734 114.283 318.246H115.993C115.865 318.968 115.63 319.614 115.29 320.184C114.95 320.754 114.527 321.239 114.021 321.639C113.516 322.034 112.948 322.335 112.318 322.542C111.693 322.749 111.024 322.853 110.311 322.853C109.107 322.853 108.036 322.558 107.098 321.97C106.16 321.381 105.423 320.545 104.885 319.46C104.347 318.375 104.078 317.088 104.078 315.598C104.078 314.109 104.347 312.822 104.885 311.737C105.423 310.652 106.16 309.815 107.098 309.227C108.036 308.638 109.107 308.344 110.311 308.344C111.024 308.344 111.693 308.448 112.318 308.654C112.948 308.861 113.516 309.165 114.021 309.565C114.527 309.96 114.95 310.443 115.29 311.013C115.63 311.578 115.865 312.224 115.993 312.95ZM122.839 322.88C121.883 322.88 121.044 322.653 120.322 322.197C119.605 321.742 119.044 321.106 118.64 320.287C118.24 319.469 118.04 318.513 118.04 317.419C118.04 316.315 118.24 315.352 118.64 314.53C119.044 313.707 119.605 313.068 120.322 312.613C121.044 312.157 121.883 311.93 122.839 311.93C123.795 311.93 124.632 312.157 125.349 312.613C126.071 313.068 126.632 313.707 127.032 314.53C127.436 315.352 127.638 316.315 127.638 317.419C127.638 318.513 127.436 319.469 127.032 320.287C126.632 321.106 126.071 321.742 125.349 322.197C124.632 322.653 123.795 322.88 122.839 322.88ZM122.839 321.418C123.565 321.418 124.163 321.232 124.632 320.86C125.101 320.487 125.448 319.998 125.673 319.391C125.898 318.784 126.011 318.127 126.011 317.419C126.011 316.711 125.898 316.051 125.673 315.44C125.448 314.828 125.101 314.334 124.632 313.957C124.163 313.58 123.565 313.392 122.839 313.392C122.113 313.392 121.515 313.58 121.046 313.957C120.577 314.334 120.23 314.828 120.005 315.44C119.78 316.051 119.667 316.711 119.667 317.419C119.667 318.127 119.78 318.784 120.005 319.391C120.23 319.998 120.577 320.487 121.046 320.86C121.515 321.232 122.113 321.418 122.839 321.418ZM131.75 308.537V322.659H130.122V308.537H131.75ZM139.033 322.88C138.077 322.88 137.238 322.653 136.516 322.197C135.799 321.742 135.238 321.106 134.834 320.287C134.434 319.469 134.234 318.513 134.234 317.419C134.234 316.315 134.434 315.352 134.834 314.53C135.238 313.707 135.799 313.068 136.516 312.613C137.238 312.157 138.077 311.93 139.033 311.93C139.989 311.93 140.826 312.157 141.543 312.613C142.265 313.068 142.826 313.707 143.226 314.53C143.63 315.352 143.833 316.315 143.833 317.419C143.833 318.513 143.63 319.469 143.226 320.287C142.826 321.106 142.265 321.742 141.543 322.197C140.826 322.653 139.989 322.88 139.033 322.88ZM139.033 321.418C139.76 321.418 140.357 321.232 140.826 320.86C141.295 320.487 141.642 319.998 141.867 319.391C142.093 318.784 142.205 318.127 142.205 317.419C142.205 316.711 142.093 316.051 141.867 315.44C141.642 314.828 141.295 314.334 140.826 313.957C140.357 313.58 139.76 313.392 139.033 313.392C138.307 313.392 137.709 313.58 137.24 313.957C136.772 314.334 136.424 314.828 136.199 315.44C135.974 316.051 135.861 316.711 135.861 317.419C135.861 318.127 135.974 318.784 136.199 319.391C136.424 319.998 136.772 320.487 137.24 320.86C137.709 321.232 138.307 321.418 139.033 321.418ZM146.317 322.659V312.068H147.889V313.668H147.999C148.192 313.144 148.542 312.718 149.047 312.392C149.553 312.066 150.123 311.902 150.758 311.902C150.877 311.902 151.026 311.905 151.206 311.909C151.385 311.914 151.521 311.921 151.613 311.93V313.585C151.557 313.571 151.431 313.55 151.233 313.523C151.04 313.491 150.836 313.475 150.62 313.475C150.105 313.475 149.645 313.583 149.24 313.799C148.841 314.01 148.523 314.304 148.289 314.681C148.059 315.054 147.944 315.479 147.944 315.957V322.659H146.317ZM161.044 314.44L159.582 314.854C159.49 314.61 159.355 314.373 159.175 314.143C159.001 313.909 158.762 313.716 158.458 313.564C158.155 313.412 157.766 313.337 157.293 313.337C156.645 313.337 156.104 313.486 155.672 313.785C155.245 314.079 155.031 314.454 155.031 314.909C155.031 315.313 155.178 315.633 155.472 315.867C155.767 316.102 156.226 316.297 156.851 316.453L158.424 316.84C159.371 317.069 160.076 317.421 160.541 317.895C161.005 318.363 161.237 318.968 161.237 319.708C161.237 320.315 161.062 320.857 160.713 321.335C160.368 321.814 159.886 322.191 159.265 322.466C158.644 322.742 157.923 322.88 157.1 322.88C156.019 322.88 155.125 322.646 154.417 322.177C153.709 321.708 153.261 321.023 153.073 320.122L154.617 319.736C154.764 320.306 155.043 320.733 155.452 321.018C155.865 321.303 156.406 321.446 157.072 321.446C157.831 321.446 158.433 321.285 158.879 320.963C159.329 320.637 159.555 320.246 159.555 319.791C159.555 319.423 159.426 319.115 159.168 318.867C158.911 318.614 158.516 318.426 157.982 318.301L156.217 317.888C155.247 317.658 154.535 317.302 154.079 316.819C153.629 316.332 153.404 315.722 153.404 314.992C153.404 314.394 153.571 313.865 153.907 313.406C154.247 312.946 154.709 312.585 155.293 312.323C155.882 312.061 156.548 311.93 157.293 311.93C158.341 311.93 159.164 312.16 159.761 312.619C160.364 313.079 160.791 313.686 161.044 314.44Z" fill="#475467"/>
<rect x="33.2878" y="346.303" width="38.8359" height="38.8359" rx="5.54799" fill="#787878"/>
<rect x="83.2197" y="346.303" width="38.8359" height="38.8359" rx="5.54799" fill="#570DE6"/>
<rect x="133.152" y="346.303" width="38.8359" height="38.8359" rx="5.54799" fill="#93B6F8"/>
<rect x="183.083" y="346.303" width="38.8359" height="38.8359" rx="5.54799" fill="#1DBF73"/>
<rect x="233.015" y="346.303" width="38.8359" height="38.8359" rx="5.54799" fill="#FD5D01"/>
<rect x="282.947" y="346.303" width="38.8359" height="38.8359" rx="5.54799" fill="#1B75FB"/>
<rect x="333.573" y="346.997" width="37.4489" height="37.4489" rx="4.85449" stroke="#F1F5F9" stroke-width="1.387"/>
<path d="M352.297 359.249V372.194" stroke="#475569" stroke-width="1.23289" stroke-linecap="round" stroke-linejoin="round"/>
<path d="M345.824 365.721H358.77" stroke="#475569" stroke-width="1.23289" stroke-linecap="round" stroke-linejoin="round"/>
</svg>
