<svg width="494" height="465" viewBox="0 0 494 465" fill="none" xmlns="http://www.w3.org/2000/svg">
<g filter="url(#filter0_d_457_15072)">
<rect x="34" y="12" width="448" height="418.427" rx="20.5523" fill="white" shape-rendering="crispEdges"/>
<path d="M80.5687 56.628H78.4173C78.3346 56.1683 78.1806 55.7638 77.9553 55.4144C77.73 55.065 77.4542 54.7685 77.1278 54.5249C76.8014 54.2812 76.436 54.0973 76.0314 53.9732C75.6315 53.8491 75.2063 53.787 74.7558 53.787C73.9421 53.787 73.2134 53.9916 72.5699 54.4007C71.9309 54.8099 71.4252 55.4098 71.0528 56.2005C70.6851 56.9912 70.5012 57.9566 70.5012 59.0966C70.5012 60.2459 70.6851 61.2159 71.0528 62.0066C71.4252 62.7973 71.9332 63.3949 72.5768 63.7994C73.2203 64.204 73.9444 64.4062 74.7489 64.4062C75.1948 64.4062 75.6177 64.3465 76.0176 64.227C76.4222 64.1028 76.7877 63.9212 77.114 63.6822C77.4404 63.4432 77.7163 63.1512 77.9415 62.8065C78.1714 62.4571 78.33 62.0571 78.4173 61.6066L80.5687 61.6135C80.4538 62.3077 80.2308 62.9467 79.8999 63.5305C79.5735 64.1097 79.1528 64.6108 78.638 65.0337C78.1277 65.4521 77.5439 65.7762 76.8865 66.006C76.2291 66.2359 75.512 66.3508 74.7351 66.3508C73.5123 66.3508 72.4228 66.0612 71.4666 65.4819C70.5104 64.8981 69.7565 64.0638 69.2048 62.9789C68.6578 61.8939 68.3842 60.5999 68.3842 59.0966C68.3842 57.5888 68.6601 56.2947 69.2117 55.2144C69.7634 54.1295 70.5173 53.2975 71.4735 52.7182C72.4296 52.1344 73.5169 51.8425 74.7351 51.8425C75.4844 51.8425 76.1831 51.9505 76.8313 52.1666C77.4841 52.378 78.0702 52.6906 78.5897 53.1044C79.1092 53.5135 79.539 54.0146 79.8792 54.6076C80.2194 55.196 80.4492 55.8695 80.5687 56.628ZM87.4143 66.3715C86.4214 66.3715 85.5548 66.1439 84.8147 65.6888C84.0746 65.2337 83.4999 64.597 83.0908 63.7787C82.6817 62.9605 82.4771 62.0043 82.4771 60.9102C82.4771 59.8115 82.6817 58.8507 83.0908 58.0278C83.4999 57.205 84.0746 56.566 84.8147 56.1109C85.5548 55.6557 86.4214 55.4282 87.4143 55.4282C88.4073 55.4282 89.2738 55.6557 90.014 56.1109C90.7541 56.566 91.3287 57.205 91.7378 58.0278C92.147 58.8507 92.3516 59.8115 92.3516 60.9102C92.3516 62.0043 92.147 62.9605 91.7378 63.7787C91.3287 64.597 90.7541 65.2337 90.014 65.6888C89.2738 66.1439 88.4073 66.3715 87.4143 66.3715ZM87.4212 64.6407C88.0648 64.6407 88.5981 64.4706 89.021 64.1304C89.4439 63.7902 89.7565 63.3374 89.9588 62.772C90.1657 62.2065 90.2691 61.5836 90.2691 60.9033C90.2691 60.2275 90.1657 59.6069 89.9588 59.0415C89.7565 58.4714 89.4439 58.014 89.021 57.6693C88.5981 57.3245 88.0648 57.1521 87.4212 57.1521C86.773 57.1521 86.2352 57.3245 85.8076 57.6693C85.3847 58.014 85.0698 58.4714 84.863 59.0415C84.6607 59.6069 84.5595 60.2275 84.5595 60.9033C84.5595 61.5836 84.6607 62.2065 84.863 62.772C85.0698 63.3374 85.3847 63.7902 85.8076 64.1304C86.2352 64.4706 86.773 64.6407 87.4212 64.6407ZM96.7147 52.0356V66.1577H94.653V52.0356H96.7147ZM103.95 66.3715C102.957 66.3715 102.09 66.1439 101.35 65.6888C100.61 65.2337 100.036 64.597 99.6264 63.7787C99.2173 62.9605 99.0127 62.0043 99.0127 60.9102C99.0127 59.8115 99.2173 58.8507 99.6264 58.0278C100.036 57.205 100.61 56.566 101.35 56.1109C102.09 55.6557 102.957 55.4282 103.95 55.4282C104.943 55.4282 105.809 55.6557 106.55 56.1109C107.29 56.566 107.864 57.205 108.273 58.0278C108.683 58.8507 108.887 59.8115 108.887 60.9102C108.887 62.0043 108.683 62.9605 108.273 63.7787C107.864 64.597 107.29 65.2337 106.55 65.6888C105.809 66.1439 104.943 66.3715 103.95 66.3715ZM103.957 64.6407C104.6 64.6407 105.134 64.4706 105.557 64.1304C105.98 63.7902 106.292 63.3374 106.494 62.772C106.701 62.2065 106.805 61.5836 106.805 60.9033C106.805 60.2275 106.701 59.6069 106.494 59.0415C106.292 58.4714 105.98 58.014 105.557 57.6693C105.134 57.3245 104.6 57.1521 103.957 57.1521C103.309 57.1521 102.771 57.3245 102.343 57.6693C101.92 58.014 101.605 58.4714 101.399 59.0415C101.196 59.6069 101.095 60.2275 101.095 60.9033C101.095 61.5836 101.196 62.2065 101.399 62.772C101.605 63.3374 101.92 63.7902 102.343 64.1304C102.771 64.4706 103.309 64.6407 103.957 64.6407ZM111.189 66.1577V55.5661H113.181V57.2486H113.292C113.485 56.6786 113.825 56.2304 114.312 55.904C114.804 55.573 115.36 55.4075 115.981 55.4075C116.11 55.4075 116.261 55.4121 116.436 55.4213C116.615 55.4305 116.756 55.442 116.857 55.4558V57.4279C116.774 57.4049 116.627 57.3796 116.415 57.3521C116.204 57.3199 115.992 57.3038 115.781 57.3038C115.294 57.3038 114.859 57.4072 114.478 57.6141C114.101 57.8164 113.802 58.0991 113.581 58.4622C113.361 58.8208 113.25 59.23 113.25 59.6897V66.1577H111.189Z" fill="#0F172A"/>
<path d="M441.777 62.6254L434.842 55.6904L427.907 62.6254" stroke="#94A3B8" stroke-width="2.31166" stroke-linecap="round" stroke-linejoin="round"/>
<path d="M68.9979 127.316V113.194H77.4657V114.711H70.7081V119.482H76.8313V120.999H70.7081V127.316H68.9979ZM80.174 127.316V116.724H81.8013V127.316H80.174ZM81.0014 114.959C80.6842 114.959 80.4107 114.851 80.1809 114.635C79.9556 114.419 79.843 114.159 79.843 113.856C79.843 113.552 79.9556 113.292 80.1809 113.076C80.4107 112.86 80.6842 112.752 81.0014 112.752C81.3186 112.752 81.5899 112.86 81.8151 113.076C82.045 113.292 82.1599 113.552 82.1599 113.856C82.1599 114.159 82.045 114.419 81.8151 114.635C81.5899 114.851 81.3186 114.959 81.0014 114.959ZM86.4093 113.194V127.316H84.7819V113.194H86.4093ZM91.0173 113.194V127.316H89.3899V113.194H91.0173Z" fill="#475467"/>
<rect x="67.9813" y="151.653" width="37.4489" height="37.4489" rx="4.85449" stroke="#333333" stroke-width="1.387"/>
<path d="M95.0284 165.116C95.0237 164.698 94.9348 164.286 94.7671 163.904C94.5994 163.522 94.3563 163.177 94.0523 162.891C92.8387 161.74 90.8692 161.784 89.6642 162.989L87.6427 165.02C87.2471 164.66 86.7279 164.466 86.1929 164.478C85.6579 164.491 85.1482 164.709 84.7699 165.087L84.3364 165.521C84.2075 165.649 84.1052 165.802 84.0354 165.971C83.9656 166.139 83.9296 166.32 83.9296 166.502C83.9296 166.684 83.9656 166.865 84.0354 167.033C84.1052 167.201 84.2075 167.354 84.3364 167.483L84.5098 167.662L80.0887 172.083C79.6632 172.505 79.3552 173.031 79.1951 173.609C79.035 174.186 79.0284 174.796 79.1759 175.377L78.4824 176.973C78.3855 177.192 78.3574 177.435 78.4019 177.671C78.4463 177.906 78.5611 178.123 78.7312 178.291C78.9276 178.49 79.1794 178.624 79.4536 178.676C79.7277 178.728 80.0111 178.695 80.2664 178.583L81.7861 177.919C82.3566 178.048 82.9504 178.03 83.5121 177.867C84.0738 177.705 84.5849 177.402 84.9978 176.988L89.4189 172.567L89.5975 172.745C89.8576 173.005 90.2102 173.151 90.5779 173.151C90.9456 173.151 91.2983 173.005 91.5583 172.745L91.9918 172.312C92.3709 171.933 92.5892 171.422 92.6011 170.886C92.6131 170.351 92.4178 169.831 92.0559 169.435L94.1147 167.366C94.4107 167.072 94.6442 166.721 94.8012 166.334C94.9582 165.947 95.0355 165.533 95.0284 165.116ZM87.5733 172.458H81.6847L85.4989 168.644L88.4411 171.591L87.5733 172.458Z" fill="#808A9D"/>
<rect x="122.768" y="150.959" width="152.57" height="38.8359" rx="5.54799" fill="#F8FAFC"/>
<rect x="131.09" y="159.282" width="22.192" height="22.192" rx="2.77399" fill="#FD5D01"/>
<path d="M170.105 175.281L172.091 163.177H173.509L171.523 175.281H170.105ZM164.626 172.043L164.856 170.624H174.03L173.799 172.043H164.626ZM165.849 175.281L167.835 163.177H169.254L167.268 175.281H165.849ZM165.329 167.834L165.56 166.416H174.733L174.502 167.834H165.329ZM176.305 175.281V163.177H183.811V164.749H178.131V168.437H183.274V170.003H178.131V175.281H176.305ZM189.976 175.281H186.057V163.177H190.1C191.286 163.177 192.305 163.419 193.156 163.904C194.007 164.385 194.659 165.076 195.112 165.978C195.569 166.877 195.798 167.954 195.798 169.211C195.798 170.472 195.567 171.556 195.106 172.462C194.649 173.368 193.987 174.066 193.12 174.555C192.254 175.039 191.205 175.281 189.976 175.281ZM187.884 173.686H189.876C190.798 173.686 191.564 173.512 192.175 173.166C192.786 172.815 193.243 172.309 193.546 171.647C193.849 170.981 194.001 170.169 194.001 169.211C194.001 168.262 193.849 167.456 193.546 166.794C193.247 166.132 192.799 165.63 192.204 165.287C191.609 164.944 190.871 164.773 189.988 164.773H187.884V173.686ZM201.899 175.447C201.158 175.447 200.492 175.305 199.901 175.021C199.314 174.734 198.845 174.34 198.495 173.839C198.144 173.339 197.957 172.768 197.933 172.125H199.706C199.75 172.645 199.98 173.073 200.398 173.408C200.815 173.743 201.316 173.91 201.899 173.91C202.364 173.91 202.776 173.804 203.134 173.591C203.497 173.374 203.781 173.077 203.985 172.699C204.194 172.32 204.299 171.889 204.299 171.404C204.299 170.912 204.192 170.472 203.979 170.086C203.767 169.7 203.473 169.397 203.099 169.176C202.728 168.955 202.303 168.843 201.822 168.839C201.456 168.839 201.087 168.902 200.717 169.028C200.347 169.154 200.047 169.32 199.819 169.525L198.146 169.276L198.826 163.177H205.481V164.743H200.345L199.96 168.13H200.031C200.268 167.901 200.581 167.71 200.971 167.556C201.365 167.403 201.787 167.326 202.236 167.326C202.973 167.326 203.629 167.501 204.204 167.852C204.783 168.203 205.238 168.681 205.569 169.288C205.904 169.891 206.07 170.585 206.066 171.369C206.07 172.153 205.893 172.852 205.534 173.467C205.179 174.082 204.687 174.566 204.056 174.921C203.43 175.272 202.711 175.447 201.899 175.447ZM212.309 175.281H208.39V163.177H212.433C213.619 163.177 214.638 163.419 215.489 163.904C216.34 164.385 216.992 165.076 217.445 165.978C217.902 166.877 218.131 167.954 218.131 169.211C218.131 170.472 217.9 171.556 217.439 172.462C216.982 173.368 216.32 174.066 215.453 174.555C214.586 175.039 213.538 175.281 212.309 175.281ZM210.217 173.686H212.208C213.13 173.686 213.897 173.512 214.508 173.166C215.118 172.815 215.575 172.309 215.879 171.647C216.182 170.981 216.334 170.169 216.334 169.211C216.334 168.262 216.182 167.456 215.879 166.794C215.579 166.132 215.132 165.63 214.537 165.287C213.942 164.944 213.203 164.773 212.321 164.773H210.217V173.686ZM224.451 175.482C223.517 175.479 222.719 175.232 222.057 174.744C221.395 174.255 220.888 173.544 220.538 172.61C220.187 171.676 220.012 170.551 220.012 169.235C220.012 167.923 220.187 166.802 220.538 165.872C220.892 164.942 221.401 164.233 222.063 163.744C222.729 163.256 223.525 163.011 224.451 163.011C225.376 163.011 226.17 163.258 226.832 163.75C227.494 164.239 228.001 164.948 228.351 165.878C228.706 166.804 228.883 167.923 228.883 169.235C228.883 170.555 228.708 171.682 228.357 172.616C228.007 173.546 227.5 174.257 226.838 174.75C226.176 175.238 225.38 175.482 224.451 175.482ZM224.451 173.904C225.27 173.904 225.91 173.504 226.371 172.705C226.836 171.905 227.069 170.748 227.069 169.235C227.069 168.23 226.962 167.381 226.75 166.688C226.541 165.99 226.239 165.462 225.845 165.104C225.455 164.741 224.99 164.56 224.451 164.56C223.635 164.56 222.995 164.962 222.53 165.766C222.065 166.569 221.83 167.726 221.826 169.235C221.826 170.244 221.931 171.097 222.14 171.794C222.352 172.488 222.654 173.014 223.044 173.372C223.434 173.727 223.903 173.904 224.451 173.904ZM235.573 163.177V175.281H233.74V165.009H233.669L230.773 166.9V165.151L233.794 163.177H235.573Z" fill="#0F172A"/>
<rect x="292.675" y="151.653" width="99.8638" height="37.4489" rx="4.85449" stroke="#333333" stroke-width="1.387"/>
<path d="M302.153 170.377C302.153 170.377 304.927 163.905 311.399 163.905C317.872 163.905 320.646 170.377 320.646 170.377C320.646 170.377 317.872 176.85 311.399 176.85C304.927 176.85 302.153 170.377 302.153 170.377Z" stroke="#475569" stroke-width="1.23289" stroke-linecap="round" stroke-linejoin="round"/>
<path d="M311.399 173.152C312.932 173.152 314.173 171.91 314.173 170.378C314.173 168.845 312.932 167.604 311.399 167.604C309.867 167.604 308.625 168.845 308.625 170.378C308.625 171.91 309.867 173.152 311.399 173.152Z" stroke="#475569" stroke-width="1.23289" stroke-linecap="round" stroke-linejoin="round"/>
<path d="M339.348 163.177V175.281H337.516V165.009H337.445L334.549 166.9V165.151L337.569 163.177H339.348ZM346.837 175.482C345.903 175.479 345.105 175.232 344.443 174.744C343.781 174.255 343.275 173.544 342.924 172.61C342.573 171.676 342.398 170.551 342.398 169.235C342.398 167.923 342.573 166.802 342.924 165.872C343.279 164.942 343.787 164.233 344.449 163.744C345.115 163.256 345.911 163.011 346.837 163.011C347.763 163.011 348.557 163.258 349.219 163.75C349.881 164.239 350.387 164.948 350.738 165.878C351.092 166.804 351.27 167.923 351.27 169.235C351.27 170.555 351.094 171.682 350.744 172.616C350.393 173.546 349.887 174.257 349.225 174.75C348.563 175.238 347.767 175.482 346.837 175.482ZM346.837 173.904C347.656 173.904 348.297 173.504 348.758 172.705C349.223 171.905 349.455 170.748 349.455 169.235C349.455 168.23 349.349 167.381 349.136 166.688C348.927 165.99 348.626 165.462 348.232 165.104C347.842 164.741 347.377 164.56 346.837 164.56C346.021 164.56 345.381 164.962 344.916 165.766C344.451 166.569 344.216 167.726 344.212 169.235C344.212 170.244 344.317 171.097 344.526 171.794C344.739 172.488 345.04 173.014 345.43 173.372C345.82 173.727 346.289 173.904 346.837 173.904ZM357.581 175.482C356.647 175.479 355.849 175.232 355.187 174.744C354.525 174.255 354.018 173.544 353.668 172.61C353.317 171.676 353.142 170.551 353.142 169.235C353.142 167.923 353.317 166.802 353.668 165.872C354.022 164.942 354.531 164.233 355.193 163.744C355.859 163.256 356.655 163.011 357.581 163.011C358.507 163.011 359.3 163.258 359.962 163.75C360.624 164.239 361.131 164.948 361.481 165.878C361.836 166.804 362.013 167.923 362.013 169.235C362.013 170.555 361.838 171.682 361.487 172.616C361.137 173.546 360.63 174.257 359.968 174.75C359.306 175.238 358.51 175.482 357.581 175.482ZM357.581 173.904C358.4 173.904 359.04 173.504 359.501 172.705C359.966 171.905 360.199 170.748 360.199 169.235C360.199 168.23 360.093 167.381 359.88 166.688C359.671 165.99 359.369 165.462 358.975 165.104C358.585 164.741 358.12 164.56 357.581 164.56C356.765 164.56 356.125 164.962 355.66 165.766C355.195 166.569 354.96 167.726 354.956 169.235C354.956 170.244 355.061 171.097 355.27 171.794C355.482 172.488 355.784 173.014 356.174 173.372C356.564 173.727 357.033 173.904 357.581 173.904ZM370.428 173.012V172.374C370.428 171.916 370.523 171.499 370.712 171.121C370.905 170.738 371.185 170.433 371.551 170.204C371.922 169.972 372.369 169.856 372.893 169.856C373.429 169.856 373.878 169.97 374.241 170.198C374.603 170.427 374.877 170.732 375.062 171.115C375.251 171.497 375.346 171.916 375.346 172.374V173.012C375.346 173.469 375.251 173.889 375.062 174.271C374.873 174.649 374.595 174.954 374.229 175.187C373.866 175.415 373.421 175.53 372.893 175.53C372.361 175.53 371.912 175.415 371.546 175.187C371.179 174.954 370.901 174.649 370.712 174.271C370.523 173.889 370.428 173.469 370.428 173.012ZM371.806 172.374V173.012C371.806 173.351 371.886 173.658 372.048 173.934C372.21 174.21 372.491 174.348 372.893 174.348C373.291 174.348 373.569 174.21 373.727 173.934C373.884 173.658 373.963 173.351 373.963 173.012V172.374C373.963 172.035 373.886 171.727 373.732 171.451C373.583 171.176 373.303 171.038 372.893 171.038C372.499 171.038 372.219 171.176 372.054 171.451C371.888 171.727 371.806 172.035 371.806 172.374ZM364.341 166.085V165.446C364.341 164.989 364.435 164.57 364.624 164.187C364.817 163.805 365.097 163.5 365.464 163.271C365.834 163.043 366.281 162.929 366.805 162.929C367.341 162.929 367.79 163.043 368.153 163.271C368.515 163.5 368.789 163.805 368.975 164.187C369.16 164.57 369.252 164.989 369.252 165.446V166.085C369.252 166.542 369.158 166.961 368.969 167.344C368.783 167.722 368.508 168.027 368.141 168.26C367.779 168.488 367.333 168.603 366.805 168.603C366.269 168.603 365.818 168.488 365.452 168.26C365.089 168.027 364.814 167.722 364.624 167.344C364.435 166.961 364.341 166.542 364.341 166.085ZM365.724 165.446V166.085C365.724 166.424 365.803 166.731 365.96 167.007C366.122 167.283 366.403 167.421 366.805 167.421C367.199 167.421 367.475 167.283 367.633 167.007C367.794 166.731 367.875 166.424 367.875 166.085V165.446C367.875 165.108 367.798 164.8 367.645 164.524C367.491 164.249 367.211 164.111 366.805 164.111C366.411 164.111 366.132 164.249 365.966 164.524C365.805 164.8 365.724 165.108 365.724 165.446ZM364.902 175.281L373.224 163.177H374.637L366.315 175.281H364.902Z" fill="#808A9D"/>
<rect x="410.569" y="151.653" width="37.4489" height="37.4489" rx="4.85449" stroke="#333333" stroke-width="1.387"/>
<path d="M429.294 163.905V176.85" stroke="#475569" stroke-width="1.23289" stroke-linecap="round" stroke-linejoin="round"/>
<path d="M422.822 170.378H435.767" stroke="#475569" stroke-width="1.23289" stroke-linecap="round" stroke-linejoin="round"/>
<path d="M73.8705 232.221C72.9514 232.221 72.11 232.052 71.3462 231.716C70.5824 231.366 69.9352 230.894 69.4044 230.298C68.8736 229.703 68.4918 229.036 68.2587 228.298L69.9093 227.619C70.2588 228.551 70.7766 229.269 71.4627 229.774C72.1617 230.266 72.9773 230.512 73.9094 230.512C74.479 230.512 74.9774 230.421 75.4045 230.24C75.8317 230.059 76.1618 229.806 76.3949 229.483C76.6408 229.146 76.7638 228.758 76.7638 228.318C76.7638 227.709 76.589 227.23 76.2395 226.881C75.9029 226.518 75.4045 226.246 74.7443 226.065L72.0841 225.25C71.0355 224.926 70.2329 224.415 69.6763 223.715C69.1196 223.016 68.8413 222.214 68.8413 221.308C68.8413 220.518 69.029 219.825 69.4044 219.23C69.7928 218.622 70.3235 218.149 70.9967 217.812C71.6828 217.463 72.4595 217.288 73.3268 217.288C74.1942 217.288 74.9774 217.443 75.6764 217.754C76.3884 218.065 76.9903 218.486 77.4823 219.016C77.9742 219.534 78.3367 220.13 78.5697 220.803L76.9386 221.482C76.6279 220.667 76.1618 220.052 75.5405 219.638C74.9191 219.211 74.1877 218.997 73.3462 218.997C72.8284 218.997 72.3689 219.088 71.9676 219.269C71.5792 219.437 71.275 219.69 71.0549 220.026C70.8478 220.35 70.7442 220.738 70.7442 221.191C70.7442 221.722 70.9125 222.194 71.2491 222.609C71.5857 223.023 72.097 223.34 72.7831 223.56L75.2104 224.279C76.3496 224.628 77.2104 225.127 77.793 225.774C78.3755 226.421 78.6668 227.224 78.6668 228.182C78.6668 228.971 78.4596 229.67 78.0454 230.279C77.6441 230.887 77.081 231.366 76.356 231.716C75.644 232.052 74.8155 232.221 73.8705 232.221ZM85.4919 232.104C84.4692 232.104 83.6795 231.813 83.1229 231.23C82.5792 230.648 82.3073 229.826 82.3073 228.764V223.249H80.4044V221.521H80.7927C81.2588 221.521 81.6277 221.379 81.8995 221.094C82.1714 220.809 82.3073 220.434 82.3073 219.968V219.113H84.1132V221.521H86.4628V223.249H84.1132V228.706C84.1132 229.055 84.165 229.36 84.2685 229.619C84.385 229.877 84.5728 230.085 84.8317 230.24C85.0906 230.382 85.4336 230.454 85.8608 230.454C85.9514 230.454 86.0615 230.447 86.1909 230.434C86.3333 230.421 86.4628 230.408 86.5793 230.395V231.988C86.411 232.026 86.2233 232.052 86.0162 232.065C85.809 232.091 85.6343 232.104 85.4919 232.104ZM88.9383 231.988V221.521H90.7053V223.444L90.5111 223.172C90.7571 222.576 91.1325 222.136 91.6374 221.851C92.1422 221.554 92.7571 221.405 93.4821 221.405H94.1229V223.114H93.2102C92.4723 223.114 91.8768 223.347 91.4238 223.813C90.9707 224.266 90.7441 224.913 90.7441 225.754V231.988H88.9383ZM100.698 232.221C99.6882 232.221 98.7756 231.988 97.96 231.522C97.1445 231.043 96.4972 230.389 96.0182 229.56C95.5392 228.732 95.2998 227.793 95.2998 226.745C95.2998 225.696 95.5328 224.764 95.9988 223.949C96.4778 223.133 97.125 222.486 97.9406 222.007C98.7562 221.528 99.6753 221.288 100.698 221.288C101.708 221.288 102.62 221.528 103.436 222.007C104.251 222.473 104.892 223.114 105.358 223.929C105.837 224.745 106.077 225.683 106.077 226.745C106.077 227.806 105.831 228.751 105.339 229.58C104.847 230.395 104.193 231.043 103.378 231.522C102.575 231.988 101.682 232.221 100.698 232.221ZM100.698 230.473C101.345 230.473 101.928 230.311 102.446 229.987C102.976 229.664 103.391 229.217 103.688 228.648C103.999 228.078 104.154 227.444 104.154 226.745C104.154 226.033 103.999 225.405 103.688 224.861C103.391 224.305 102.976 223.864 102.446 223.541C101.928 223.204 101.345 223.036 100.698 223.036C100.038 223.036 99.4423 223.204 98.9115 223.541C98.3937 223.864 97.9794 224.305 97.6687 224.861C97.3581 225.405 97.2027 226.033 97.2027 226.745C97.2027 227.444 97.3581 228.078 97.6687 228.648C97.9794 229.217 98.3937 229.664 98.9115 229.987C99.4423 230.311 100.038 230.473 100.698 230.473ZM108.432 231.988V217.288H110.238V227.366L109.5 227.191L115.054 221.521H117.364L113.345 225.735L117.636 231.988H115.5L111.578 226.318L112.704 226.259L109.655 229.444L110.238 228.123V231.988H108.432ZM123.886 232.221C122.876 232.221 121.976 231.981 121.187 231.502C120.397 231.023 119.776 230.369 119.323 229.541C118.87 228.699 118.643 227.761 118.643 226.725C118.643 225.677 118.863 224.745 119.303 223.929C119.756 223.114 120.365 222.473 121.129 222.007C121.905 221.528 122.773 221.288 123.731 221.288C124.507 221.288 125.193 221.431 125.789 221.715C126.397 221.987 126.909 222.363 127.323 222.842C127.75 223.308 128.074 223.845 128.294 224.453C128.527 225.049 128.643 225.67 128.643 226.318C128.643 226.46 128.63 226.622 128.604 226.803C128.591 226.971 128.572 227.133 128.546 227.288H119.963V225.735H127.498L126.643 226.434C126.76 225.761 126.695 225.159 126.449 224.628C126.203 224.097 125.841 223.677 125.362 223.366C124.883 223.055 124.339 222.9 123.731 222.9C123.122 222.9 122.565 223.055 122.061 223.366C121.556 223.677 121.161 224.123 120.876 224.706C120.604 225.275 120.494 225.955 120.546 226.745C120.494 227.508 120.611 228.182 120.896 228.764C121.193 229.334 121.607 229.78 122.138 230.104C122.682 230.415 123.271 230.57 123.905 230.57C124.604 230.57 125.193 230.408 125.672 230.085C126.151 229.761 126.54 229.347 126.837 228.842L128.352 229.619C128.145 230.098 127.821 230.538 127.381 230.939C126.954 231.327 126.443 231.638 125.847 231.871C125.265 232.104 124.611 232.221 123.886 232.221Z" fill="#475467"/>
<rect x="67.9813" y="253.325" width="37.4489" height="37.4489" rx="4.85449" stroke="#333333" stroke-width="1.387"/>
<path d="M95.0284 266.788C95.0237 266.37 94.9348 265.958 94.7671 265.576C94.5994 265.194 94.3563 264.849 94.0523 264.563C92.8387 263.412 90.8692 263.455 89.6642 264.661L87.6427 266.692C87.2471 266.332 86.7279 266.138 86.1929 266.15C85.6579 266.162 85.1482 266.381 84.7699 266.759L84.3364 267.192C84.2075 267.321 84.1052 267.474 84.0354 267.643C83.9656 267.811 83.9296 267.991 83.9296 268.174C83.9296 268.356 83.9656 268.537 84.0354 268.705C84.1052 268.873 84.2075 269.026 84.3364 269.155L84.5098 269.334L80.0887 273.755C79.6632 274.177 79.3552 274.703 79.1951 275.281C79.035 275.858 79.0284 276.468 79.1759 277.049L78.4824 278.645C78.3855 278.864 78.3574 279.107 78.4019 279.343C78.4463 279.578 78.5611 279.794 78.7312 279.963C78.9276 280.161 79.1794 280.295 79.4536 280.347C79.7277 280.399 80.0111 280.367 80.2664 280.255L81.7861 279.591C82.3566 279.72 82.9504 279.702 83.5121 279.539C84.0738 279.376 84.5849 279.074 84.9978 278.659L89.4189 274.238L89.5975 274.417C89.8576 274.677 90.2102 274.823 90.5779 274.823C90.9456 274.823 91.2983 274.677 91.5583 274.417L91.9918 273.984C92.3709 273.605 92.5892 273.094 92.6011 272.558C92.6131 272.022 92.4178 271.503 92.0559 271.107L94.1147 269.038C94.4107 268.744 94.6442 268.393 94.8012 268.006C94.9582 267.619 95.0355 267.205 95.0284 266.788ZM87.5733 274.13H81.6847L85.4989 270.316L88.4411 273.263L87.5733 274.13Z" fill="#808A9D"/>
<rect x="122.768" y="252.632" width="152.57" height="38.8359" rx="5.54799" fill="#F8FAFC"/>
<rect x="131.09" y="260.954" width="22.192" height="22.192" rx="2.77399" fill="#B4B4B4"/>
<path d="M170.105 276.954L172.091 264.849H173.509L171.523 276.954H170.105ZM164.626 273.715L164.856 272.296H174.03L173.799 273.715H164.626ZM165.849 276.954L167.835 264.849H169.254L167.268 276.954H165.849ZM165.329 269.506L165.56 268.088H174.733L174.502 269.506H165.329ZM176.305 276.954V264.849H180.738C181.597 264.849 182.308 264.991 182.872 265.274C183.435 265.554 183.857 265.934 184.136 266.415C184.416 266.892 184.556 267.43 184.556 268.029C184.556 268.533 184.464 268.959 184.278 269.305C184.093 269.648 183.845 269.924 183.534 270.133C183.226 270.338 182.887 270.488 182.517 270.582V270.7C182.919 270.72 183.311 270.85 183.693 271.09C184.079 271.327 184.399 271.664 184.651 272.101C184.903 272.538 185.029 273.07 185.029 273.697C185.029 274.316 184.883 274.871 184.592 275.364C184.304 275.852 183.859 276.24 183.256 276.528C182.653 276.812 181.883 276.954 180.945 276.954H176.305ZM178.131 275.387H180.767C181.642 275.387 182.269 275.218 182.647 274.879C183.025 274.54 183.214 274.117 183.214 273.608C183.214 273.226 183.118 272.875 182.925 272.556C182.732 272.237 182.456 271.983 182.097 271.794C181.743 271.605 181.321 271.51 180.833 271.51H178.131V275.387ZM178.131 270.086H180.578C180.988 270.086 181.357 270.007 181.684 269.849C182.015 269.692 182.277 269.471 182.47 269.187C182.667 268.9 182.765 268.561 182.765 268.171C182.765 267.67 182.59 267.251 182.239 266.912C181.889 266.573 181.351 266.403 180.626 266.403H178.131V270.086ZM186.776 274.589V273.112L192.006 264.849H193.171V267.024H192.432L188.691 272.946V273.041H195.86V274.589H186.776ZM192.515 276.954V274.14L192.526 273.466V264.849H194.258V276.954H192.515ZM198.085 276.954V264.849H202.518C203.377 264.849 204.088 264.991 204.652 265.274C205.215 265.554 205.637 265.934 205.917 266.415C206.196 266.892 206.336 267.43 206.336 268.029C206.336 268.533 206.244 268.959 206.059 269.305C205.873 269.648 205.625 269.924 205.314 270.133C205.006 270.338 204.668 270.488 204.297 270.582V270.7C204.699 270.72 205.091 270.85 205.473 271.09C205.86 271.327 206.179 271.664 206.431 272.101C206.683 272.538 206.809 273.07 206.809 273.697C206.809 274.316 206.663 274.871 206.372 275.364C206.084 275.852 205.639 276.24 205.036 276.528C204.433 276.812 203.663 276.954 202.725 276.954H198.085ZM199.912 275.387H202.548C203.422 275.387 204.049 275.218 204.427 274.879C204.805 274.54 204.995 274.117 204.995 273.608C204.995 273.226 204.898 272.875 204.705 272.556C204.512 272.237 204.236 271.983 203.878 271.794C203.523 271.605 203.101 271.51 202.613 271.51H199.912V275.387ZM199.912 270.086H202.359C202.768 270.086 203.137 270.007 203.464 269.849C203.795 269.692 204.057 269.471 204.25 269.187C204.447 268.9 204.545 268.561 204.545 268.171C204.545 267.67 204.37 267.251 204.019 266.912C203.669 266.573 203.131 266.403 202.406 266.403H199.912V270.086ZM208.556 274.589V273.112L213.786 264.849H214.951V267.024H214.212L210.471 272.946V273.041H217.64V274.589H208.556ZM214.295 276.954V274.14L214.307 273.466V264.849H216.038V276.954H214.295ZM219.865 276.954V264.849H224.298C225.157 264.849 225.869 264.991 226.432 265.274C226.995 265.554 227.417 265.934 227.697 266.415C227.977 266.892 228.116 267.43 228.116 268.029C228.116 268.533 228.024 268.959 227.839 269.305C227.654 269.648 227.405 269.924 227.094 270.133C226.787 270.338 226.448 270.488 226.077 270.582V270.7C226.479 270.72 226.871 270.85 227.254 271.09C227.64 271.327 227.959 271.664 228.211 272.101C228.463 272.538 228.589 273.07 228.589 273.697C228.589 274.316 228.444 274.871 228.152 275.364C227.864 275.852 227.419 276.24 226.816 276.528C226.213 276.812 225.443 276.954 224.505 276.954H219.865ZM221.692 275.387H224.328C225.203 275.387 225.829 275.218 226.207 274.879C226.586 274.54 226.775 274.117 226.775 273.608C226.775 273.226 226.678 272.875 226.485 272.556C226.292 272.237 226.016 271.983 225.658 271.794C225.303 271.605 224.881 271.51 224.393 271.51H221.692V275.387ZM221.692 270.086H224.139C224.549 270.086 224.917 270.007 225.244 269.849C225.575 269.692 225.837 269.471 226.03 269.187C226.227 268.9 226.326 268.561 226.326 268.171C226.326 267.67 226.15 267.251 225.8 266.912C225.449 266.573 224.911 266.403 224.186 266.403H221.692V270.086ZM230.336 274.589V273.112L235.567 264.849H236.731V267.024H235.992L232.251 272.946V273.041H239.42V274.589H230.336ZM236.075 276.954V274.14L236.087 273.466V264.849H237.819V276.954H236.075Z" fill="#0F172A"/>
<rect x="292.675" y="253.325" width="99.8638" height="37.4489" rx="4.85449" stroke="#0F172A" stroke-opacity="0.2" stroke-width="1.387"/>
<path d="M302.153 272.05C302.153 272.05 304.927 265.577 311.399 265.577C317.872 265.577 320.646 272.05 320.646 272.05C320.646 272.05 317.872 278.522 311.399 278.522C304.927 278.522 302.153 272.05 302.153 272.05Z" stroke="#475569" stroke-width="1.23289" stroke-linecap="round" stroke-linejoin="round"/>
<path d="M311.399 274.824C312.932 274.824 314.173 273.582 314.173 272.05C314.173 270.518 312.932 269.276 311.399 269.276C309.867 269.276 308.625 270.518 308.625 272.05C308.625 273.582 309.867 274.824 311.399 274.824Z" stroke="#475569" stroke-width="1.23289" stroke-linecap="round" stroke-linejoin="round"/>
<path d="M339.348 264.849V276.954H337.516V266.681H337.445L334.549 268.573V266.823L337.569 264.849H339.348ZM346.837 277.155C345.903 277.151 345.105 276.904 344.443 276.416C343.781 275.927 343.275 275.216 342.924 274.282C342.573 273.348 342.398 272.223 342.398 270.907C342.398 269.595 342.573 268.474 342.924 267.544C343.279 266.614 343.787 265.905 344.449 265.416C345.115 264.928 345.911 264.683 346.837 264.683C347.763 264.683 348.557 264.93 349.219 265.422C349.881 265.911 350.387 266.62 350.738 267.55C351.092 268.476 351.27 269.595 351.27 270.907C351.27 272.227 351.094 273.354 350.744 274.288C350.393 275.218 349.887 275.929 349.225 276.422C348.563 276.91 347.767 277.155 346.837 277.155ZM346.837 275.576C347.656 275.576 348.297 275.177 348.758 274.377C349.223 273.577 349.455 272.42 349.455 270.907C349.455 269.902 349.349 269.053 349.136 268.36C348.927 267.662 348.626 267.134 348.232 266.776C347.842 266.413 347.377 266.232 346.837 266.232C346.021 266.232 345.381 266.634 344.916 267.438C344.451 268.242 344.216 269.398 344.212 270.907C344.212 271.916 344.317 272.769 344.526 273.466C344.739 274.16 345.04 274.686 345.43 275.045C345.82 275.399 346.289 275.576 346.837 275.576ZM357.581 277.155C356.647 277.151 355.849 276.904 355.187 276.416C354.525 275.927 354.018 275.216 353.668 274.282C353.317 273.348 353.142 272.223 353.142 270.907C353.142 269.595 353.317 268.474 353.668 267.544C354.022 266.614 354.531 265.905 355.193 265.416C355.859 264.928 356.655 264.683 357.581 264.683C358.507 264.683 359.3 264.93 359.962 265.422C360.624 265.911 361.131 266.62 361.481 267.55C361.836 268.476 362.013 269.595 362.013 270.907C362.013 272.227 361.838 273.354 361.487 274.288C361.137 275.218 360.63 275.929 359.968 276.422C359.306 276.91 358.51 277.155 357.581 277.155ZM357.581 275.576C358.4 275.576 359.04 275.177 359.501 274.377C359.966 273.577 360.199 272.42 360.199 270.907C360.199 269.902 360.093 269.053 359.88 268.36C359.671 267.662 359.369 267.134 358.975 266.776C358.585 266.413 358.12 266.232 357.581 266.232C356.765 266.232 356.125 266.634 355.66 267.438C355.195 268.242 354.96 269.398 354.956 270.907C354.956 271.916 355.061 272.769 355.27 273.466C355.482 274.16 355.784 274.686 356.174 275.045C356.564 275.399 357.033 275.576 357.581 275.576ZM370.428 274.684V274.046C370.428 273.589 370.523 273.171 370.712 272.793C370.905 272.41 371.185 272.105 371.551 271.876C371.922 271.644 372.369 271.528 372.893 271.528C373.429 271.528 373.878 271.642 374.241 271.871C374.603 272.099 374.877 272.405 375.062 272.787C375.251 273.169 375.346 273.589 375.346 274.046V274.684C375.346 275.141 375.251 275.561 375.062 275.943C374.873 276.321 374.595 276.627 374.229 276.859C373.866 277.088 373.421 277.202 372.893 277.202C372.361 277.202 371.912 277.088 371.546 276.859C371.179 276.627 370.901 276.321 370.712 275.943C370.523 275.561 370.428 275.141 370.428 274.684ZM371.806 274.046V274.684C371.806 275.023 371.886 275.33 372.048 275.606C372.21 275.882 372.491 276.02 372.893 276.02C373.291 276.02 373.569 275.882 373.727 275.606C373.884 275.33 373.963 275.023 373.963 274.684V274.046C373.963 273.707 373.886 273.399 373.732 273.124C373.583 272.848 373.303 272.71 372.893 272.71C372.499 272.71 372.219 272.848 372.054 273.124C371.888 273.399 371.806 273.707 371.806 274.046ZM364.341 267.757V267.119C364.341 266.661 364.435 266.242 364.624 265.86C364.817 265.477 365.097 265.172 365.464 264.943C365.834 264.715 366.281 264.601 366.805 264.601C367.341 264.601 367.79 264.715 368.153 264.943C368.515 265.172 368.789 265.477 368.975 265.86C369.16 266.242 369.252 266.661 369.252 267.119V267.757C369.252 268.214 369.158 268.634 368.969 269.016C368.783 269.394 368.508 269.699 368.141 269.932C367.779 270.16 367.333 270.275 366.805 270.275C366.269 270.275 365.818 270.16 365.452 269.932C365.089 269.699 364.814 269.394 364.624 269.016C364.435 268.634 364.341 268.214 364.341 267.757ZM365.724 267.119V267.757C365.724 268.096 365.803 268.403 365.96 268.679C366.122 268.955 366.403 269.093 366.805 269.093C367.199 269.093 367.475 268.955 367.633 268.679C367.794 268.403 367.875 268.096 367.875 267.757V267.119C367.875 266.78 367.798 266.472 367.645 266.197C367.491 265.921 367.211 265.783 366.805 265.783C366.411 265.783 366.132 265.921 365.966 266.197C365.805 266.472 365.724 266.78 365.724 267.119ZM364.902 276.954L373.224 264.849H374.637L366.315 276.954H364.902Z" fill="#808A9D"/>
<rect x="410.569" y="253.325" width="37.4489" height="37.4489" rx="4.85449" stroke="#333333" stroke-width="1.387"/>
<path d="M429.294 265.577V278.522" stroke="#475569" stroke-width="1.23289" stroke-linecap="round" stroke-linejoin="round"/>
<path d="M422.822 272.05H435.767" stroke="#475569" stroke-width="1.23289" stroke-linecap="round" stroke-linejoin="round"/>
<path d="M68.9979 334.659V320.537H73.7697C74.873 320.537 75.7786 320.726 76.4865 321.103C77.1945 321.475 77.7186 321.988 78.0587 322.64C78.3989 323.293 78.569 324.036 78.569 324.868C78.569 325.7 78.3989 326.438 78.0587 327.081C77.7186 327.725 77.1968 328.23 76.4934 328.598C75.7901 328.961 74.8914 329.143 73.7973 329.143H69.9357V327.598H73.7421C74.496 327.598 75.1028 327.488 75.5625 327.267C76.0268 327.047 76.3624 326.734 76.5693 326.33C76.7808 325.92 76.8865 325.433 76.8865 324.868C76.8865 324.302 76.7808 323.808 76.5693 323.385C76.3578 322.962 76.0199 322.636 75.5556 322.406C75.0913 322.172 74.4776 322.054 73.7145 322.054H70.7081V334.659H68.9979ZM75.6453 328.315L79.1207 334.659H77.1347L73.7145 328.315H75.6453ZM85.5249 334.88C84.5044 334.88 83.624 334.655 82.8839 334.204C82.1484 333.749 81.5807 333.115 81.1807 332.301C80.7854 331.483 80.5877 330.531 80.5877 329.446C80.5877 328.361 80.7854 327.405 81.1807 326.578C81.5807 325.746 82.1369 325.098 82.8494 324.633C83.5666 324.164 84.4032 323.93 85.3594 323.93C85.9111 323.93 86.4558 324.022 86.9937 324.206C87.5315 324.39 88.0211 324.688 88.4624 325.102C88.9038 325.511 89.2554 326.054 89.5175 326.73C89.7795 327.405 89.9105 328.237 89.9105 329.226V329.915H81.7462V328.509H88.2556C88.2556 327.911 88.1361 327.378 87.897 326.909C87.6626 326.44 87.327 326.07 86.8903 325.799C86.4581 325.527 85.9479 325.392 85.3594 325.392C84.7113 325.392 84.1504 325.553 83.6769 325.874C83.208 326.192 82.8471 326.605 82.5943 327.116C82.3415 327.626 82.2151 328.173 82.2151 328.757V329.695C82.2151 330.494 82.353 331.173 82.6288 331.729C82.9092 332.28 83.2977 332.701 83.7941 332.991C84.2906 333.276 84.8676 333.418 85.5249 333.418C85.9525 333.418 86.3386 333.358 86.6834 333.239C87.0328 333.115 87.3339 332.931 87.5867 332.687C87.8395 332.439 88.0349 332.131 88.1728 331.763L89.745 332.205C89.5795 332.738 89.3014 333.207 88.9107 333.611C88.5199 334.011 88.0372 334.324 87.4626 334.549C86.888 334.77 86.2421 334.88 85.5249 334.88ZM96.6889 334.88C95.6959 334.88 94.8409 334.646 94.1237 334.177C93.4066 333.708 92.8549 333.062 92.4688 332.239C92.0826 331.416 91.8896 330.476 91.8896 329.419C91.8896 328.343 92.0872 327.394 92.4826 326.571C92.8825 325.743 93.4388 325.098 94.1513 324.633C94.8684 324.164 95.7051 323.93 96.6613 323.93C97.406 323.93 98.0772 324.068 98.6748 324.344C99.2724 324.619 99.762 325.006 100.144 325.502C100.525 325.999 100.762 326.578 100.854 327.24H99.2264C99.1023 326.757 98.8265 326.33 98.399 325.957C97.9761 325.58 97.406 325.392 96.6889 325.392C96.0545 325.392 95.4982 325.557 95.0201 325.888C94.5466 326.215 94.1766 326.677 93.91 327.274C93.6479 327.867 93.5169 328.564 93.5169 329.364C93.5169 330.182 93.6456 330.894 93.9031 331.501C94.1651 332.108 94.5329 332.579 95.0064 332.915C95.4844 333.25 96.0453 333.418 96.6889 333.418C97.1118 333.418 97.4957 333.345 97.8404 333.198C98.1852 333.05 98.4771 332.839 98.7162 332.563C98.9552 332.287 99.1253 331.956 99.2264 331.57H100.854C100.762 332.195 100.534 332.759 100.171 333.26C99.8126 333.756 99.3368 334.151 98.7438 334.446C98.1553 334.735 97.4704 334.88 96.6889 334.88ZM107.674 334.88C106.653 334.88 105.773 334.655 105.033 334.204C104.297 333.749 103.729 333.115 103.329 332.301C102.934 331.483 102.736 330.531 102.736 329.446C102.736 328.361 102.934 327.405 103.329 326.578C103.729 325.746 104.286 325.098 104.998 324.633C105.715 324.164 106.552 323.93 107.508 323.93C108.06 323.93 108.604 324.022 109.142 324.206C109.68 324.39 110.17 324.688 110.611 325.102C111.052 325.511 111.404 326.054 111.666 326.73C111.928 327.405 112.059 328.237 112.059 329.226V329.915H103.895V328.509H110.404C110.404 327.911 110.285 327.378 110.046 326.909C109.811 326.44 109.476 326.07 109.039 325.799C108.607 325.527 108.096 325.392 107.508 325.392C106.86 325.392 106.299 325.553 105.826 325.874C105.357 326.192 104.996 326.605 104.743 327.116C104.49 327.626 104.364 328.173 104.364 328.757V329.695C104.364 330.494 104.502 331.173 104.777 331.729C105.058 332.28 105.446 332.701 105.943 332.991C106.439 333.276 107.016 333.418 107.674 333.418C108.101 333.418 108.487 333.358 108.832 333.239C109.181 333.115 109.482 332.931 109.735 332.687C109.988 332.439 110.184 332.131 110.321 331.763L111.894 332.205C111.728 332.738 111.45 333.207 111.059 333.611C110.669 334.011 110.186 334.324 109.611 334.549C109.037 334.77 108.391 334.88 107.674 334.88ZM116.162 328.288V334.659H114.535V324.068H116.107V325.723H116.245C116.493 325.185 116.87 324.753 117.376 324.426C117.881 324.095 118.534 323.93 119.334 323.93C120.051 323.93 120.679 324.077 121.216 324.371C121.754 324.661 122.173 325.102 122.471 325.695C122.77 326.284 122.92 327.028 122.92 327.929V334.659H121.292V328.04C121.292 327.208 121.076 326.559 120.644 326.095C120.212 325.626 119.619 325.392 118.865 325.392C118.346 325.392 117.881 325.504 117.472 325.73C117.068 325.955 116.748 326.284 116.514 326.716C116.279 327.148 116.162 327.672 116.162 328.288ZM130.5 324.068V325.447H125.011V324.068H130.5ZM126.611 321.53H128.238V331.625C128.238 332.085 128.305 332.43 128.438 332.66C128.576 332.885 128.75 333.037 128.962 333.115C129.178 333.188 129.406 333.225 129.645 333.225C129.824 333.225 129.971 333.216 130.086 333.198C130.201 333.175 130.293 333.156 130.362 333.142L130.693 334.604C130.582 334.646 130.428 334.687 130.231 334.728C130.033 334.774 129.782 334.797 129.479 334.797C129.019 334.797 128.569 334.698 128.128 334.501C127.691 334.303 127.328 334.002 127.038 333.598C126.753 333.193 126.611 332.683 126.611 332.067V321.53ZM149.993 324.95H148.283C148.182 324.459 148.005 324.026 147.752 323.654C147.504 323.282 147.201 322.969 146.842 322.716C146.488 322.459 146.095 322.266 145.663 322.137C145.231 322.008 144.78 321.944 144.311 321.944C143.456 321.944 142.682 322.16 141.988 322.592C141.298 323.024 140.749 323.661 140.34 324.502C139.935 325.343 139.733 326.376 139.733 327.598C139.733 328.821 139.935 329.853 140.34 330.694C140.749 331.536 141.298 332.172 141.988 332.605C142.682 333.037 143.456 333.253 144.311 333.253C144.78 333.253 145.231 333.188 145.663 333.06C146.095 332.931 146.488 332.74 146.842 332.487C147.201 332.23 147.504 331.915 147.752 331.543C148.005 331.166 148.182 330.734 148.283 330.246H149.993C149.865 330.968 149.63 331.614 149.29 332.184C148.95 332.754 148.527 333.239 148.021 333.639C147.516 334.034 146.948 334.335 146.318 334.542C145.693 334.749 145.024 334.853 144.311 334.853C143.107 334.853 142.036 334.558 141.098 333.97C140.16 333.381 139.423 332.545 138.885 331.46C138.347 330.375 138.078 329.088 138.078 327.598C138.078 326.109 138.347 324.822 138.885 323.737C139.423 322.652 140.16 321.815 141.098 321.227C142.036 320.638 143.107 320.344 144.311 320.344C145.024 320.344 145.693 320.448 146.318 320.654C146.948 320.861 147.516 321.165 148.021 321.565C148.527 321.96 148.95 322.443 149.29 323.013C149.63 323.578 149.865 324.224 149.993 324.95ZM156.839 334.88C155.883 334.88 155.044 334.653 154.322 334.197C153.605 333.742 153.044 333.106 152.64 332.287C152.24 331.469 152.04 330.513 152.04 329.419C152.04 328.315 152.24 327.352 152.64 326.53C153.044 325.707 153.605 325.068 154.322 324.613C155.044 324.157 155.883 323.93 156.839 323.93C157.795 323.93 158.632 324.157 159.349 324.613C160.071 325.068 160.632 325.707 161.032 326.53C161.436 327.352 161.638 328.315 161.638 329.419C161.638 330.513 161.436 331.469 161.032 332.287C160.632 333.106 160.071 333.742 159.349 334.197C158.632 334.653 157.795 334.88 156.839 334.88ZM156.839 333.418C157.565 333.418 158.163 333.232 158.632 332.86C159.101 332.487 159.448 331.998 159.673 331.391C159.898 330.784 160.011 330.127 160.011 329.419C160.011 328.711 159.898 328.051 159.673 327.44C159.448 326.828 159.101 326.334 158.632 325.957C158.163 325.58 157.565 325.392 156.839 325.392C156.113 325.392 155.515 325.58 155.046 325.957C154.577 326.334 154.23 326.828 154.005 327.44C153.78 328.051 153.667 328.711 153.667 329.419C153.667 330.127 153.78 330.784 154.005 331.391C154.23 331.998 154.577 332.487 155.046 332.86C155.515 333.232 156.113 333.418 156.839 333.418ZM165.75 320.537V334.659H164.122V320.537H165.75ZM173.033 334.88C172.077 334.88 171.238 334.653 170.516 334.197C169.799 333.742 169.238 333.106 168.834 332.287C168.434 331.469 168.234 330.513 168.234 329.419C168.234 328.315 168.434 327.352 168.834 326.53C169.238 325.707 169.799 325.068 170.516 324.613C171.238 324.157 172.077 323.93 173.033 323.93C173.989 323.93 174.826 324.157 175.543 324.613C176.265 325.068 176.826 325.707 177.226 326.53C177.63 327.352 177.833 328.315 177.833 329.419C177.833 330.513 177.63 331.469 177.226 332.287C176.826 333.106 176.265 333.742 175.543 334.197C174.826 334.653 173.989 334.88 173.033 334.88ZM173.033 333.418C173.76 333.418 174.357 333.232 174.826 332.86C175.295 332.487 175.642 331.998 175.867 331.391C176.093 330.784 176.205 330.127 176.205 329.419C176.205 328.711 176.093 328.051 175.867 327.44C175.642 326.828 175.295 326.334 174.826 325.957C174.357 325.58 173.76 325.392 173.033 325.392C172.307 325.392 171.709 325.58 171.24 325.957C170.772 326.334 170.424 326.828 170.199 327.44C169.974 328.051 169.861 328.711 169.861 329.419C169.861 330.127 169.974 330.784 170.199 331.391C170.424 331.998 170.772 332.487 171.24 332.86C171.709 333.232 172.307 333.418 173.033 333.418ZM180.317 334.659V324.068H181.889V325.668H181.999C182.192 325.144 182.542 324.718 183.047 324.392C183.553 324.066 184.123 323.902 184.758 323.902C184.877 323.902 185.026 323.905 185.206 323.909C185.385 323.914 185.521 323.921 185.613 323.93V325.585C185.557 325.571 185.431 325.55 185.233 325.523C185.04 325.491 184.836 325.475 184.62 325.475C184.105 325.475 183.645 325.583 183.24 325.799C182.841 326.01 182.523 326.304 182.289 326.681C182.059 327.054 181.944 327.479 181.944 327.957V334.659H180.317ZM195.044 326.44L193.582 326.854C193.49 326.61 193.355 326.373 193.175 326.143C193.001 325.909 192.762 325.716 192.458 325.564C192.155 325.412 191.766 325.337 191.293 325.337C190.645 325.337 190.104 325.486 189.672 325.785C189.245 326.079 189.031 326.454 189.031 326.909C189.031 327.313 189.178 327.633 189.472 327.867C189.767 328.102 190.226 328.297 190.851 328.453L192.424 328.84C193.371 329.069 194.076 329.421 194.541 329.895C195.005 330.363 195.237 330.968 195.237 331.708C195.237 332.315 195.062 332.857 194.713 333.335C194.368 333.814 193.886 334.191 193.265 334.466C192.644 334.742 191.923 334.88 191.1 334.88C190.019 334.88 189.125 334.646 188.417 334.177C187.709 333.708 187.261 333.023 187.073 332.122L188.617 331.736C188.764 332.306 189.043 332.733 189.452 333.018C189.865 333.303 190.406 333.446 191.072 333.446C191.831 333.446 192.433 333.285 192.879 332.963C193.329 332.637 193.555 332.246 193.555 331.791C193.555 331.423 193.426 331.115 193.168 330.867C192.911 330.614 192.516 330.426 191.982 330.301L190.217 329.888C189.247 329.658 188.535 329.302 188.079 328.819C187.629 328.332 187.404 327.722 187.404 326.992C187.404 326.394 187.571 325.865 187.907 325.406C188.247 324.946 188.709 324.585 189.293 324.323C189.882 324.061 190.548 323.93 191.293 323.93C192.341 323.93 193.164 324.16 193.761 324.619C194.364 325.079 194.791 325.686 195.044 326.44Z" fill="#475467"/>
<rect x="67.2878" y="358.303" width="38.8359" height="38.8359" rx="5.54799" fill="#787878"/>
<rect x="117.22" y="358.303" width="38.8359" height="38.8359" rx="5.54799" fill="#570DE6"/>
<rect x="167.152" y="358.303" width="38.8359" height="38.8359" rx="5.54799" fill="#93B6F8"/>
<rect x="217.083" y="358.303" width="38.8359" height="38.8359" rx="5.54799" fill="#1DBF73"/>
<rect x="267.015" y="358.303" width="38.8359" height="38.8359" rx="5.54799" fill="#FD5D01"/>
<rect x="316.947" y="358.303" width="38.8359" height="38.8359" rx="5.54799" fill="#1B75FB"/>
<rect x="367.573" y="358.997" width="37.4489" height="37.4489" rx="4.85449" stroke="#F1F5F9" stroke-width="1.387"/>
<path d="M386.297 371.249V384.194" stroke="#475569" stroke-width="1.23289" stroke-linecap="round" stroke-linejoin="round"/>
<path d="M379.824 377.721H392.77" stroke="#475569" stroke-width="1.23289" stroke-linecap="round" stroke-linejoin="round"/>
</g>
<defs>
<filter id="filter0_d_457_15072" x="0.400001" y="0.8" width="492.8" height="463.227" filterUnits="userSpaceOnUse" color-interpolation-filters="sRGB">
<feFlood flood-opacity="0" result="BackgroundImageFix"/>
<feColorMatrix in="SourceAlpha" type="matrix" values="0 0 0 0 0 0 0 0 0 0 0 0 0 0 0 0 0 0 127 0" result="hardAlpha"/>
<feOffset dx="-11.2" dy="11.2"/>
<feGaussianBlur stdDeviation="11.2"/>
<feComposite in2="hardAlpha" operator="out"/>
<feColorMatrix type="matrix" values="0 0 0 0 0 0 0 0 0 0 0 0 0 0 0 0 0 0 0.08 0"/>
<feBlend mode="normal" in2="BackgroundImageFix" result="effect1_dropShadow_457_15072"/>
<feBlend mode="normal" in="SourceGraphic" in2="effect1_dropShadow_457_15072" result="shape"/>
</filter>
</defs>
</svg>
