<svg width="290" height="124" viewBox="0 0 290 124" fill="none" xmlns="http://www.w3.org/2000/svg">
<g filter="url(#filter0_d_459_15550)">
<g clip-path="url(#clip0_459_15550)">
<rect width="268.8" height="103.6" transform="translate(10.6 5)" fill="white"/>
<rect width="254.8" height="44.8" transform="translate(17.6 12)" fill="white"/>
<path d="M47.4667 26H32.5333C31.5024 26 30.6667 26.8357 30.6667 27.8667V37.2C30.6667 38.2309 31.5024 39.0667 32.5333 39.0667H47.4667C48.4976 39.0667 49.3333 38.2309 49.3333 37.2V27.8667C49.3333 26.8357 48.4976 26 47.4667 26Z" stroke="#334155" stroke-width="1.86667" stroke-linecap="round" stroke-linejoin="round"/>
<path d="M36.2666 42.8H43.7333" stroke="#334155" stroke-width="1.86667" stroke-linecap="round" stroke-linejoin="round"/>
<path d="M40 39.0667V42.8" stroke="black" stroke-width="1.86667" stroke-linecap="round" stroke-linejoin="round"/>
<path d="M68.5807 41.3999H63.9661V27.1454H68.7269C70.1236 27.1454 71.323 27.4307 72.3253 28.0015C73.3276 28.5676 74.0955 29.3819 74.6291 30.4445C75.1674 31.5025 75.4365 32.7715 75.4365 34.2517C75.4365 35.7366 75.1651 37.0126 74.6222 38.0799C74.0839 39.1471 73.3044 39.9684 72.2835 40.5438C71.2627 41.1145 70.0284 41.3999 68.5807 41.3999ZM66.1168 39.5206H68.4624C69.5482 39.5206 70.4507 39.3165 71.1699 38.9081C71.8891 38.4952 72.4274 37.8989 72.7847 37.1194C73.142 36.3352 73.3206 35.3793 73.3206 34.2517C73.3206 33.1335 73.142 32.1846 72.7847 31.405C72.432 30.6255 71.9054 30.0339 71.2047 29.6302C70.504 29.2265 69.634 29.0246 68.5946 29.0246H66.1168V39.5206ZM82.5516 41.6157C81.4983 41.6157 80.5912 41.3906 79.8302 40.9405C79.0738 40.4858 78.4892 39.8478 78.0762 39.0265C77.6679 38.2005 77.4637 37.233 77.4637 36.124C77.4637 35.029 77.6679 34.0638 78.0762 33.2286C78.4892 32.3934 79.0645 31.7414 79.8023 31.2728C80.5448 30.8041 81.4125 30.5698 82.4055 30.5698C83.0087 30.5698 83.5933 30.6696 84.1594 30.8691C84.7255 31.0686 85.2336 31.3818 85.6837 31.8087C86.1338 32.2356 86.4888 32.7901 86.7486 33.4722C87.0085 34.1497 87.1384 34.9733 87.1384 35.9431V36.6809H78.64V35.1218H85.0991C85.0991 34.5742 84.9877 34.0893 84.765 33.6671C84.5422 33.2402 84.229 32.9038 83.8253 32.6579C83.4263 32.4119 82.9576 32.289 82.4194 32.289C81.8347 32.289 81.3243 32.4328 80.8881 32.7205C80.4566 33.0035 80.1225 33.3748 79.8859 33.8341C79.6538 34.2889 79.5378 34.783 79.5378 35.3167V36.5347C79.5378 37.2493 79.6631 37.8571 79.9137 38.3583C80.1689 38.8594 80.5239 39.2422 80.9786 39.5067C81.4333 39.7666 81.9646 39.8965 82.5725 39.8965C82.9669 39.8965 83.3265 39.8408 83.6513 39.7294C83.9761 39.6134 84.2569 39.4418 84.4935 39.2144C84.7302 38.987 84.9111 38.7063 85.0364 38.3722L87.0062 38.7272C86.8484 39.3072 86.5654 39.8153 86.157 40.2515C85.7533 40.683 85.2452 41.0194 84.6327 41.2607C84.0249 41.4973 83.3312 41.6157 82.5516 41.6157ZM97.4587 33.3191L95.5725 33.6532C95.4936 33.4119 95.3683 33.1822 95.1966 32.9641C95.0296 32.746 94.8022 32.5674 94.5145 32.4282C94.2268 32.289 93.8672 32.2194 93.4357 32.2194C92.8464 32.2194 92.3545 32.3516 91.9601 32.6161C91.5657 32.8759 91.3685 33.2124 91.3685 33.6253C91.3685 33.9826 91.5007 34.2703 91.7652 34.4884C92.0297 34.7065 92.4566 34.8851 93.0459 35.0243L94.7442 35.4141C95.7279 35.6415 96.4611 35.9918 96.9436 36.4651C97.4262 36.9384 97.6675 37.5532 97.6675 38.3096C97.6675 38.9499 97.4819 39.5206 97.1107 40.0218C96.7441 40.5183 96.2314 40.908 95.5725 41.1911C94.9182 41.4741 94.1595 41.6157 93.2965 41.6157C92.0993 41.6157 91.1226 41.3605 90.3662 40.85C89.6099 40.335 89.1459 39.6042 88.9742 38.6576L90.9857 38.3513C91.111 38.8757 91.3685 39.2724 91.7583 39.5415C92.148 39.806 92.6561 39.9383 93.2826 39.9383C93.9647 39.9383 94.5099 39.7967 94.9182 39.5137C95.3265 39.226 95.5307 38.8757 95.5307 38.4627C95.5307 38.1286 95.4054 37.8479 95.1549 37.6205C94.9089 37.3931 94.5308 37.2214 94.0203 37.1054L92.2107 36.7087C91.213 36.4813 90.4753 36.1194 89.9973 35.6229C89.524 35.1264 89.2874 34.4977 89.2874 33.7367C89.2874 33.1056 89.4637 32.5535 89.8164 32.0802C90.169 31.6069 90.6562 31.238 91.278 30.9735C91.8998 30.7044 92.6121 30.5698 93.4148 30.5698C94.5702 30.5698 95.4797 30.8204 96.1432 31.3215C96.8067 31.818 97.2452 32.4839 97.4587 33.3191ZM101.87 37.7736L101.856 35.2331H102.218L106.477 30.709H108.969L104.111 35.8596H103.784L101.87 37.7736ZM99.9557 41.3999V27.1454H102.037V41.3999H99.9557ZM106.707 41.3999L102.879 36.3189L104.313 34.8642L109.261 41.3999H106.707ZM115.856 30.709V32.3794H110.017V30.709H115.856ZM111.583 28.1476H113.664V38.2608C113.664 38.6645 113.724 38.9685 113.845 39.1726C113.965 39.3722 114.121 39.509 114.311 39.5833C114.506 39.6529 114.717 39.6877 114.945 39.6877C115.112 39.6877 115.258 39.6761 115.383 39.6529C115.508 39.6297 115.606 39.6111 115.675 39.5972L116.051 41.3164C115.931 41.3628 115.759 41.4092 115.536 41.4556C115.313 41.5066 115.035 41.5345 114.701 41.5391C114.153 41.5484 113.643 41.4509 113.17 41.2468C112.696 41.0426 112.314 40.7271 112.021 40.3002C111.729 39.8733 111.583 39.3374 111.583 38.6924V28.1476ZM122.547 41.6157C121.545 41.6157 120.67 41.386 119.923 40.9266C119.176 40.4672 118.596 39.8246 118.183 38.9986C117.77 38.1727 117.563 37.2075 117.563 36.1032C117.563 34.9942 117.77 34.0244 118.183 33.1938C118.596 32.3632 119.176 31.7182 119.923 31.2589C120.67 30.7995 121.545 30.5698 122.547 30.5698C123.549 30.5698 124.424 30.7995 125.171 31.2589C125.918 31.7182 126.498 32.3632 126.911 33.1938C127.324 34.0244 127.53 34.9942 127.53 36.1032C127.53 37.2075 127.324 38.1727 126.911 38.9986C126.498 39.8246 125.918 40.4672 125.171 40.9266C124.424 41.386 123.549 41.6157 122.547 41.6157ZM122.554 39.8687C123.203 39.8687 123.742 39.697 124.169 39.3536C124.595 39.0102 124.911 38.5532 125.115 37.9824C125.324 37.4117 125.428 36.783 125.428 36.0962C125.428 35.4141 125.324 34.7877 125.115 34.2169C124.911 33.6416 124.595 33.1799 124.169 32.8319C123.742 32.4839 123.203 32.3098 122.554 32.3098C121.9 32.3098 121.357 32.4839 120.925 32.8319C120.498 33.1799 120.18 33.6416 119.972 34.2169C119.767 34.7877 119.665 35.4141 119.665 36.0962C119.665 36.783 119.767 37.4117 119.972 37.9824C120.18 38.5532 120.498 39.0102 120.925 39.3536C121.357 39.697 121.9 39.8687 122.554 39.8687ZM129.853 45.409V30.709H131.886V32.4421H132.06C132.18 32.2194 132.354 31.9618 132.582 31.6695C132.809 31.3772 133.125 31.122 133.528 30.9039C133.932 30.6812 134.466 30.5698 135.129 30.5698C135.992 30.5698 136.763 30.7879 137.44 31.2241C138.117 31.6602 138.649 32.289 139.034 33.1103C139.424 33.9316 139.619 34.9199 139.619 36.0753C139.619 37.2307 139.426 38.2214 139.041 39.0473C138.656 39.8687 138.127 40.502 137.454 40.9475C136.781 41.3883 136.013 41.6087 135.15 41.6087C134.5 41.6087 133.969 41.4997 133.556 41.2816C133.148 41.0635 132.828 40.8083 132.596 40.516C132.364 40.2236 132.185 39.9638 132.06 39.7364H131.934V45.409H129.853ZM131.893 36.0544C131.893 36.8062 132.002 37.4651 132.22 38.0312C132.438 38.5973 132.753 39.0404 133.166 39.3606C133.579 39.6761 134.085 39.8339 134.684 39.8339C135.306 39.8339 135.825 39.6691 136.243 39.3397C136.66 39.0056 136.976 38.5532 137.189 37.9824C137.407 37.4117 137.517 36.769 137.517 36.0544C137.517 35.3491 137.41 34.7158 137.196 34.1543C136.988 33.5928 136.672 33.1497 136.25 32.8249C135.832 32.5001 135.31 32.3377 134.684 32.3377C134.081 32.3377 133.57 32.4931 133.152 32.804C132.74 33.1149 132.426 33.5488 132.213 34.1056C131.999 34.6624 131.893 35.312 131.893 36.0544Z" fill="#334155"/>
<rect width="254.8" height="44.8" transform="translate(17.6 56.8)" fill="white"/>
<path d="M44.6666 69.8665H35.3333C34.3024 69.8665 33.4666 70.7022 33.4666 71.7331V86.6665C33.4666 87.6974 34.3024 88.5331 35.3333 88.5331H44.6666C45.6976 88.5331 46.5333 87.6974 46.5333 86.6665V71.7331C46.5333 70.7022 45.6976 69.8665 44.6666 69.8665Z" stroke="#334155" stroke-width="1.86667" stroke-linecap="round" stroke-linejoin="round"/>
<path d="M40 84.8H40.0093" stroke="#334155" stroke-width="1.86667" stroke-linecap="round" stroke-linejoin="round"/>
<path d="M63.9661 71.9454H66.5762L71.1142 83.0261H71.2813L75.8193 71.9454H78.4294V86.2H76.3831V75.8849H76.2509L72.0469 86.1791H70.3486L66.1446 75.8779H66.0124V86.2H63.9661V71.9454ZM85.8925 86.4157C84.8903 86.4157 84.0156 86.186 83.2685 85.7267C82.5215 85.2673 81.9414 84.6246 81.5285 83.7987C81.1155 82.9727 80.909 82.0076 80.909 80.9032C80.909 79.7942 81.1155 78.8244 81.5285 77.9938C81.9414 77.1633 82.5215 76.5183 83.2685 76.0589C84.0156 75.5995 84.8903 75.3698 85.8925 75.3698C86.8948 75.3698 87.7695 75.5995 88.5165 76.0589C89.2636 76.5183 89.8436 77.1633 90.2566 77.9938C90.6696 78.8244 90.8761 79.7942 90.8761 80.9032C90.8761 82.0076 90.6696 82.9727 90.2566 83.7987C89.8436 84.6246 89.2636 85.2673 88.5165 85.7267C87.7695 86.186 86.8948 86.4157 85.8925 86.4157ZM85.8995 84.6687C86.5491 84.6687 87.0874 84.497 87.5143 84.1536C87.9412 83.8103 88.2567 83.3532 88.4609 82.7825C88.6697 82.2117 88.7741 81.583 88.7741 80.8963C88.7741 80.2142 88.6697 79.5877 88.4609 79.017C88.2567 78.4416 87.9412 77.9799 87.5143 77.6319C87.0874 77.2839 86.5491 77.1099 85.8995 77.1099C85.2452 77.1099 84.7023 77.2839 84.2708 77.6319C83.8439 77.9799 83.5261 78.4416 83.3172 79.017C83.1131 79.5877 83.011 80.2142 83.011 80.8963C83.011 81.583 83.1131 82.2117 83.3172 82.7825C83.5261 83.3532 83.8439 83.8103 84.2708 84.1536C84.7023 84.497 85.2452 84.6687 85.8995 84.6687ZM93.3661 86.2V71.9454H95.4472V77.2421H95.5725C95.6931 77.0194 95.8671 76.7619 96.0945 76.4696C96.3219 76.1772 96.6374 75.922 97.0411 75.7039C97.4448 75.4812 97.9784 75.3698 98.6419 75.3698C99.505 75.3698 100.275 75.5879 100.953 76.0241C101.63 76.4603 102.161 77.089 102.547 77.9103C102.936 78.7316 103.131 79.72 103.131 80.8754C103.131 82.0308 102.939 83.0214 102.554 83.8474C102.168 84.6687 101.639 85.3021 100.967 85.7475C100.294 86.1884 99.5259 86.4088 98.6628 86.4088C98.0132 86.4088 97.4819 86.2997 97.0689 86.0816C96.6606 85.8635 96.3404 85.6083 96.1084 85.316C95.8764 85.0237 95.6978 84.7638 95.5725 84.5365H95.3985V86.2H93.3661ZM95.4054 80.8545C95.4054 81.6062 95.5145 82.2651 95.7326 82.8312C95.9506 83.3973 96.2662 83.8404 96.6791 84.1606C97.0921 84.4761 97.5979 84.6339 98.1965 84.6339C98.8183 84.6339 99.338 84.4692 99.7556 84.1397C100.173 83.8056 100.489 83.3532 100.702 82.7825C100.92 82.2117 101.029 81.5691 101.029 80.8545C101.029 80.1492 100.923 79.5158 100.709 78.9544C100.5 78.3929 100.185 77.9498 99.7625 77.625C99.3449 77.3001 98.8229 77.1377 98.1965 77.1377C97.5933 77.1377 97.0828 77.2932 96.6652 77.6041C96.2523 77.915 95.939 78.3488 95.7256 78.9056C95.5121 79.4625 95.4054 80.1121 95.4054 80.8545ZM105.468 86.2V75.509H107.549V86.2H105.468ZM106.519 73.8595C106.157 73.8595 105.846 73.7388 105.586 73.4975C105.331 73.2516 105.204 72.9593 105.204 72.6205C105.204 72.2772 105.331 71.9848 105.586 71.7436C105.846 71.4976 106.157 71.3747 106.519 71.3747C106.881 71.3747 107.19 71.4976 107.445 71.7436C107.705 71.9848 107.835 72.2772 107.835 72.6205C107.835 72.9593 107.705 73.2516 107.445 73.4975C107.19 73.7388 106.881 73.8595 106.519 73.8595ZM112.43 71.9454V86.2H110.349V71.9454H112.43ZM119.838 86.4157C118.784 86.4157 117.877 86.1907 117.116 85.7406C116.36 85.2858 115.775 84.6478 115.362 83.8265C114.954 83.0006 114.75 82.0331 114.75 80.9241C114.75 79.829 114.954 78.8639 115.362 78.0286C115.775 77.1934 116.35 76.5415 117.088 76.0728C117.831 75.6042 118.698 75.3698 119.691 75.3698C120.295 75.3698 120.879 75.4696 121.445 75.6691C122.011 75.8687 122.52 76.1819 122.97 76.6088C123.42 77.0357 123.775 77.5901 124.035 78.2723C124.294 78.9497 124.424 79.7733 124.424 80.7431V81.4809H115.926V79.9218H122.385C122.385 79.3743 122.274 78.8894 122.051 78.4671C121.828 78.0402 121.515 77.7038 121.111 77.4579C120.712 77.212 120.244 77.089 119.705 77.089C119.121 77.089 118.61 77.2329 118.174 77.5205C117.743 77.8036 117.408 78.1748 117.172 78.6342C116.94 79.0889 116.824 79.5831 116.824 80.1167V81.3348C116.824 82.0493 116.949 82.6572 117.2 83.1583C117.455 83.6595 117.81 84.0423 118.265 84.3068C118.719 84.5666 119.251 84.6965 119.858 84.6965C120.253 84.6965 120.612 84.6409 120.937 84.5295C121.262 84.4135 121.543 84.2418 121.779 84.0144C122.016 83.7871 122.197 83.5063 122.322 83.1723L124.292 83.5272C124.134 84.1072 123.851 84.6153 123.443 85.0515C123.039 85.483 122.531 85.8195 121.919 86.0607C121.311 86.2974 120.617 86.4157 119.838 86.4157Z" fill="#334155"/>
<rect width="268.8" height="0" transform="translate(10.6 108.6)" fill="white"/>
<line x1="10.6" y1="107.9" x2="279.4" y2="107.9" stroke="#F1F5F9" stroke-width="1.4"/>
<rect width="268.8" height="0" transform="translate(10.6 108.6)" fill="white"/>
<line x1="10.6" y1="107.9" x2="279.4" y2="107.9" stroke="#F1F5F9" stroke-width="1.4"/>
</g>
<rect x="9.90001" y="4.3" width="270.2" height="105" rx="9.1" stroke="#F1F5F9" stroke-width="1.4" shape-rendering="crispEdges"/>
</g>
<defs>
<filter id="filter0_d_459_15550" x="0.800013" y="0.800098" width="288.4" height="123.2" filterUnits="userSpaceOnUse" color-interpolation-filters="sRGB">
<feFlood flood-opacity="0" result="BackgroundImageFix"/>
<feColorMatrix in="SourceAlpha" type="matrix" values="0 0 0 0 0 0 0 0 0 0 0 0 0 0 0 0 0 0 127 0" result="hardAlpha"/>
<feOffset dy="5.6"/>
<feGaussianBlur stdDeviation="4.2"/>
<feComposite in2="hardAlpha" operator="out"/>
<feColorMatrix type="matrix" values="0 0 0 0 0 0 0 0 0 0 0 0 0 0 0 0 0 0 0.09 0"/>
<feBlend mode="normal" in2="BackgroundImageFix" result="effect1_dropShadow_459_15550"/>
<feBlend mode="normal" in="SourceGraphic" in2="effect1_dropShadow_459_15550" result="shape"/>
</filter>
<clipPath id="clip0_459_15550">
<rect x="10.6" y="5" width="268.8" height="103.6" rx="8.4" fill="white"/>
</clipPath>
</defs>
</svg>
