<svg width="522" height="694" viewBox="0 0 522 694" fill="none" xmlns="http://www.w3.org/2000/svg">
<g filter="url(#filter0_d_457_15002)">
<rect x="34" y="12" width="476" height="647.421" rx="21.8369" fill="white" shape-rendering="crispEdges"/>
<path d="M72.2844 65.3684H69.8813L75.2809 50.3636H77.8965L83.2962 65.3684H80.8931L76.651 53.0891H76.5338L72.2844 65.3684ZM72.6873 59.4925H80.4828V61.3974H72.6873V59.4925ZM87.4778 50.3636V65.3684H85.2872V50.3636H87.4778ZM90.4249 65.3684V54.1148H92.6156V65.3684H90.4249ZM91.5312 52.3784C91.1503 52.3784 90.823 52.2514 90.5495 51.9974C90.2808 51.7386 90.1465 51.4309 90.1465 51.0743C90.1465 50.7129 90.2808 50.4051 90.5495 50.1512C90.823 49.8923 91.1503 49.7628 91.5312 49.7628C91.9122 49.7628 92.237 49.8923 92.5057 50.1512C92.7792 50.4051 92.916 50.7129 92.916 51.0743C92.916 51.4309 92.7792 51.7386 92.5057 51.9974C92.237 52.2514 91.9122 52.3784 91.5312 52.3784ZM100.281 69.823C99.3871 69.823 98.6178 69.7057 97.9731 69.4713C97.3333 69.2368 96.8106 68.9267 96.4052 68.5408C95.9998 68.1549 95.697 67.7324 95.4967 67.2733L97.3797 66.4967C97.5115 66.7116 97.6874 66.9387 97.9072 67.1781C98.1319 67.4223 98.4347 67.6299 98.8157 67.8008C99.2015 67.9718 99.6973 68.0573 100.303 68.0573C101.133 68.0573 101.82 67.8546 102.362 67.4491C102.904 67.0486 103.175 66.4088 103.175 65.5296V63.317H103.036C102.904 63.5563 102.713 63.8225 102.464 64.1156C102.22 64.4086 101.883 64.6626 101.453 64.8775C101.023 65.0924 100.464 65.1999 99.7754 65.1999C98.8865 65.1999 98.0855 64.9923 97.3723 64.5771C96.6641 64.1571 96.1024 63.5392 95.6872 62.7235C95.2769 61.9029 95.0718 60.8943 95.0718 59.6977C95.0718 58.501 95.2745 57.4753 95.6799 56.6205C96.0902 55.7657 96.6519 55.1112 97.365 54.657C98.0781 54.1979 98.8865 53.9683 99.7901 53.9683C100.489 53.9683 101.053 54.0855 101.483 54.32C101.912 54.5495 102.247 54.8182 102.486 55.1259C102.73 55.4336 102.919 55.7047 103.05 55.9391H103.212V54.1148H105.358V65.6175C105.358 66.5846 105.134 67.3783 104.684 67.9986C104.235 68.619 103.627 69.0781 102.86 69.376C102.098 69.674 101.238 69.823 100.281 69.823ZM100.259 63.3829C100.889 63.3829 101.421 63.2364 101.856 62.9433C102.296 62.6454 102.628 62.2204 102.853 61.6685C103.082 61.1117 103.197 60.445 103.197 59.6683C103.197 58.9113 103.085 58.2446 102.86 57.6682C102.635 57.0918 102.306 56.6425 101.871 56.3201C101.436 55.9929 100.899 55.8292 100.259 55.8292C99.5996 55.8292 99.0501 56.0002 98.6105 56.3421C98.1709 56.6791 97.8388 57.1382 97.6141 57.7195C97.3943 58.3007 97.2844 58.9503 97.2844 59.6683C97.2844 60.4059 97.3968 61.0531 97.6214 61.6099C97.8461 62.1667 98.1783 62.6014 98.6178 62.914C99.0623 63.2266 99.6094 63.3829 100.259 63.3829ZM110.487 58.6866V65.3684H108.296V54.1148H110.399V55.9465H110.538C110.797 55.3506 111.202 54.8719 111.754 54.5105C112.311 54.149 113.012 53.9683 113.857 53.9683C114.624 53.9683 115.296 54.1295 115.872 54.4518C116.448 54.7693 116.895 55.2431 117.213 55.8732C117.53 56.5033 117.689 57.2823 117.689 58.2104V65.3684H115.498V58.4741C115.498 57.6584 115.286 57.021 114.861 56.5619C114.436 56.0979 113.852 55.8659 113.11 55.8659C112.602 55.8659 112.15 55.9758 111.754 56.1956C111.364 56.4154 111.053 56.7377 110.824 57.1627C110.599 57.5827 110.487 58.0907 110.487 58.6866ZM120.627 65.3684V54.1148H122.73V55.9465H122.869C123.103 55.3261 123.487 54.8426 124.019 54.4958C124.551 54.1441 125.189 53.9683 125.931 53.9683C126.683 53.9683 127.314 54.1441 127.821 54.4958C128.334 54.8475 128.713 55.331 128.957 55.9465H129.074C129.343 55.3457 129.77 54.867 130.356 54.5105C130.943 54.149 131.641 53.9683 132.452 53.9683C133.473 53.9683 134.305 54.2882 134.95 54.9281C135.6 55.5679 135.925 56.5326 135.925 57.8221V65.3684H133.734V58.0272C133.734 57.2652 133.526 56.7133 133.111 56.3714C132.696 56.0295 132.2 55.8585 131.624 55.8585C130.911 55.8585 130.356 56.0783 129.961 56.5179C129.565 56.9526 129.367 57.5119 129.367 58.1957V65.3684H127.184V57.888C127.184 57.2774 126.994 56.7866 126.613 56.4154C126.232 56.0441 125.736 55.8585 125.125 55.8585C124.71 55.8585 124.327 55.9684 123.975 56.1882C123.628 56.4031 123.347 56.7035 123.133 57.0894C122.922 57.4753 122.817 57.9222 122.817 58.4302V65.3684H120.627ZM143.711 65.5955C142.602 65.5955 141.647 65.3586 140.846 64.8849C140.05 64.4062 139.435 63.7346 139 62.8701C138.57 62.0006 138.355 60.9822 138.355 59.8149C138.355 58.6622 138.57 57.6462 139 56.767C139.435 55.8878 140.04 55.2016 140.817 54.7083C141.598 54.2149 142.512 53.9683 143.557 53.9683C144.192 53.9683 144.808 54.0733 145.403 54.2833C145.999 54.4934 146.534 54.8231 147.008 55.2724C147.482 55.7218 147.855 56.3055 148.129 57.0235C148.402 57.7366 148.539 58.6036 148.539 59.6244V60.401H139.593V58.7599H146.392C146.392 58.1835 146.275 57.6731 146.041 57.2286C145.806 56.7792 145.477 56.4251 145.052 56.1663C144.632 55.9074 144.138 55.7779 143.572 55.7779C142.956 55.7779 142.419 55.9294 141.96 56.2322C141.506 56.5301 141.154 56.9209 140.905 57.4044C140.661 57.8831 140.539 58.4033 140.539 58.965V60.2471C140.539 60.9993 140.67 61.6392 140.934 62.1667C141.203 62.6942 141.576 63.0972 142.055 63.3756C142.534 63.6491 143.093 63.7859 143.733 63.7859C144.148 63.7859 144.527 63.7273 144.869 63.61C145.21 63.4879 145.506 63.3072 145.755 63.0679C146.004 62.8285 146.195 62.533 146.327 62.1814L148.4 62.555C148.234 63.1656 147.936 63.7004 147.506 64.1595C147.081 64.6138 146.546 64.9679 145.902 65.2219C145.262 65.471 144.532 65.5955 143.711 65.5955ZM153.16 58.6866V65.3684H150.97V54.1148H153.072V55.9465H153.212C153.471 55.3506 153.876 54.8719 154.428 54.5105C154.985 54.149 155.686 53.9683 156.531 53.9683C157.297 53.9683 157.969 54.1295 158.545 54.4518C159.122 54.7693 159.569 55.2431 159.886 55.8732C160.204 56.5033 160.362 57.2823 160.362 58.2104V65.3684H158.172V58.4741C158.172 57.6584 157.959 57.021 157.534 56.5619C157.109 56.0979 156.526 55.8659 155.783 55.8659C155.275 55.8659 154.824 55.9758 154.428 56.1956C154.037 56.4154 153.727 56.7377 153.497 57.1627C153.273 57.5827 153.16 58.0907 153.16 58.6866ZM168.553 54.1148V55.8732H162.406V54.1148H168.553ZM164.055 51.4186H166.246V62.0641C166.246 62.4891 166.309 62.809 166.436 63.0239C166.563 63.2339 166.727 63.378 166.927 63.4562C167.132 63.5294 167.354 63.5661 167.594 63.5661C167.77 63.5661 167.923 63.5539 168.055 63.5294C168.187 63.505 168.29 63.4855 168.363 63.4708L168.759 65.2805C168.632 65.3293 168.451 65.3782 168.216 65.427C167.982 65.4807 167.689 65.5101 167.337 65.5149C166.761 65.5247 166.224 65.4221 165.725 65.2072C165.227 64.9923 164.824 64.6602 164.517 64.2108C164.209 63.7615 164.055 63.1973 164.055 62.5184V51.4186Z" fill="#0F172A"/>
<path d="M85.7263 129.158H103.116C105.326 129.158 106.211 128.215 106.211 125.871V124.339C106.211 121.996 105.326 121.052 103.116 121.052H85.7263" stroke="#808A9D" stroke-width="2.21053" stroke-linecap="round" stroke-linejoin="round"/>
<path d="M85.7263 108.526H95.7474C97.9579 108.526 98.8421 109.469 98.8421 111.812V113.345C98.8421 115.688 97.9579 116.631 95.7474 116.631H85.7263" stroke="#808A9D" stroke-width="2.21053" stroke-linecap="round" stroke-linejoin="round"/>
<path d="M85.5789 103.722V133.196" stroke="#808A9D" stroke-width="2.21053" stroke-linecap="round" stroke-linejoin="round"/>
<path d="M174.295 129.158H158.379C156.168 129.158 155.284 128.215 155.284 125.871V124.339C155.284 121.996 156.168 121.052 158.379 121.052H174.295C176.505 121.052 177.389 121.996 177.389 124.339V125.871C177.389 128.215 176.505 129.158 174.295 129.158Z" stroke="#808A9D" stroke-width="2.21053" stroke-linecap="round" stroke-linejoin="round"/>
<path d="M171.347 116.631H161.326C159.116 116.631 158.231 115.688 158.231 113.345V111.812C158.231 109.469 159.116 108.526 161.326 108.526H171.347C173.558 108.526 174.442 109.469 174.442 111.812V113.345C174.442 115.688 173.558 116.631 171.347 116.631Z" stroke="#808A9D" stroke-width="2.21053" stroke-linecap="round" stroke-linejoin="round"/>
<path d="M166.337 133.21V129.674" stroke="#808A9D" stroke-width="2.21053" stroke-linecap="round" stroke-linejoin="round"/>
<path d="M166.337 119.947V117" stroke="#808A9D" stroke-width="2.21053" stroke-linecap="round" stroke-linejoin="round"/>
<path d="M166.337 103.737V107.701" stroke="#808A9D" stroke-width="2.21053" stroke-linecap="round" stroke-linejoin="round"/>
<path d="M246.947 129.158H229.558C227.347 129.158 226.463 128.215 226.463 125.871V124.339C226.463 121.996 227.347 121.052 229.558 121.052H246.947" stroke="#808A9D" stroke-width="2.21053" stroke-linecap="round" stroke-linejoin="round"/>
<path d="M246.947 108.526H236.926C234.716 108.526 233.832 109.469 233.832 111.812V113.345C233.832 115.688 234.716 116.631 236.926 116.631H246.947" stroke="#808A9D" stroke-width="2.21053" stroke-linecap="round" stroke-linejoin="round"/>
<path d="M247.095 103.722V133.196" stroke="#808A9D" stroke-width="2.21053" stroke-linecap="round" stroke-linejoin="round"/>
<path d="M317.92 108.305V125.695C317.92 127.905 316.977 128.789 314.634 128.789H313.101C310.758 128.789 309.815 127.905 309.815 125.695V108.305" stroke="#808A9D" stroke-width="2.21053" stroke-linecap="round" stroke-linejoin="round"/>
<path d="M297.289 108.305V118.326C297.289 120.537 298.232 121.421 300.575 121.421H302.108C304.451 121.421 305.394 120.537 305.394 118.326V108.305" stroke="#808A9D" stroke-width="2.21053" stroke-linecap="round" stroke-linejoin="round"/>
<path d="M292.484 108.158H321.958" stroke="#808A9D" stroke-width="2.21053" stroke-linecap="round" stroke-linejoin="round"/>
<path d="M366.979 126.431V110.516C366.979 108.305 367.922 107.421 370.265 107.421H371.797C374.141 107.421 375.084 108.305 375.084 110.516V126.431C375.084 128.642 374.141 129.526 371.797 129.526H370.265C367.922 129.526 366.979 128.642 366.979 126.431Z" stroke="#808A9D" stroke-width="2.21053" stroke-linecap="round" stroke-linejoin="round"/>
<path d="M379.505 123.484V113.463C379.505 111.252 380.448 110.368 382.791 110.368H384.324C386.667 110.368 387.61 111.252 387.61 113.463V123.484C387.61 125.694 386.667 126.579 384.324 126.579H382.791C380.448 126.579 379.505 125.694 379.505 123.484Z" stroke="#808A9D" stroke-width="2.21053" stroke-linecap="round" stroke-linejoin="round"/>
<path d="M362.926 118.474H366.463" stroke="#808A9D" stroke-width="2.21053" stroke-linecap="round" stroke-linejoin="round"/>
<path d="M376.189 118.474H379.136" stroke="#808A9D" stroke-width="2.21053" stroke-linecap="round" stroke-linejoin="round"/>
<path d="M392.4 118.474H388.436" stroke="#808A9D" stroke-width="2.21053" stroke-linecap="round" stroke-linejoin="round"/>
<path d="M458.804 128.642V111.252C458.804 109.042 457.861 108.158 455.518 108.158H453.985C451.642 108.158 450.699 109.042 450.699 111.252V128.642" stroke="#808A9D" stroke-width="2.21053" stroke-linecap="round" stroke-linejoin="round"/>
<path d="M438.173 128.642V118.621C438.173 116.41 439.116 115.526 441.459 115.526H442.992C445.335 115.526 446.278 116.41 446.278 118.621V128.642" stroke="#808A9D" stroke-width="2.21053" stroke-linecap="round" stroke-linejoin="round"/>
<path d="M433.368 128.789H462.842" stroke="#808A9D" stroke-width="2.21053" stroke-linecap="round" stroke-linejoin="round"/>
<line x1="70.842" y1="161.947" x2="474.632" y2="161.947" stroke="#E2E8F0" stroke-width="1.47368"/>
<path d="M70.2769 207.234V205.285H81.8895V207.234H77.2078V220.29H74.9512V207.234H70.2769ZM84.375 224.51C84.0478 224.51 83.7498 224.483 83.4812 224.429C83.2125 224.38 83.0123 224.326 82.8804 224.268L83.4079 222.473C83.8084 222.58 84.165 222.627 84.4776 222.612C84.7902 222.597 85.0662 222.48 85.3055 222.26C85.5497 222.041 85.7646 221.682 85.9502 221.183L86.2213 220.436L82.1038 209.036H84.4483L87.2983 217.769H87.4155L90.2656 209.036H92.6174L87.9797 221.791C87.7648 222.378 87.4913 222.873 87.1591 223.279C86.827 223.689 86.4313 223.997 85.9722 224.202C85.5131 224.407 84.9807 224.51 84.375 224.51ZM94.6762 224.51V209.036H96.8155V210.86H96.9987C97.1257 210.626 97.3088 210.355 97.5482 210.047C97.7875 209.739 98.1196 209.471 98.5446 209.241C98.9695 209.007 99.5312 208.889 100.23 208.889C101.138 208.889 101.949 209.119 102.662 209.578C103.375 210.037 103.934 210.699 104.34 211.564C104.75 212.428 104.955 213.469 104.955 214.685C104.955 215.901 104.753 216.944 104.347 217.813C103.942 218.678 103.385 219.344 102.677 219.813C101.969 220.277 101.16 220.509 100.252 220.509C99.5679 220.509 99.0086 220.395 98.5739 220.165C98.1441 219.935 97.807 219.667 97.5628 219.359C97.3186 219.051 97.1306 218.778 96.9987 218.539H96.8668V224.51H94.6762ZM96.8228 214.663C96.8228 215.454 96.9376 216.148 97.1672 216.743C97.3968 217.339 97.7289 217.806 98.1636 218.143C98.5983 218.475 99.1307 218.641 99.7608 218.641C100.415 218.641 100.962 218.468 101.402 218.121C101.842 217.769 102.174 217.293 102.398 216.692C102.628 216.091 102.743 215.415 102.743 214.663C102.743 213.92 102.63 213.254 102.406 212.663C102.186 212.072 101.854 211.605 101.409 211.263C100.97 210.921 100.42 210.75 99.7608 210.75C99.1258 210.75 98.5885 210.914 98.1489 211.241C97.7142 211.569 97.3845 212.025 97.1599 212.611C96.9352 213.197 96.8228 213.881 96.8228 214.663ZM112.15 220.517C111.095 220.517 110.174 220.275 109.388 219.791C108.601 219.308 107.991 218.631 107.556 217.762C107.122 216.892 106.904 215.877 106.904 214.714C106.904 213.547 107.122 212.526 107.556 211.652C107.991 210.777 108.601 210.098 109.388 209.615C110.174 209.131 111.095 208.889 112.15 208.889C113.205 208.889 114.126 209.131 114.912 209.615C115.698 210.098 116.309 210.777 116.744 211.652C117.178 212.526 117.396 213.547 117.396 214.714C117.396 215.877 117.178 216.892 116.744 217.762C116.309 218.631 115.698 219.308 114.912 219.791C114.126 220.275 113.205 220.517 112.15 220.517ZM112.157 218.678C112.841 218.678 113.408 218.497 113.857 218.136C114.306 217.774 114.639 217.293 114.853 216.692C115.073 216.091 115.183 215.43 115.183 214.707C115.183 213.989 115.073 213.329 114.853 212.729C114.639 212.123 114.306 211.637 113.857 211.271C113.408 210.904 112.841 210.721 112.157 210.721C111.469 210.721 110.897 210.904 110.443 211.271C109.994 211.637 109.659 212.123 109.439 212.729C109.224 213.329 109.117 213.989 109.117 214.707C109.117 215.43 109.224 216.091 109.439 216.692C109.659 217.293 109.994 217.774 110.443 218.136C110.897 218.497 111.469 218.678 112.157 218.678ZM124.559 224.744C123.666 224.744 122.896 224.627 122.251 224.392C121.612 224.158 121.089 223.848 120.684 223.462C120.278 223.076 119.975 222.654 119.775 222.194L121.658 221.418C121.79 221.633 121.966 221.86 122.186 222.099C122.41 222.343 122.713 222.551 123.094 222.722C123.48 222.893 123.976 222.978 124.581 222.978C125.412 222.978 126.098 222.776 126.64 222.37C127.182 221.97 127.453 221.33 127.453 220.451V218.238H127.314C127.182 218.477 126.992 218.744 126.743 219.037C126.498 219.33 126.161 219.584 125.732 219.799C125.302 220.014 124.743 220.121 124.054 220.121C123.165 220.121 122.364 219.913 121.651 219.498C120.942 219.078 120.381 218.46 119.966 217.645C119.555 216.824 119.35 215.815 119.35 214.619C119.35 213.422 119.553 212.396 119.958 211.542C120.369 210.687 120.93 210.032 121.643 209.578C122.356 209.119 123.165 208.889 124.068 208.889C124.767 208.889 125.331 209.007 125.761 209.241C126.191 209.471 126.525 209.739 126.765 210.047C127.009 210.355 127.197 210.626 127.329 210.86H127.49V209.036H129.637V220.539C129.637 221.506 129.412 222.299 128.963 222.92C128.513 223.54 127.905 223.999 127.138 224.297C126.376 224.595 125.517 224.744 124.559 224.744ZM124.537 218.304C125.167 218.304 125.7 218.158 126.135 217.864C126.574 217.567 126.906 217.142 127.131 216.59C127.361 216.033 127.475 215.366 127.475 214.589C127.475 213.832 127.363 213.166 127.138 212.589C126.914 212.013 126.584 211.564 126.149 211.241C125.715 210.914 125.177 210.75 124.537 210.75C123.878 210.75 123.328 210.921 122.889 211.263C122.449 211.6 122.117 212.059 121.892 212.641C121.673 213.222 121.563 213.871 121.563 214.589C121.563 215.327 121.675 215.974 121.9 216.531C122.124 217.088 122.457 217.523 122.896 217.835C123.341 218.148 123.888 218.304 124.537 218.304ZM132.575 220.29V209.036H134.692V210.824H134.809C135.014 210.218 135.376 209.742 135.894 209.395C136.416 209.043 137.007 208.867 137.667 208.867C137.803 208.867 137.964 208.872 138.15 208.882C138.341 208.892 138.49 208.904 138.597 208.919V211.014C138.509 210.99 138.353 210.963 138.128 210.934C137.903 210.899 137.679 210.882 137.454 210.882C136.936 210.882 136.475 210.992 136.069 211.212C135.669 211.427 135.351 211.727 135.117 212.113C134.882 212.494 134.765 212.929 134.765 213.417V220.29H132.575ZM143.667 220.539C142.954 220.539 142.309 220.407 141.733 220.143C141.156 219.874 140.7 219.486 140.363 218.978C140.031 218.47 139.865 217.847 139.865 217.11C139.865 216.475 139.987 215.952 140.231 215.542C140.475 215.132 140.805 214.807 141.22 214.568C141.635 214.328 142.099 214.147 142.612 214.025C143.125 213.903 143.647 213.81 144.18 213.747C144.854 213.669 145.401 213.605 145.821 213.556C146.241 213.503 146.546 213.417 146.737 213.3C146.927 213.183 147.023 212.992 147.023 212.729V212.677C147.023 212.037 146.842 211.542 146.48 211.19C146.124 210.838 145.591 210.662 144.883 210.662C144.146 210.662 143.564 210.826 143.139 211.153C142.719 211.476 142.429 211.835 142.268 212.23L140.209 211.761C140.453 211.078 140.81 210.526 141.279 210.106C141.752 209.681 142.297 209.373 142.912 209.182C143.528 208.987 144.175 208.889 144.854 208.889C145.303 208.889 145.779 208.943 146.283 209.051C146.791 209.153 147.264 209.344 147.704 209.622C148.148 209.9 148.512 210.299 148.796 210.816C149.079 211.329 149.221 211.996 149.221 212.816V220.29H147.081V218.751H146.993C146.852 219.034 146.639 219.313 146.356 219.586C146.073 219.86 145.709 220.087 145.264 220.268C144.82 220.448 144.287 220.539 143.667 220.539ZM144.143 218.78C144.749 218.78 145.267 218.661 145.696 218.421C146.131 218.182 146.461 217.869 146.686 217.483C146.915 217.093 147.03 216.675 147.03 216.231V214.78C146.952 214.858 146.8 214.931 146.576 215C146.356 215.063 146.104 215.119 145.821 215.168C145.538 215.212 145.262 215.254 144.993 215.293C144.724 215.327 144.5 215.356 144.319 215.381C143.894 215.434 143.506 215.525 143.154 215.652C142.807 215.779 142.529 215.962 142.319 216.201C142.114 216.436 142.011 216.748 142.011 217.139C142.011 217.681 142.211 218.092 142.612 218.37C143.012 218.644 143.523 218.78 144.143 218.78ZM152.138 224.51V209.036H154.278V210.86H154.461C154.588 210.626 154.771 210.355 155.01 210.047C155.25 209.739 155.582 209.471 156.007 209.241C156.432 209.007 156.993 208.889 157.692 208.889C158.6 208.889 159.411 209.119 160.124 209.578C160.837 210.037 161.397 210.699 161.802 211.564C162.212 212.428 162.417 213.469 162.417 214.685C162.417 215.901 162.215 216.944 161.809 217.813C161.404 218.678 160.847 219.344 160.139 219.813C159.431 220.277 158.622 220.509 157.714 220.509C157.03 220.509 156.471 220.395 156.036 220.165C155.606 219.935 155.269 219.667 155.025 219.359C154.781 219.051 154.593 218.778 154.461 218.539H154.329V224.51H152.138ZM154.285 214.663C154.285 215.454 154.4 216.148 154.629 216.743C154.859 217.339 155.191 217.806 155.626 218.143C156.06 218.475 156.593 218.641 157.223 218.641C157.877 218.641 158.425 218.468 158.864 218.121C159.304 217.769 159.636 217.293 159.861 216.692C160.09 216.091 160.205 215.415 160.205 214.663C160.205 213.92 160.093 213.254 159.868 212.663C159.648 212.072 159.316 211.605 158.871 211.263C158.432 210.921 157.882 210.75 157.223 210.75C156.588 210.75 156.051 210.914 155.611 211.241C155.176 211.569 154.847 212.025 154.622 212.611C154.397 213.197 154.285 213.881 154.285 214.663ZM167.063 213.608V220.29H164.872V205.285H167.033V210.868H167.172C167.436 210.262 167.839 209.781 168.381 209.424C168.923 209.068 169.632 208.889 170.506 208.889C171.278 208.889 171.952 209.048 172.528 209.366C173.109 209.683 173.559 210.157 173.876 210.787C174.199 211.412 174.36 212.194 174.36 213.132V220.29H172.169V213.395C172.169 212.57 171.957 211.93 171.532 211.476C171.107 211.017 170.516 210.787 169.759 210.787C169.241 210.787 168.777 210.897 168.367 211.117C167.961 211.337 167.641 211.659 167.407 212.084C167.177 212.504 167.063 213.012 167.063 213.608ZM178.265 224.51C177.938 224.51 177.64 224.483 177.371 224.429C177.102 224.38 176.902 224.326 176.77 224.268L177.298 222.473C177.698 222.58 178.055 222.627 178.367 222.612C178.68 222.597 178.956 222.48 179.195 222.26C179.44 222.041 179.654 221.682 179.84 221.183L180.111 220.436L175.994 209.036H178.338L181.188 217.769H181.305L184.155 209.036H186.507L181.869 221.791C181.655 222.378 181.381 222.873 181.049 223.279C180.717 223.689 180.321 223.997 179.862 224.202C179.403 224.407 178.87 224.51 178.265 224.51Z" fill="#0F172A"/>
<path d="M467.263 216.474L459.895 209.105L452.526 216.474" stroke="#94A3B8" stroke-width="2.45614" stroke-linecap="round" stroke-linejoin="round"/>
<rect x="70.1053" y="263.632" width="403.789" height="52.1053" rx="8.10526" fill="#F8FAFC"/>
<rect x="70.1053" y="263.632" width="403.789" height="52.1053" rx="8.10526" stroke="#333333" stroke-width="1.47368"/>
<path d="M90.6867 281.679V296.684H88.8697V281.679H90.6867ZM95.8245 289.914V296.684H94.0954V285.43H95.7658V287.189H95.9124C96.1761 286.617 96.5766 286.158 97.1139 285.811C97.6512 285.46 98.3448 285.284 99.1947 285.284C99.9566 285.284 100.623 285.44 101.195 285.753C101.766 286.061 102.211 286.529 102.528 287.16C102.846 287.785 103.004 288.576 103.004 289.533V296.684H101.275V289.651C101.275 288.767 101.046 288.078 100.587 287.585C100.128 287.086 99.4975 286.837 98.6965 286.837C98.1445 286.837 97.6512 286.957 97.2165 287.196C96.7867 287.436 96.4472 287.785 96.1981 288.244C95.949 288.703 95.8245 289.26 95.8245 289.914ZM111.058 285.43V286.896H105.226V285.43H111.058ZM106.926 282.734H108.655V293.46C108.655 293.949 108.726 294.315 108.868 294.559C109.014 294.799 109.2 294.96 109.424 295.043C109.654 295.121 109.896 295.16 110.15 295.16C110.34 295.16 110.496 295.15 110.619 295.131C110.741 295.106 110.838 295.087 110.912 295.072L111.263 296.625C111.146 296.669 110.982 296.713 110.772 296.757C110.562 296.806 110.296 296.831 109.974 296.831C109.485 296.831 109.007 296.726 108.538 296.516C108.074 296.306 107.688 295.986 107.38 295.556C107.077 295.126 106.926 294.584 106.926 293.929V282.734ZM118.257 296.919C117.172 296.919 116.237 296.679 115.45 296.201C114.669 295.717 114.066 295.043 113.641 294.178C113.221 293.309 113.011 292.298 113.011 291.145C113.011 289.992 113.221 288.977 113.641 288.097C114.066 287.213 114.657 286.525 115.414 286.031C116.176 285.533 117.065 285.284 118.081 285.284C118.667 285.284 119.246 285.382 119.817 285.577C120.389 285.772 120.909 286.09 121.378 286.529C121.847 286.964 122.22 287.541 122.499 288.259C122.777 288.977 122.916 289.861 122.916 290.911V291.643H114.242V290.149H121.158C121.158 289.514 121.031 288.947 120.777 288.449C120.528 287.951 120.171 287.558 119.707 287.269C119.248 286.981 118.706 286.837 118.081 286.837C117.392 286.837 116.796 287.008 116.293 287.35C115.795 287.687 115.411 288.127 115.143 288.669C114.874 289.211 114.74 289.792 114.74 290.413V291.409C114.74 292.259 114.886 292.979 115.179 293.57C115.477 294.156 115.89 294.603 116.418 294.911C116.945 295.214 117.558 295.365 118.257 295.365C118.711 295.365 119.121 295.302 119.487 295.175C119.859 295.043 120.179 294.848 120.447 294.589C120.716 294.325 120.923 293.998 121.07 293.607L122.74 294.076C122.565 294.642 122.269 295.141 121.854 295.57C121.439 295.995 120.926 296.328 120.315 296.567C119.705 296.801 119.018 296.919 118.257 296.919ZM125.546 296.684V285.43H127.217V287.13H127.334C127.539 286.573 127.91 286.122 128.448 285.775C128.985 285.428 129.591 285.255 130.265 285.255C130.392 285.255 130.55 285.257 130.741 285.262C130.931 285.267 131.076 285.274 131.173 285.284V287.042C131.115 287.028 130.98 287.006 130.77 286.976C130.565 286.942 130.348 286.925 130.118 286.925C129.571 286.925 129.083 287.04 128.653 287.269C128.228 287.494 127.891 287.807 127.642 288.207C127.398 288.603 127.276 289.055 127.276 289.563V296.684H125.546Z" fill="#0F172A"/>
<path d="M439.263 286.737L445.158 292.632L451.053 286.737" stroke="#475569" stroke-width="1.30994" stroke-linecap="round" stroke-linejoin="round"/>
<rect x="69.3684" y="340.053" width="196" height="53.5789" rx="8.8421" fill="#F8FAFC"/>
<path d="M88.8697 358.838H91.0384L96.1377 371.293H96.3135L101.413 358.838H103.581V373.842H101.882V362.442H101.735L97.0462 373.842H95.405L90.716 362.442H90.5695V373.842H88.8697V358.838ZM111.708 374.077C110.624 374.077 109.689 373.837 108.902 373.359C108.121 372.875 107.518 372.201 107.093 371.337C106.673 370.467 106.463 369.456 106.463 368.303C106.463 367.151 106.673 366.135 107.093 365.256C107.518 364.371 108.109 363.683 108.866 363.189C109.628 362.691 110.517 362.442 111.533 362.442C112.119 362.442 112.698 362.54 113.269 362.735C113.84 362.931 114.361 363.248 114.83 363.688C115.298 364.122 115.672 364.699 115.95 365.417C116.229 366.135 116.368 367.019 116.368 368.069V368.802H107.693V367.307H114.61C114.61 366.672 114.483 366.105 114.229 365.607C113.98 365.109 113.623 364.716 113.159 364.428C112.7 364.139 112.158 363.995 111.533 363.995C110.844 363.995 110.248 364.166 109.745 364.508C109.247 364.845 108.863 365.285 108.595 365.827C108.326 366.369 108.192 366.95 108.192 367.571V368.567C108.192 369.417 108.338 370.137 108.631 370.728C108.929 371.315 109.342 371.762 109.869 372.069C110.397 372.372 111.01 372.524 111.708 372.524C112.163 372.524 112.573 372.46 112.939 372.333C113.31 372.201 113.63 372.006 113.899 371.747C114.168 371.483 114.375 371.156 114.522 370.765L116.192 371.234C116.016 371.801 115.721 372.299 115.306 372.729C114.891 373.154 114.378 373.486 113.767 373.725C113.157 373.96 112.47 374.077 111.708 374.077ZM123.248 374.077C122.31 374.077 121.482 373.84 120.764 373.366C120.046 372.887 119.484 372.213 119.079 371.344C118.674 370.47 118.471 369.437 118.471 368.245C118.471 367.063 118.674 366.037 119.079 365.168C119.484 364.298 120.048 363.627 120.771 363.153C121.494 362.679 122.329 362.442 123.277 362.442C124.01 362.442 124.589 362.564 125.013 362.808C125.443 363.048 125.771 363.321 125.995 363.629C126.225 363.932 126.403 364.181 126.53 364.376H126.677V358.838H128.406V373.842H126.735V372.113H126.53C126.403 372.318 126.222 372.577 125.988 372.89C125.753 373.198 125.419 373.474 124.984 373.718C124.549 373.957 123.971 374.077 123.248 374.077ZM123.482 372.524C124.176 372.524 124.762 372.343 125.241 371.981C125.719 371.615 126.083 371.109 126.332 370.465C126.581 369.815 126.706 369.065 126.706 368.215C126.706 367.375 126.584 366.64 126.34 366.01C126.095 365.375 125.734 364.882 125.255 364.53C124.777 364.174 124.186 363.995 123.482 363.995C122.75 363.995 122.139 364.183 121.651 364.56C121.167 364.931 120.803 365.436 120.559 366.076C120.32 366.711 120.2 367.424 120.2 368.215C120.2 369.017 120.322 369.744 120.566 370.399C120.815 371.048 121.182 371.566 121.665 371.952C122.154 372.333 122.759 372.524 123.482 372.524ZM131.812 373.842V362.589H133.542V373.842H131.812ZM132.692 360.713C132.355 360.713 132.064 360.598 131.82 360.369C131.58 360.139 131.461 359.863 131.461 359.541C131.461 359.218 131.58 358.943 131.82 358.713C132.064 358.483 132.355 358.369 132.692 358.369C133.029 358.369 133.317 358.483 133.556 358.713C133.8 358.943 133.923 359.218 133.923 359.541C133.923 359.863 133.8 360.139 133.556 360.369C133.317 360.598 133.029 360.713 132.692 360.713ZM143.801 369.241V362.589H145.53V373.842H143.801V371.937H143.683C143.42 372.509 143.009 372.995 142.452 373.395C141.896 373.791 141.192 373.989 140.342 373.989C139.639 373.989 139.014 373.835 138.467 373.527C137.92 373.215 137.49 372.746 137.177 372.121C136.865 371.49 136.708 370.697 136.708 369.739V362.589H138.438V369.622C138.438 370.443 138.667 371.097 139.126 371.586C139.59 372.074 140.181 372.318 140.899 372.318C141.329 372.318 141.766 372.208 142.211 371.989C142.66 371.769 143.036 371.432 143.339 370.978C143.647 370.523 143.801 369.945 143.801 369.241ZM148.697 373.842V362.589H150.367V364.347H150.514C150.748 363.746 151.127 363.28 151.649 362.948C152.172 362.611 152.799 362.442 153.532 362.442C154.274 362.442 154.892 362.611 155.386 362.948C155.884 363.28 156.272 363.746 156.551 364.347H156.668C156.956 363.766 157.388 363.304 157.965 362.962C158.541 362.616 159.232 362.442 160.038 362.442C161.044 362.442 161.867 362.757 162.507 363.387C163.147 364.012 163.467 364.987 163.467 366.311V373.842H161.738V366.311C161.738 365.48 161.511 364.887 161.056 364.53C160.602 364.174 160.067 363.995 159.452 363.995C158.661 363.995 158.048 364.235 157.613 364.713C157.178 365.187 156.961 365.788 156.961 366.516V373.842H155.203V366.135C155.203 365.495 154.995 364.98 154.58 364.589C154.165 364.193 153.63 363.995 152.975 363.995C152.526 363.995 152.106 364.115 151.715 364.354C151.329 364.594 151.017 364.926 150.777 365.351C150.543 365.771 150.426 366.257 150.426 366.809V373.842H148.697Z" fill="#0F172A"/>
<path d="M230 363.895L235.895 369.79L241.789 363.895" stroke="#475569" stroke-width="1.30994" stroke-linecap="round" stroke-linejoin="round"/>
<rect x="277.158" y="340.053" width="196" height="53.5789" rx="8.8421" fill="#F8FAFC"/>
<path d="M296.396 373.842V372.524L301.348 367.102C301.93 366.467 302.408 365.915 302.784 365.446C303.16 364.972 303.439 364.528 303.619 364.113C303.805 363.693 303.898 363.253 303.898 362.794C303.898 362.266 303.771 361.81 303.517 361.424C303.268 361.038 302.926 360.74 302.491 360.53C302.056 360.32 301.568 360.215 301.026 360.215C300.45 360.215 299.946 360.335 299.517 360.574C299.092 360.808 298.762 361.138 298.528 361.563C298.298 361.988 298.183 362.486 298.183 363.058H296.454C296.454 362.178 296.657 361.407 297.062 360.742C297.468 360.078 298.02 359.56 298.718 359.189C299.421 358.818 300.21 358.632 301.085 358.632C301.964 358.632 302.743 358.818 303.422 359.189C304.101 359.56 304.633 360.061 305.019 360.691C305.405 361.321 305.598 362.022 305.598 362.794C305.598 363.346 305.498 363.885 305.297 364.413C305.102 364.936 304.76 365.519 304.272 366.164C303.788 366.804 303.116 367.585 302.257 368.509L298.887 372.113V372.23H305.861V373.842H296.396ZM308.213 370.765V369.271L314.807 358.838H315.891V361.153H315.159L310.177 369.036V369.153H319.057V370.765H308.213ZM315.276 373.842V370.311V369.615V358.838H317.005V373.842H315.276Z" fill="#0F172A"/>
<path d="M437.79 363.895L443.684 369.79L449.579 363.895" stroke="#475569" stroke-width="1.30994" stroke-linecap="round" stroke-linejoin="round"/>
<rect x="70.1053" y="417.947" width="91.3684" height="51.5789" rx="8.10526" stroke="#E2E8F0" stroke-width="1.47368"/>
<path d="M124.631 437.842H106.947" stroke="#0F172A" stroke-width="1.30994" stroke-linecap="round" stroke-linejoin="round"/>
<path d="M118.737 443.737H106.947" stroke="#0F172A" stroke-width="1.30994" stroke-linecap="round" stroke-linejoin="round"/>
<path d="M120.702 449.632H106.947" stroke="#0F172A" stroke-width="1.30994" stroke-linecap="round" stroke-linejoin="round"/>
<rect x="174.246" y="417.947" width="91.3684" height="51.5789" rx="8.10526" stroke="#E2E8F0" stroke-width="1.47368"/>
<path d="M228.772 437.842H211.088" stroke="#0F172A" stroke-width="1.30994" stroke-linecap="round" stroke-linejoin="round"/>
<path d="M224.842 443.737H215.018" stroke="#0F172A" stroke-width="1.30994" stroke-linecap="round" stroke-linejoin="round"/>
<path d="M226.807 449.632H213.053" stroke="#0F172A" stroke-width="1.30994" stroke-linecap="round" stroke-linejoin="round"/>
<rect x="278.386" y="417.947" width="91.3684" height="51.5789" rx="8.10526" stroke="#E2E8F0" stroke-width="1.47368"/>
<path d="M332.912 437.842H315.228" stroke="#0F172A" stroke-width="1.30994" stroke-linecap="round" stroke-linejoin="round"/>
<path d="M332.912 443.737H321.123" stroke="#0F172A" stroke-width="1.30994" stroke-linecap="round" stroke-linejoin="round"/>
<path d="M332.912 449.632H319.158" stroke="#0F172A" stroke-width="1.30994" stroke-linecap="round" stroke-linejoin="round"/>
<rect x="382.526" y="417.947" width="91.3684" height="51.5789" rx="8.10526" stroke="#E2E8F0" stroke-width="1.47368"/>
<path d="M419.368 437.842H437.053" stroke="#0F172A" stroke-width="1.30994" stroke-linecap="round" stroke-linejoin="round"/>
<path d="M419.368 443.737H437.053" stroke="#0F172A" stroke-width="1.30994" stroke-linecap="round" stroke-linejoin="round"/>
<path d="M419.368 449.632H437.053" stroke="#0F172A" stroke-width="1.30994" stroke-linecap="round" stroke-linejoin="round"/>
<rect x="70.1053" y="494.579" width="131.158" height="52.1053" rx="8.10526" stroke="#E2E8F0" stroke-width="1.47368"/>
<path d="M108.666 511.789V529.474H106.701V511.789H108.666ZM90.982 511.789V529.474H89.0171V511.789H90.982ZM96.8767 522.302H100.807L98.8417 516.996L96.8767 522.302ZM98.0557 514.737H99.7259L104.343 526.526H102.378L101.494 523.972H96.2873L95.4031 526.526H93.4381L98.0557 514.737Z" fill="#808A9D"/>
<path d="M122.974 527.837C121.87 527.837 120.93 527.536 120.153 526.936C119.377 526.33 118.783 525.453 118.373 524.305C117.963 523.153 117.757 521.761 117.757 520.129C117.757 518.508 117.963 517.123 118.373 515.975C118.788 514.822 119.384 513.943 120.161 513.337C120.942 512.727 121.88 512.422 122.974 512.422C124.068 512.422 125.003 512.727 125.78 513.337C126.562 513.943 127.157 514.822 127.568 515.975C127.983 517.123 128.19 518.508 128.19 520.129C128.19 521.761 127.985 523.153 127.575 524.305C127.165 525.453 126.571 526.33 125.795 526.936C125.018 527.536 124.078 527.837 122.974 527.837ZM122.974 526.225C124.068 526.225 124.918 525.697 125.524 524.642C126.129 523.587 126.432 522.083 126.432 520.129C126.432 518.83 126.293 517.724 126.015 516.81C125.741 515.897 125.345 515.201 124.828 514.722C124.315 514.244 123.697 514.004 122.974 514.004C121.89 514.004 121.042 514.539 120.432 515.609C119.821 516.674 119.516 518.18 119.516 520.129C119.516 521.428 119.653 522.532 119.926 523.441C120.2 524.349 120.593 525.04 121.106 525.514C121.623 525.988 122.246 526.225 122.974 526.225ZM138.624 524.818V524.027C138.624 523.48 138.736 522.979 138.961 522.525C139.19 522.066 139.522 521.7 139.957 521.426C140.397 521.148 140.929 521.008 141.554 521.008C142.189 521.008 142.721 521.148 143.151 521.426C143.581 521.7 143.906 522.066 144.126 522.525C144.346 522.979 144.455 523.48 144.455 524.027V524.818C144.455 525.365 144.343 525.868 144.118 526.327C143.899 526.782 143.571 527.148 143.137 527.426C142.707 527.7 142.179 527.837 141.554 527.837C140.919 527.837 140.384 527.7 139.95 527.426C139.515 527.148 139.185 526.782 138.961 526.327C138.736 525.868 138.624 525.365 138.624 524.818ZM140.118 524.027V524.818C140.118 525.272 140.226 525.68 140.44 526.042C140.655 526.398 141.027 526.577 141.554 526.577C142.067 526.577 142.428 526.398 142.638 526.042C142.853 525.68 142.961 525.272 142.961 524.818V524.027C142.961 523.573 142.858 523.167 142.653 522.811C142.448 522.449 142.082 522.269 141.554 522.269C141.041 522.269 140.672 522.449 140.448 522.811C140.228 523.167 140.118 523.573 140.118 524.027ZM131.15 516.231V515.44C131.15 514.893 131.263 514.393 131.487 513.938C131.717 513.479 132.049 513.113 132.484 512.839C132.923 512.561 133.456 512.422 134.081 512.422C134.716 512.422 135.248 512.561 135.678 512.839C136.108 513.113 136.433 513.479 136.653 513.938C136.872 514.393 136.982 514.893 136.982 515.44V516.231C136.982 516.779 136.87 517.282 136.645 517.741C136.426 518.195 136.098 518.561 135.664 518.84C135.234 519.113 134.706 519.25 134.081 519.25C133.446 519.25 132.911 519.113 132.477 518.84C132.042 518.561 131.712 518.195 131.487 517.741C131.263 517.282 131.15 516.779 131.15 516.231ZM132.645 515.44V516.231C132.645 516.686 132.752 517.094 132.967 517.455C133.182 517.812 133.554 517.99 134.081 517.99C134.594 517.99 134.955 517.812 135.165 517.455C135.38 517.094 135.488 516.686 135.488 516.231V515.44C135.488 514.986 135.385 514.581 135.18 514.224C134.975 513.863 134.609 513.682 134.081 513.682C133.568 513.682 133.199 513.863 132.975 514.224C132.755 514.581 132.645 514.986 132.645 515.44ZM131.707 527.632L142.023 512.627H143.693L133.378 527.632H131.707Z" fill="#0F172A"/>
<path d="M176 517.684L181.895 523.579L187.789 517.684" stroke="#0F172A" stroke-width="1.30994" stroke-linecap="round" stroke-linejoin="round"/>
<rect x="208.631" y="494.579" width="131.158" height="52.1053" rx="8.10526" stroke="#E2E8F0" stroke-width="1.47368"/>
<path d="M247.193 511.789V529.474H245.228V511.789H247.193ZM229.508 511.789V529.474H227.543V511.789H229.508ZM235.403 522.302H239.333L237.368 516.996L235.403 522.302ZM236.582 514.737H238.252L242.87 526.526H240.905L240.021 523.972H234.814L233.929 526.526H231.965L236.582 514.737Z" fill="#808A9D"/>
<path d="M261.5 527.837C260.396 527.837 259.456 527.536 258.679 526.936C257.903 526.33 257.309 525.453 256.899 524.305C256.489 523.153 256.284 521.761 256.284 520.129C256.284 518.508 256.489 517.123 256.899 515.975C257.314 514.822 257.91 513.943 258.687 513.337C259.468 512.727 260.406 512.422 261.5 512.422C262.594 512.422 263.53 512.727 264.306 513.337C265.088 513.943 265.684 514.822 266.094 515.975C266.509 517.123 266.717 518.508 266.717 520.129C266.717 521.761 266.511 523.153 266.101 524.305C265.691 525.453 265.097 526.33 264.321 526.936C263.544 527.536 262.604 527.837 261.5 527.837ZM261.5 526.225C262.594 526.225 263.444 525.697 264.05 524.642C264.655 523.587 264.958 522.083 264.958 520.129C264.958 518.83 264.819 517.724 264.541 516.81C264.267 515.897 263.871 515.201 263.354 514.722C262.841 514.244 262.223 514.004 261.5 514.004C260.416 514.004 259.568 514.539 258.958 515.609C258.347 516.674 258.042 518.18 258.042 520.129C258.042 521.428 258.179 522.532 258.452 523.441C258.726 524.349 259.119 525.04 259.632 525.514C260.15 525.988 260.772 526.225 261.5 526.225ZM277.15 524.818V524.027C277.15 523.48 277.262 522.979 277.487 522.525C277.716 522.066 278.048 521.7 278.483 521.426C278.923 521.148 279.455 521.008 280.08 521.008C280.715 521.008 281.248 521.148 281.677 521.426C282.107 521.7 282.432 522.066 282.652 522.525C282.872 522.979 282.982 523.48 282.982 524.027V524.818C282.982 525.365 282.869 525.868 282.645 526.327C282.425 526.782 282.097 527.148 281.663 527.426C281.233 527.7 280.705 527.837 280.08 527.837C279.445 527.837 278.91 527.7 278.476 527.426C278.041 527.148 277.711 526.782 277.487 526.327C277.262 525.868 277.15 525.365 277.15 524.818ZM278.644 524.027V524.818C278.644 525.272 278.752 525.68 278.967 526.042C279.182 526.398 279.553 526.577 280.08 526.577C280.593 526.577 280.955 526.398 281.165 526.042C281.379 525.68 281.487 525.272 281.487 524.818V524.027C281.487 523.573 281.384 523.167 281.179 522.811C280.974 522.449 280.608 522.269 280.08 522.269C279.567 522.269 279.199 522.449 278.974 522.811C278.754 523.167 278.644 523.573 278.644 524.027ZM269.677 516.231V515.44C269.677 514.893 269.789 514.393 270.014 513.938C270.243 513.479 270.575 513.113 271.01 512.839C271.45 512.561 271.982 512.422 272.607 512.422C273.242 512.422 273.775 512.561 274.204 512.839C274.634 513.113 274.959 513.479 275.179 513.938C275.399 514.393 275.508 514.893 275.508 515.44V516.231C275.508 516.779 275.396 517.282 275.171 517.741C274.952 518.195 274.624 518.561 274.19 518.84C273.76 519.113 273.232 519.25 272.607 519.25C271.972 519.25 271.437 519.113 271.003 518.84C270.568 518.561 270.238 518.195 270.014 517.741C269.789 517.282 269.677 516.779 269.677 516.231ZM271.171 515.44V516.231C271.171 516.686 271.279 517.094 271.494 517.455C271.708 517.812 272.08 517.99 272.607 517.99C273.12 517.99 273.481 517.812 273.691 517.455C273.906 517.094 274.014 516.686 274.014 516.231V515.44C274.014 514.986 273.911 514.581 273.706 514.224C273.501 513.863 273.135 513.682 272.607 513.682C272.094 513.682 271.726 513.863 271.501 514.224C271.281 514.581 271.171 514.986 271.171 515.44ZM270.233 527.632L280.549 512.627H282.22L271.904 527.632H270.233Z" fill="#0F172A"/>
<path d="M314.526 517.684L320.421 523.579L326.316 517.684" stroke="#0F172A" stroke-width="1.30994" stroke-linecap="round" stroke-linejoin="round"/>
<rect x="347.158" y="494.579" width="123.526" height="52.1053" rx="8.10526" stroke="#E2E8F0" stroke-width="1.47368"/>
<path d="M367.053 530.456H384.737" stroke="#808A9D" stroke-width="1.47368" stroke-linecap="round" stroke-linejoin="round"/>
<path d="M367.053 510.807H384.737" stroke="#808A9D" stroke-width="1.47368" stroke-linecap="round" stroke-linejoin="round"/>
<path d="M375.895 514.737V526.526" stroke="#808A9D" stroke-width="1.47368" stroke-linecap="round" stroke-linejoin="round"/>
<path d="M378.675 516.427L375.895 513.646L373.115 516.427" stroke="#808A9D" stroke-width="1.47368" stroke-linecap="round" stroke-linejoin="round"/>
<path d="M378.675 524.453L375.895 527.233L373.115 524.453" stroke="#808A9D" stroke-width="1.47368" stroke-linecap="round" stroke-linejoin="round"/>
<path d="M400.026 527.837C398.923 527.837 397.982 527.536 397.206 526.936C396.429 526.33 395.836 525.453 395.425 524.305C395.015 523.153 394.81 521.761 394.81 520.129C394.81 518.508 395.015 517.123 395.425 515.975C395.841 514.822 396.436 513.943 397.213 513.337C397.995 512.727 398.932 512.422 400.026 512.422C401.121 512.422 402.056 512.727 402.833 513.337C403.614 513.943 404.21 514.822 404.62 515.975C405.035 517.123 405.243 518.508 405.243 520.129C405.243 521.761 405.038 523.153 404.628 524.305C404.217 525.453 403.624 526.33 402.847 526.936C402.071 527.536 401.13 527.837 400.026 527.837ZM400.026 526.225C401.121 526.225 401.97 525.697 402.576 524.642C403.182 523.587 403.485 522.083 403.485 520.129C403.485 518.83 403.345 517.724 403.067 516.81C402.793 515.897 402.398 515.201 401.88 514.722C401.367 514.244 400.749 514.004 400.026 514.004C398.942 514.004 398.095 514.539 397.484 515.609C396.874 516.674 396.568 518.18 396.568 520.129C396.568 521.428 396.705 522.532 396.979 523.441C397.252 524.349 397.645 525.04 398.158 525.514C398.676 525.988 399.299 526.225 400.026 526.225Z" fill="#0F172A"/>
<path d="M436.053 517.684L441.947 523.579L447.842 517.684" stroke="#0F172A" stroke-width="1.30994" stroke-linecap="round" stroke-linejoin="round"/>
<rect x="70.1053" y="571.737" width="91.3684" height="49" rx="8.10526" stroke="#E2E8F0" stroke-width="1.47368"/>
<path d="M106.289 602.737H104.229L108.857 589.876H111.099L115.728 602.737H113.668L110.032 592.212H109.931L106.289 602.737ZM106.634 597.7H113.316V599.333H106.634V597.7ZM117.252 602.737V601.443L124.016 591.546H117.196V589.876H126.389V591.169L119.626 601.066H126.446V602.737H117.252Z" fill="#0F172A"/>
<rect x="174.246" y="571.737" width="91.3684" height="49" rx="8.10526" stroke="#E2E8F0" stroke-width="1.47368"/>
<path d="M210.929 602.737H208.87L213.498 589.876H215.74L220.368 602.737H218.308L214.672 592.212H214.572L210.929 602.737ZM211.275 597.7H217.957V599.333H211.275V597.7ZM221.874 602.737V601.449L227.099 594.812V594.724H222.043V593.091H229.441V594.46L224.417 601.016V601.104H229.617V602.737H221.874Z" fill="#0F172A"/>
<rect x="278.386" y="571.737" width="91.3684" height="49" rx="8.10526" stroke="#E2E8F0" stroke-width="1.47368"/>
<path d="M318.14 602.95C317.528 602.95 316.976 602.837 316.482 602.611C315.988 602.381 315.596 602.048 315.307 601.613C315.023 601.177 314.88 600.644 314.88 600.011C314.88 599.467 314.985 599.019 315.194 598.667C315.404 598.316 315.686 598.037 316.042 597.832C316.398 597.627 316.796 597.472 317.235 597.367C317.675 597.263 318.123 597.183 318.579 597.129C319.157 597.062 319.626 597.007 319.986 596.966C320.346 596.92 320.608 596.846 320.771 596.746C320.934 596.645 321.016 596.482 321.016 596.256V596.212C321.016 595.664 320.861 595.239 320.551 594.937C320.246 594.636 319.789 594.485 319.182 594.485C318.55 594.485 318.052 594.625 317.688 594.906C317.327 595.182 317.078 595.49 316.94 595.829L315.176 595.427C315.385 594.841 315.691 594.368 316.092 594.008C316.499 593.644 316.965 593.38 317.493 593.216C318.02 593.049 318.575 592.965 319.157 592.965C319.542 592.965 319.95 593.011 320.382 593.103C320.817 593.191 321.223 593.355 321.6 593.593C321.981 593.832 322.293 594.173 322.536 594.617C322.778 595.056 322.9 595.628 322.9 596.331V602.737H321.066V601.418H320.991C320.869 601.661 320.687 601.899 320.444 602.134C320.202 602.368 319.89 602.563 319.509 602.718C319.128 602.873 318.671 602.95 318.14 602.95ZM318.548 601.443C319.067 601.443 319.511 601.341 319.879 601.135C320.252 600.93 320.534 600.662 320.727 600.332C320.924 599.997 321.022 599.639 321.022 599.258V598.014C320.955 598.081 320.825 598.144 320.633 598.203C320.444 598.257 320.229 598.305 319.986 598.347C319.743 598.385 319.507 598.42 319.276 598.454C319.046 598.483 318.854 598.508 318.699 598.529C318.334 598.575 318.002 598.653 317.7 598.762C317.403 598.87 317.164 599.027 316.984 599.233C316.808 599.434 316.72 599.702 316.72 600.036C316.72 600.501 316.892 600.853 317.235 601.091C317.579 601.326 318.016 601.443 318.548 601.443ZM325.2 602.737V601.449L330.425 594.812V594.724H325.369V593.091H332.767V594.46L327.743 601.016V601.104H332.943V602.737H325.2Z" fill="#0F172A"/>
<rect x="382.526" y="571.737" width="91.3684" height="51.5789" rx="8.10526" stroke="#E2E8F0" stroke-width="1.47368"/>
<path d="M428.211 598.509C428.753 598.509 429.193 598.069 429.193 597.526C429.193 596.984 428.753 596.544 428.211 596.544C427.668 596.544 427.228 596.984 427.228 597.526C427.228 598.069 427.668 598.509 428.211 598.509Z" stroke="#0F172A" stroke-width="1.30994" stroke-linecap="round" stroke-linejoin="round"/>
<path d="M435.088 598.509C435.631 598.509 436.07 598.069 436.07 597.526C436.07 596.984 435.631 596.544 435.088 596.544C434.545 596.544 434.105 596.984 434.105 597.526C434.105 598.069 434.545 598.509 435.088 598.509Z" stroke="#0F172A" stroke-width="1.30994" stroke-linecap="round" stroke-linejoin="round"/>
<path d="M421.334 598.509C421.876 598.509 422.316 598.069 422.316 597.526C422.316 596.984 421.876 596.544 421.334 596.544C420.791 596.544 420.351 596.984 420.351 597.526C420.351 598.069 420.791 598.509 421.334 598.509Z" stroke="#0F172A" stroke-width="1.30994" stroke-linecap="round" stroke-linejoin="round"/>
</g>
<defs>
<filter id="filter0_d_457_15002" x="0.400001" y="0.8" width="520.8" height="692.221" filterUnits="userSpaceOnUse" color-interpolation-filters="sRGB">
<feFlood flood-opacity="0" result="BackgroundImageFix"/>
<feColorMatrix in="SourceAlpha" type="matrix" values="0 0 0 0 0 0 0 0 0 0 0 0 0 0 0 0 0 0 127 0" result="hardAlpha"/>
<feOffset dx="-11.2" dy="11.2"/>
<feGaussianBlur stdDeviation="11.2"/>
<feComposite in2="hardAlpha" operator="out"/>
<feColorMatrix type="matrix" values="0 0 0 0 0 0 0 0 0 0 0 0 0 0 0 0 0 0 0.08 0"/>
<feBlend mode="normal" in2="BackgroundImageFix" result="effect1_dropShadow_457_15002"/>
<feBlend mode="normal" in="SourceGraphic" in2="effect1_dropShadow_457_15002" result="shape"/>
</filter>
</defs>
</svg>
