<svg width="476" height="648" viewBox="0 0 476 648" fill="none" xmlns="http://www.w3.org/2000/svg">
<rect width="476" height="647.421" rx="21.8369" fill="white"/>
<path d="M38.2844 53.3684H35.8813L41.2809 38.3636H43.8965L49.2962 53.3684H46.8931L42.651 41.0891H42.5338L38.2844 53.3684ZM38.6873 47.4925H46.4828V49.3974H38.6873V47.4925ZM53.4778 38.3636V53.3684H51.2872V38.3636H53.4778ZM56.4249 53.3684V42.1148H58.6156V53.3684H56.4249ZM57.5312 40.3784C57.1503 40.3784 56.823 40.2514 56.5495 39.9974C56.2808 39.7386 56.1465 39.4309 56.1465 39.0743C56.1465 38.7129 56.2808 38.4051 56.5495 38.1512C56.823 37.8923 57.1503 37.7628 57.5312 37.7628C57.9122 37.7628 58.237 37.8923 58.5057 38.1512C58.7792 38.4051 58.916 38.7129 58.916 39.0743C58.916 39.4309 58.7792 39.7386 58.5057 39.9974C58.237 40.2514 57.9122 40.3784 57.5312 40.3784ZM66.281 57.823C65.3871 57.823 64.6178 57.7057 63.9731 57.4713C63.3333 57.2368 62.8106 56.9267 62.4052 56.5408C61.9998 56.1549 61.697 55.7324 61.4967 55.2733L63.3797 54.4967C63.5115 54.7116 63.6874 54.9387 63.9072 55.1781C64.1319 55.4223 64.4347 55.6299 64.8157 55.8008C65.2015 55.9718 65.6973 56.0573 66.303 56.0573C67.1333 56.0573 67.8196 55.8546 68.3617 55.4491C68.9039 55.0486 69.175 54.4088 69.175 53.5296V51.317H69.0358C68.9039 51.5563 68.7134 51.8225 68.4643 52.1156C68.2201 52.4086 67.883 52.6626 67.4532 52.8775C67.0234 53.0924 66.4641 53.1999 65.7754 53.1999C64.8865 53.1999 64.0855 52.9923 63.3723 52.5771C62.6641 52.1571 62.1024 51.5392 61.6872 50.7235C61.2769 49.9029 61.0718 48.8943 61.0718 47.6977C61.0718 46.501 61.2745 45.4753 61.6799 44.6205C62.0902 43.7657 62.6519 43.1112 63.365 42.657C64.0781 42.1979 64.8865 41.9683 65.7901 41.9683C66.4886 41.9683 67.0527 42.0855 67.4825 42.32C67.9124 42.5495 68.2469 42.8182 68.4863 43.1259C68.7305 43.4336 68.9185 43.7047 69.0504 43.9391H69.2116V42.1148H71.3583V53.6175C71.3583 54.5846 71.1336 55.3783 70.6842 55.9986C70.2349 56.619 69.6268 57.0781 68.8599 57.376C68.098 57.674 67.2383 57.823 66.281 57.823ZM66.259 51.3829C66.8891 51.3829 67.4215 51.2364 67.8562 50.9433C68.2958 50.6454 68.6279 50.2204 68.8526 49.6685C69.0822 49.1117 69.1969 48.445 69.1969 47.6683C69.1969 46.9113 69.0846 46.2446 68.8599 45.6682C68.6352 45.0918 68.3055 44.6425 67.8708 44.3201C67.4361 43.9929 66.8988 43.8292 66.259 43.8292C65.5996 43.8292 65.0501 44.0002 64.6105 44.3421C64.1709 44.6791 63.8388 45.1382 63.6141 45.7195C63.3943 46.3007 63.2844 46.9503 63.2844 47.6683C63.2844 48.4059 63.3968 49.0531 63.6214 49.6099C63.8461 50.1667 64.1783 50.6014 64.6178 50.914C65.0623 51.2266 65.6094 51.3829 66.259 51.3829ZM76.4869 46.6866V53.3684H74.2962V42.1148H76.3989V43.9465H76.5382C76.797 43.3506 77.2024 42.8719 77.7544 42.5105C78.3112 42.149 79.0121 41.9683 79.8571 41.9683C80.6239 41.9683 81.2955 42.1295 81.8719 42.4518C82.4482 42.7693 82.8952 43.2431 83.2126 43.8732C83.5301 44.5033 83.6889 45.2823 83.6889 46.2104V53.3684H81.4982V46.4741C81.4982 45.6584 81.2858 45.021 80.8608 44.5619C80.4359 44.0979 79.8522 43.8659 79.1098 43.8659C78.6018 43.8659 78.15 43.9758 77.7544 44.1956C77.3636 44.4154 77.0535 44.7377 76.8239 45.1627C76.5992 45.5827 76.4869 46.0907 76.4869 46.6866ZM86.6268 53.3684V42.1148H88.7295V43.9465H88.8687C89.1032 43.3261 89.4866 42.8426 90.019 42.4958C90.5514 42.1441 91.1888 41.9683 91.9312 41.9683C92.6834 41.9683 93.3135 42.1441 93.8215 42.4958C94.3344 42.8475 94.7129 43.331 94.9571 43.9465H95.0743C95.343 43.3457 95.7704 42.867 96.3565 42.5105C96.9426 42.149 97.6411 41.9683 98.4519 41.9683C99.4727 41.9683 100.305 42.2882 100.95 42.9281C101.6 43.5679 101.925 44.5326 101.925 45.8221V53.3684H99.734V46.0272C99.734 45.2652 99.5264 44.7133 99.1113 44.3714C98.6961 44.0295 98.2003 43.8585 97.624 43.8585C96.9109 43.8585 96.3565 44.0783 95.9609 44.5179C95.5652 44.9526 95.3674 45.5119 95.3674 46.1957V53.3684H93.1841V45.888C93.1841 45.2774 92.9936 44.7866 92.6126 44.4154C92.2316 44.0441 91.7359 43.8585 91.1253 43.8585C90.7102 43.8585 90.3267 43.9684 89.9751 44.1882C89.6283 44.4031 89.3474 44.7035 89.1325 45.0894C88.9225 45.4753 88.8175 45.9222 88.8175 46.4302V53.3684H86.6268ZM109.711 53.5955C108.602 53.5955 107.647 53.3586 106.846 52.8849C106.05 52.4062 105.435 51.7346 105 50.8701C104.57 50.0006 104.355 48.9822 104.355 47.8149C104.355 46.6622 104.57 45.6462 105 44.767C105.435 43.8878 106.04 43.2016 106.817 42.7083C107.598 42.2149 108.512 41.9683 109.557 41.9683C110.192 41.9683 110.808 42.0733 111.403 42.2833C111.999 42.4934 112.534 42.8231 113.008 43.2724C113.482 43.7218 113.855 44.3055 114.129 45.0235C114.402 45.7366 114.539 46.6036 114.539 47.6244V48.401H105.593V46.7599H112.392C112.392 46.1835 112.275 45.6731 112.041 45.2286C111.806 44.7792 111.477 44.4251 111.052 44.1663C110.632 43.9074 110.138 43.7779 109.572 43.7779C108.956 43.7779 108.419 43.9294 107.96 44.2322C107.506 44.5301 107.154 44.9209 106.905 45.4044C106.661 45.8831 106.539 46.4033 106.539 46.965V48.2471C106.539 48.9993 106.67 49.6392 106.934 50.1667C107.203 50.6942 107.576 51.0972 108.055 51.3756C108.534 51.6491 109.093 51.7859 109.733 51.7859C110.148 51.7859 110.527 51.7273 110.869 51.61C111.21 51.4879 111.506 51.3072 111.755 51.0679C112.004 50.8285 112.195 50.533 112.327 50.1814L114.4 50.555C114.234 51.1656 113.936 51.7004 113.506 52.1595C113.081 52.6138 112.546 52.9679 111.902 53.2219C111.262 53.471 110.532 53.5955 109.711 53.5955ZM119.16 46.6866V53.3684H116.97V42.1148H119.072V43.9465H119.212C119.471 43.3506 119.876 42.8719 120.428 42.5105C120.985 42.149 121.686 41.9683 122.531 41.9683C123.297 41.9683 123.969 42.1295 124.545 42.4518C125.122 42.7693 125.569 43.2431 125.886 43.8732C126.204 44.5033 126.362 45.2823 126.362 46.2104V53.3684H124.172V46.4741C124.172 45.6584 123.959 45.021 123.534 44.5619C123.109 44.0979 122.526 43.8659 121.783 43.8659C121.275 43.8659 120.824 43.9758 120.428 44.1956C120.037 44.4154 119.727 44.7377 119.497 45.1627C119.273 45.5827 119.16 46.0907 119.16 46.6866ZM134.553 42.1148V43.8732H128.406V42.1148H134.553ZM130.055 39.4186H132.246V50.0641C132.246 50.4891 132.309 50.809 132.436 51.0239C132.563 51.2339 132.727 51.378 132.927 51.4562C133.132 51.5294 133.354 51.5661 133.594 51.5661C133.77 51.5661 133.923 51.5539 134.055 51.5294C134.187 51.505 134.29 51.4855 134.363 51.4708L134.759 53.2805C134.632 53.3293 134.451 53.3782 134.216 53.427C133.982 53.4807 133.689 53.5101 133.337 53.5149C132.761 53.5247 132.224 53.4221 131.725 53.2072C131.227 52.9923 130.824 52.6602 130.517 52.2108C130.209 51.7615 130.055 51.1973 130.055 50.5184V39.4186Z" fill="#0F172A"/>
<path d="M51.7263 117.158H69.1158C71.3263 117.158 72.2105 116.215 72.2105 113.871V112.339C72.2105 109.996 71.3263 109.052 69.1158 109.052H51.7263" stroke="#808A9D" stroke-width="2.21053" stroke-linecap="round" stroke-linejoin="round"/>
<path d="M51.7263 96.5261H61.7474C63.9579 96.5261 64.8421 97.4693 64.8421 99.8124V101.345C64.8421 103.688 63.9579 104.631 61.7474 104.631H51.7263" stroke="#808A9D" stroke-width="2.21053" stroke-linecap="round" stroke-linejoin="round"/>
<path d="M51.5789 91.7219V121.196" stroke="#808A9D" stroke-width="2.21053" stroke-linecap="round" stroke-linejoin="round"/>
<path d="M140.295 117.158H124.379C122.168 117.158 121.284 116.215 121.284 113.871V112.339C121.284 109.996 122.168 109.052 124.379 109.052H140.295C142.505 109.052 143.389 109.996 143.389 112.339V113.871C143.389 116.215 142.505 117.158 140.295 117.158Z" stroke="#808A9D" stroke-width="2.21053" stroke-linecap="round" stroke-linejoin="round"/>
<path d="M137.347 104.631H127.326C125.116 104.631 124.231 103.688 124.231 101.345V99.8124C124.231 97.4693 125.116 96.5261 127.326 96.5261H137.347C139.558 96.5261 140.442 97.4693 140.442 99.8124V101.345C140.442 103.688 139.558 104.631 137.347 104.631Z" stroke="#808A9D" stroke-width="2.21053" stroke-linecap="round" stroke-linejoin="round"/>
<path d="M132.337 121.21V117.674" stroke="#808A9D" stroke-width="2.21053" stroke-linecap="round" stroke-linejoin="round"/>
<path d="M132.337 107.947V105" stroke="#808A9D" stroke-width="2.21053" stroke-linecap="round" stroke-linejoin="round"/>
<path d="M132.337 91.7366V95.7008" stroke="#808A9D" stroke-width="2.21053" stroke-linecap="round" stroke-linejoin="round"/>
<path d="M212.947 117.158H195.558C193.347 117.158 192.463 116.215 192.463 113.871V112.339C192.463 109.996 193.347 109.052 195.558 109.052H212.947" stroke="#808A9D" stroke-width="2.21053" stroke-linecap="round" stroke-linejoin="round"/>
<path d="M212.947 96.5261H202.926C200.716 96.5261 199.832 97.4693 199.832 99.8124V101.345C199.832 103.688 200.716 104.631 202.926 104.631H212.947" stroke="#808A9D" stroke-width="2.21053" stroke-linecap="round" stroke-linejoin="round"/>
<path d="M213.095 91.7219V121.196" stroke="#808A9D" stroke-width="2.21053" stroke-linecap="round" stroke-linejoin="round"/>
<path d="M283.92 96.3052V113.695C283.92 115.905 282.977 116.789 280.634 116.789H279.101C276.758 116.789 275.815 115.905 275.815 113.695V96.3052" stroke="#808A9D" stroke-width="2.21053" stroke-linecap="round" stroke-linejoin="round"/>
<path d="M263.289 96.3052V106.326C263.289 108.537 264.232 109.421 266.575 109.421H268.108C270.451 109.421 271.394 108.537 271.394 106.326V96.3052" stroke="#808A9D" stroke-width="2.21053" stroke-linecap="round" stroke-linejoin="round"/>
<path d="M258.484 96.1577H287.958" stroke="#808A9D" stroke-width="2.21053" stroke-linecap="round" stroke-linejoin="round"/>
<path d="M332.979 114.431V98.5156C332.979 96.3051 333.922 95.4209 336.265 95.4209H337.797C340.141 95.4209 341.084 96.3051 341.084 98.5156V114.431C341.084 116.642 340.141 117.526 337.797 117.526H336.265C333.922 117.526 332.979 116.642 332.979 114.431Z" stroke="#808A9D" stroke-width="2.21053" stroke-linecap="round" stroke-linejoin="round"/>
<path d="M345.505 111.484V101.463C345.505 99.2524 346.448 98.3682 348.791 98.3682H350.324C352.667 98.3682 353.61 99.2524 353.61 101.463V111.484C353.61 113.694 352.667 114.579 350.324 114.579H348.791C346.448 114.579 345.505 113.694 345.505 111.484Z" stroke="#808A9D" stroke-width="2.21053" stroke-linecap="round" stroke-linejoin="round"/>
<path d="M328.926 106.474H332.463" stroke="#808A9D" stroke-width="2.21053" stroke-linecap="round" stroke-linejoin="round"/>
<path d="M342.189 106.474H345.136" stroke="#808A9D" stroke-width="2.21053" stroke-linecap="round" stroke-linejoin="round"/>
<path d="M358.4 106.474H354.436" stroke="#808A9D" stroke-width="2.21053" stroke-linecap="round" stroke-linejoin="round"/>
<path d="M424.804 116.642V99.2525C424.804 97.0419 423.861 96.1577 421.518 96.1577H419.985C417.642 96.1577 416.699 97.0419 416.699 99.2525V116.642" stroke="#808A9D" stroke-width="2.21053" stroke-linecap="round" stroke-linejoin="round"/>
<path d="M404.173 116.642V106.621C404.173 104.41 405.116 103.526 407.459 103.526H408.992C411.335 103.526 412.278 104.41 412.278 106.621V116.642" stroke="#808A9D" stroke-width="2.21053" stroke-linecap="round" stroke-linejoin="round"/>
<path d="M399.368 116.789H428.842" stroke="#808A9D" stroke-width="2.21053" stroke-linecap="round" stroke-linejoin="round"/>
<line x1="36.842" y1="149.947" x2="440.632" y2="149.947" stroke="#E2E8F0" stroke-width="1.47368"/>
<path d="M36.2769 195.234V193.285H47.8895V195.234H43.2078V208.29H40.9512V195.234H36.2769ZM50.375 212.51C50.0478 212.51 49.7498 212.483 49.4812 212.429C49.2125 212.38 49.0123 212.326 48.8804 212.268L49.4079 210.473C49.8084 210.58 50.165 210.627 50.4776 210.612C50.7902 210.597 51.0662 210.48 51.3055 210.26C51.5497 210.041 51.7646 209.682 51.9502 209.183L52.2213 208.436L48.1038 197.036H50.4483L53.2983 205.769H53.4155L56.2656 197.036H58.6174L53.9797 209.791C53.7648 210.378 53.4913 210.873 53.1591 211.279C52.827 211.689 52.4313 211.997 51.9722 212.202C51.5131 212.407 50.9807 212.51 50.375 212.51ZM60.6762 212.51V197.036H62.8155V198.86H62.9987C63.1257 198.626 63.3088 198.355 63.5482 198.047C63.7875 197.739 64.1196 197.471 64.5446 197.241C64.9695 197.007 65.5312 196.889 66.2297 196.889C67.1382 196.889 67.949 197.119 68.6621 197.578C69.3752 198.037 69.9345 198.699 70.3399 199.564C70.7502 200.428 70.9553 201.469 70.9553 202.685C70.9553 203.901 70.7526 204.944 70.3472 205.813C69.9418 206.678 69.385 207.344 68.6768 207.813C67.9685 208.277 67.1602 208.509 66.2517 208.509C65.5679 208.509 65.0086 208.395 64.5739 208.165C64.1441 207.935 63.807 207.667 63.5628 207.359C63.3186 207.051 63.1306 206.778 62.9987 206.539H62.8668V212.51H60.6762ZM62.8228 202.663C62.8228 203.454 62.9376 204.148 63.1672 204.743C63.3968 205.339 63.7289 205.806 64.1636 206.143C64.5983 206.475 65.1307 206.641 65.7608 206.641C66.4153 206.641 66.9623 206.468 67.4019 206.121C67.8415 205.769 68.1737 205.293 68.3983 204.692C68.6279 204.091 68.7427 203.415 68.7427 202.663C68.7427 201.92 68.6304 201.254 68.4057 200.663C68.1859 200.072 67.8537 199.605 67.4093 199.263C66.9697 198.921 66.4202 198.75 65.7608 198.75C65.1258 198.75 64.5885 198.914 64.1489 199.241C63.7142 199.569 63.3845 200.025 63.1599 200.611C62.9352 201.197 62.8228 201.881 62.8228 202.663ZM78.15 208.517C77.095 208.517 76.1743 208.275 75.3879 207.791C74.6015 207.308 73.991 206.631 73.5562 205.762C73.1215 204.892 72.9042 203.877 72.9042 202.714C72.9042 201.547 73.1215 200.526 73.5562 199.652C73.991 198.777 74.6015 198.098 75.3879 197.615C76.1743 197.131 77.095 196.889 78.15 196.889C79.205 196.889 80.1257 197.131 80.9121 197.615C81.6985 198.098 82.309 198.777 82.7437 199.652C83.1785 200.526 83.3958 201.547 83.3958 202.714C83.3958 203.877 83.1785 204.892 82.7437 205.762C82.309 206.631 81.6985 207.308 80.9121 207.791C80.1257 208.275 79.205 208.517 78.15 208.517ZM78.1573 206.678C78.8411 206.678 79.4077 206.497 79.8571 206.136C80.3064 205.774 80.6386 205.293 80.8535 204.692C81.0733 204.091 81.1832 203.43 81.1832 202.707C81.1832 201.989 81.0733 201.329 80.8535 200.729C80.6386 200.123 80.3064 199.637 79.8571 199.271C79.4077 198.904 78.8411 198.721 78.1573 198.721C77.4686 198.721 76.8972 198.904 76.4429 199.271C75.9935 199.637 75.659 200.123 75.4392 200.729C75.2243 201.329 75.1168 201.989 75.1168 202.707C75.1168 203.43 75.2243 204.091 75.4392 204.692C75.659 205.293 75.9935 205.774 76.4429 206.136C76.8972 206.497 77.4686 206.678 78.1573 206.678ZM90.5593 212.744C89.6655 212.744 88.8962 212.627 88.2515 212.392C87.6116 212.158 87.089 211.848 86.6836 211.462C86.2782 211.076 85.9754 210.654 85.7751 210.194L87.658 209.418C87.7899 209.633 87.9657 209.86 88.1855 210.099C88.4102 210.343 88.7131 210.551 89.094 210.722C89.4799 210.893 89.9757 210.978 90.5813 210.978C91.4117 210.978 92.0979 210.776 92.6401 210.37C93.1823 209.97 93.4533 209.33 93.4533 208.451V206.238H93.3141C93.1823 206.477 92.9918 206.744 92.7427 207.037C92.4984 207.33 92.1614 207.584 91.7316 207.799C91.3018 208.014 90.7425 208.121 90.0538 208.121C89.1649 208.121 88.3638 207.913 87.6507 207.498C86.9425 207.078 86.3808 206.46 85.9656 205.645C85.5553 204.824 85.3502 203.815 85.3502 202.619C85.3502 201.422 85.5529 200.396 85.9583 199.542C86.3686 198.687 86.9303 198.032 87.6434 197.578C88.3565 197.119 89.1649 196.889 90.0685 196.889C90.7669 196.889 91.3311 197.007 91.7609 197.241C92.1907 197.471 92.5253 197.739 92.7646 198.047C93.0089 198.355 93.1969 198.626 93.3288 198.86H93.49V197.036H95.6367V208.539C95.6367 209.506 95.412 210.299 94.9626 210.92C94.5132 211.54 93.9051 211.999 93.1383 212.297C92.3763 212.595 91.5167 212.744 90.5593 212.744ZM90.5374 206.304C91.1675 206.304 91.6998 206.158 92.1346 205.864C92.5741 205.567 92.9063 205.142 93.131 204.59C93.3605 204.033 93.4753 203.366 93.4753 202.589C93.4753 201.832 93.363 201.166 93.1383 200.589C92.9136 200.013 92.5839 199.564 92.1492 199.241C91.7145 198.914 91.1772 198.75 90.5374 198.75C89.878 198.75 89.3285 198.921 88.8889 199.263C88.4493 199.6 88.1172 200.059 87.8925 200.641C87.6727 201.222 87.5628 201.871 87.5628 202.589C87.5628 203.327 87.6751 203.974 87.8998 204.531C88.1245 205.088 88.4566 205.523 88.8962 205.835C89.3407 206.148 89.8877 206.304 90.5374 206.304ZM98.5746 208.29V197.036H100.692V198.824H100.809C101.014 198.218 101.376 197.742 101.894 197.395C102.416 197.043 103.007 196.867 103.667 196.867C103.803 196.867 103.964 196.872 104.15 196.882C104.341 196.892 104.49 196.904 104.597 196.919V199.014C104.509 198.99 104.353 198.963 104.128 198.934C103.903 198.899 103.679 198.882 103.454 198.882C102.936 198.882 102.475 198.992 102.069 199.212C101.669 199.427 101.351 199.727 101.117 200.113C100.882 200.494 100.765 200.929 100.765 201.417V208.29H98.5746ZM109.667 208.539C108.954 208.539 108.309 208.407 107.733 208.143C107.156 207.874 106.7 207.486 106.363 206.978C106.031 206.47 105.865 205.847 105.865 205.11C105.865 204.475 105.987 203.952 106.231 203.542C106.475 203.132 106.805 202.807 107.22 202.568C107.635 202.328 108.099 202.147 108.612 202.025C109.125 201.903 109.647 201.81 110.18 201.747C110.854 201.669 111.401 201.605 111.821 201.556C112.241 201.503 112.546 201.417 112.737 201.3C112.927 201.183 113.023 200.992 113.023 200.729V200.677C113.023 200.037 112.842 199.542 112.48 199.19C112.124 198.838 111.591 198.662 110.883 198.662C110.146 198.662 109.564 198.826 109.139 199.153C108.719 199.476 108.429 199.835 108.268 200.23L106.209 199.761C106.453 199.078 106.81 198.526 107.279 198.106C107.752 197.681 108.297 197.373 108.912 197.182C109.528 196.987 110.175 196.889 110.854 196.889C111.303 196.889 111.779 196.943 112.283 197.051C112.791 197.153 113.264 197.344 113.704 197.622C114.148 197.9 114.512 198.299 114.796 198.816C115.079 199.329 115.221 199.996 115.221 200.816V208.29H113.081V206.751H112.993C112.852 207.034 112.639 207.313 112.356 207.586C112.073 207.86 111.709 208.087 111.264 208.268C110.82 208.448 110.287 208.539 109.667 208.539ZM110.143 206.78C110.749 206.78 111.267 206.661 111.696 206.421C112.131 206.182 112.461 205.869 112.686 205.483C112.915 205.093 113.03 204.675 113.03 204.231V202.78C112.952 202.858 112.8 202.931 112.576 203C112.356 203.063 112.104 203.119 111.821 203.168C111.538 203.212 111.262 203.254 110.993 203.293C110.724 203.327 110.5 203.356 110.319 203.381C109.894 203.434 109.506 203.525 109.154 203.652C108.807 203.779 108.529 203.962 108.319 204.201C108.114 204.436 108.011 204.748 108.011 205.139C108.011 205.681 108.211 206.092 108.612 206.37C109.012 206.644 109.523 206.78 110.143 206.78ZM118.138 212.51V197.036H120.278V198.86H120.461C120.588 198.626 120.771 198.355 121.01 198.047C121.25 197.739 121.582 197.471 122.007 197.241C122.432 197.007 122.993 196.889 123.692 196.889C124.6 196.889 125.411 197.119 126.124 197.578C126.837 198.037 127.397 198.699 127.802 199.564C128.212 200.428 128.417 201.469 128.417 202.685C128.417 203.901 128.215 204.944 127.809 205.813C127.404 206.678 126.847 207.344 126.139 207.813C125.431 208.277 124.622 208.509 123.714 208.509C123.03 208.509 122.471 208.395 122.036 208.165C121.606 207.935 121.269 207.667 121.025 207.359C120.781 207.051 120.593 206.778 120.461 206.539H120.329V212.51H118.138ZM120.285 202.663C120.285 203.454 120.4 204.148 120.629 204.743C120.859 205.339 121.191 205.806 121.626 206.143C122.06 206.475 122.593 206.641 123.223 206.641C123.877 206.641 124.425 206.468 124.864 206.121C125.304 205.769 125.636 205.293 125.861 204.692C126.09 204.091 126.205 203.415 126.205 202.663C126.205 201.92 126.093 201.254 125.868 200.663C125.648 200.072 125.316 199.605 124.871 199.263C124.432 198.921 123.882 198.75 123.223 198.75C122.588 198.75 122.051 198.914 121.611 199.241C121.176 199.569 120.847 200.025 120.622 200.611C120.397 201.197 120.285 201.881 120.285 202.663ZM133.063 201.608V208.29H130.872V193.285H133.033V198.868H133.172C133.436 198.262 133.839 197.781 134.381 197.424C134.923 197.068 135.632 196.889 136.506 196.889C137.278 196.889 137.952 197.048 138.528 197.366C139.109 197.683 139.559 198.157 139.876 198.787C140.199 199.412 140.36 200.194 140.36 201.132V208.29H138.169V201.395C138.169 200.57 137.957 199.93 137.532 199.476C137.107 199.017 136.516 198.787 135.759 198.787C135.241 198.787 134.777 198.897 134.367 199.117C133.961 199.337 133.641 199.659 133.407 200.084C133.177 200.504 133.063 201.012 133.063 201.608ZM144.265 212.51C143.938 212.51 143.64 212.483 143.371 212.429C143.102 212.38 142.902 212.326 142.77 212.268L143.298 210.473C143.698 210.58 144.055 210.627 144.367 210.612C144.68 210.597 144.956 210.48 145.195 210.26C145.44 210.041 145.654 209.682 145.84 209.183L146.111 208.436L141.994 197.036H144.338L147.188 205.769H147.305L150.155 197.036H152.507L147.869 209.791C147.655 210.378 147.381 210.873 147.049 211.279C146.717 211.689 146.321 211.997 145.862 212.202C145.403 212.407 144.87 212.51 144.265 212.51Z" fill="#0F172A"/>
<path d="M433.263 204.474L425.895 197.105L418.526 204.474" stroke="#94A3B8" stroke-width="2.45614" stroke-linecap="round" stroke-linejoin="round"/>
<rect x="36.1053" y="251.632" width="403.789" height="52.1053" rx="8.10526" fill="#F8FAFC"/>
<rect x="36.1053" y="251.632" width="403.789" height="52.1053" rx="8.10526" stroke="#333333" stroke-width="1.47368"/>
<path d="M56.6867 269.679V284.684H54.8697V269.679H56.6867ZM61.8245 277.914V284.684H60.0954V273.43H61.7658V275.189H61.9124C62.1761 274.617 62.5766 274.158 63.1139 273.811C63.6512 273.46 64.3448 273.284 65.1947 273.284C65.9566 273.284 66.6233 273.44 67.1948 273.753C67.7663 274.061 68.2108 274.529 68.5282 275.16C68.8457 275.785 69.0045 276.576 69.0045 277.533V284.684H67.2754V277.651C67.2754 276.767 67.0458 276.078 66.5867 275.585C66.1276 275.086 65.4975 274.837 64.6965 274.837C64.1445 274.837 63.6512 274.957 63.2165 275.196C62.7867 275.436 62.4472 275.785 62.1981 276.244C61.949 276.703 61.8245 277.26 61.8245 277.914ZM77.0582 273.43V274.896H71.2263V273.43H77.0582ZM72.926 270.734H74.6551V281.46C74.6551 281.949 74.7259 282.315 74.8676 282.559C75.0141 282.799 75.1997 282.96 75.4244 283.043C75.6539 283.121 75.8957 283.16 76.1497 283.16C76.3402 283.16 76.4965 283.15 76.6186 283.131C76.7407 283.106 76.8384 283.087 76.9117 283.072L77.2633 284.625C77.1461 284.669 76.9825 284.713 76.7725 284.757C76.5624 284.806 76.2962 284.831 75.9739 284.831C75.4854 284.831 75.0068 284.726 74.5379 284.516C74.0738 284.306 73.688 283.986 73.3803 283.556C73.0774 283.126 72.926 282.584 72.926 281.929V270.734ZM84.2565 284.919C83.1722 284.919 82.2368 284.679 81.4505 284.201C80.669 283.717 80.0657 283.043 79.6408 282.178C79.2207 281.309 79.0107 280.298 79.0107 279.145C79.0107 277.992 79.2207 276.977 79.6408 276.097C80.0657 275.213 80.6568 274.525 81.4138 274.031C82.1758 273.533 83.0647 273.284 84.0807 273.284C84.6668 273.284 85.2456 273.382 85.8171 273.577C86.3886 273.772 86.9087 274.09 87.3776 274.529C87.8465 274.964 88.2202 275.541 88.4986 276.259C88.777 276.977 88.9162 277.861 88.9162 278.911V279.643H80.2416V278.149H87.1578C87.1578 277.514 87.0309 276.947 86.7769 276.449C86.5278 275.951 86.1712 275.558 85.7072 275.269C85.2481 274.981 84.7059 274.837 84.0807 274.837C83.392 274.837 82.7961 275.008 82.293 275.35C81.7948 275.687 81.4114 276.127 81.1427 276.669C80.8741 277.211 80.7398 277.792 80.7398 278.413V279.409C80.7398 280.259 80.8863 280.979 81.1794 281.57C81.4773 282.156 81.8901 282.603 82.4176 282.911C82.9451 283.214 83.5581 283.365 84.2565 283.365C84.7108 283.365 85.1211 283.302 85.4874 283.175C85.8586 283.043 86.1785 282.848 86.4472 282.589C86.7158 282.325 86.9234 281.998 87.0699 281.607L88.7404 282.076C88.5645 282.642 88.269 283.141 87.8539 283.57C87.4387 283.995 86.9258 284.328 86.3153 284.567C85.7047 284.801 85.0185 284.919 84.2565 284.919ZM91.5465 284.684V273.43H93.2169V275.13H93.3341C93.5393 274.573 93.9105 274.122 94.4478 273.775C94.985 273.428 95.5907 273.255 96.2648 273.255C96.3917 273.255 96.5505 273.257 96.741 273.262C96.9315 273.267 97.0756 273.274 97.1732 273.284V275.042C97.1146 275.028 96.9803 275.006 96.7703 274.976C96.5651 274.942 96.3478 274.925 96.1182 274.925C95.5712 274.925 95.0827 275.04 94.6529 275.269C94.228 275.494 93.891 275.807 93.6418 276.207C93.3976 276.603 93.2755 277.055 93.2755 277.563V284.684H91.5465Z" fill="#0F172A"/>
<path d="M405.263 274.737L411.158 280.632L417.053 274.737" stroke="#475569" stroke-width="1.30994" stroke-linecap="round" stroke-linejoin="round"/>
<rect x="35.3684" y="328.053" width="196" height="53.5789" rx="8.8421" fill="#F8FAFC"/>
<path d="M54.8697 346.838H57.0384L62.1377 359.293H62.3135L67.4128 346.838H69.5814V361.842H67.8817V350.442H67.7352L63.0462 361.842H61.405L56.716 350.442H56.5695V361.842H54.8697V346.838ZM77.7084 362.077C76.6241 362.077 75.6887 361.837 74.9024 361.359C74.1209 360.875 73.5176 360.201 73.0927 359.337C72.6726 358.467 72.4626 357.456 72.4626 356.303C72.4626 355.151 72.6726 354.135 73.0927 353.256C73.5176 352.371 74.1086 351.683 74.8657 351.189C75.6277 350.691 76.5166 350.442 77.5326 350.442C78.1187 350.442 78.6975 350.54 79.269 350.735C79.8405 350.931 80.3606 351.248 80.8295 351.688C81.2984 352.122 81.6721 352.699 81.9505 353.417C82.2289 354.135 82.3681 355.019 82.3681 356.069V356.802H73.6935V355.307H80.6097C80.6097 354.672 80.4827 354.105 80.2288 353.607C79.9797 353.109 79.6231 352.716 79.1591 352.428C78.6999 352.139 78.1578 351.995 77.5326 351.995C76.8439 351.995 76.248 352.166 75.7449 352.508C75.2467 352.845 74.8633 353.285 74.5946 353.827C74.326 354.369 74.1917 354.95 74.1917 355.571V356.567C74.1917 357.417 74.3382 358.137 74.6313 358.728C74.9292 359.315 75.3419 359.762 75.8695 360.069C76.397 360.372 77.01 360.524 77.7084 360.524C78.1627 360.524 78.573 360.46 78.9393 360.333C79.3105 360.201 79.6304 360.006 79.8991 359.747C80.1677 359.483 80.3753 359.156 80.5218 358.765L82.1923 359.234C82.0164 359.801 81.7209 360.299 81.3058 360.729C80.8906 361.154 80.3777 361.486 79.7672 361.725C79.1566 361.96 78.4704 362.077 77.7084 362.077ZM89.2477 362.077C88.3099 362.077 87.482 361.84 86.764 361.366C86.046 360.887 85.4843 360.213 85.0789 359.344C84.6735 358.47 84.4708 357.437 84.4708 356.245C84.4708 355.063 84.6735 354.037 85.0789 353.168C85.4843 352.298 86.0485 351.627 86.7714 351.153C87.4943 350.679 88.3295 350.442 89.2771 350.442C90.0097 350.442 90.5885 350.564 91.0134 350.808C91.4433 351.048 91.7705 351.321 91.9952 351.629C92.2248 351.932 92.4031 352.181 92.53 352.376H92.6766V346.838H94.4056V361.842H92.7352V360.113H92.53C92.4031 360.318 92.2223 360.577 91.9879 360.89C91.7534 361.198 91.4188 361.474 90.9841 361.718C90.5494 361.957 89.9706 362.077 89.2477 362.077ZM89.4822 360.524C90.1758 360.524 90.7619 360.343 91.2406 359.981C91.7192 359.615 92.0831 359.109 92.3322 358.465C92.5813 357.815 92.7059 357.065 92.7059 356.215C92.7059 355.375 92.5838 354.64 92.3396 354.01C92.0953 353.375 91.7339 352.882 91.2552 352.53C90.7766 352.174 90.1855 351.995 89.4822 351.995C88.7495 351.995 88.139 352.183 87.6506 352.56C87.167 352.931 86.8031 353.436 86.5589 354.076C86.3196 354.711 86.1999 355.424 86.1999 356.215C86.1999 357.017 86.322 357.744 86.5662 358.399C86.8153 359.048 87.1817 359.566 87.6652 359.952C88.1536 360.333 88.7593 360.524 89.4822 360.524ZM97.8125 361.842V350.589H99.5416V361.842H97.8125ZM98.6917 348.713C98.3547 348.713 98.064 348.598 97.8198 348.369C97.5805 348.139 97.4608 347.863 97.4608 347.541C97.4608 347.218 97.5805 346.943 97.8198 346.713C98.064 346.483 98.3547 346.369 98.6917 346.369C99.0287 346.369 99.3169 346.483 99.5562 346.713C99.8004 346.943 99.9225 347.218 99.9225 347.541C99.9225 347.863 99.8004 348.139 99.5562 348.369C99.3169 348.598 99.0287 348.713 98.6917 348.713ZM109.801 357.241V350.589H111.53V361.842H109.801V359.937H109.683C109.42 360.509 109.009 360.995 108.452 361.395C107.896 361.791 107.192 361.989 106.342 361.989C105.639 361.989 105.014 361.835 104.467 361.527C103.92 361.215 103.49 360.746 103.177 360.121C102.865 359.49 102.708 358.697 102.708 357.739V350.589H104.438V357.622C104.438 358.443 104.667 359.097 105.126 359.586C105.59 360.074 106.181 360.318 106.899 360.318C107.329 360.318 107.766 360.208 108.211 359.989C108.66 359.769 109.036 359.432 109.339 358.978C109.647 358.523 109.801 357.945 109.801 357.241ZM114.697 361.842V350.589H116.367V352.347H116.514C116.748 351.746 117.127 351.28 117.649 350.948C118.172 350.611 118.799 350.442 119.532 350.442C120.274 350.442 120.892 350.611 121.386 350.948C121.884 351.28 122.272 351.746 122.551 352.347H122.668C122.956 351.766 123.388 351.304 123.965 350.962C124.541 350.616 125.232 350.442 126.038 350.442C127.044 350.442 127.867 350.757 128.507 351.387C129.147 352.012 129.467 352.987 129.467 354.311V361.842H127.738V354.311C127.738 353.48 127.511 352.887 127.056 352.53C126.602 352.174 126.067 351.995 125.452 351.995C124.661 351.995 124.048 352.235 123.613 352.713C123.178 353.187 122.961 353.788 122.961 354.516V361.842H121.203V354.135C121.203 353.495 120.995 352.98 120.58 352.589C120.165 352.193 119.63 351.995 118.975 351.995C118.526 351.995 118.106 352.115 117.715 352.354C117.329 352.594 117.017 352.926 116.777 353.351C116.543 353.771 116.426 354.257 116.426 354.809V361.842H114.697Z" fill="#0F172A"/>
<path d="M196 351.895L201.895 357.79L207.789 351.895" stroke="#475569" stroke-width="1.30994" stroke-linecap="round" stroke-linejoin="round"/>
<rect x="243.158" y="328.053" width="196" height="53.5789" rx="8.8421" fill="#F8FAFC"/>
<path d="M262.396 361.842V360.524L267.348 355.102C267.93 354.467 268.408 353.915 268.784 353.446C269.16 352.972 269.439 352.528 269.619 352.113C269.805 351.693 269.898 351.253 269.898 350.794C269.898 350.266 269.771 349.81 269.517 349.424C269.268 349.038 268.926 348.74 268.491 348.53C268.056 348.32 267.568 348.215 267.026 348.215C266.45 348.215 265.946 348.335 265.517 348.574C265.092 348.808 264.762 349.138 264.528 349.563C264.298 349.988 264.183 350.486 264.183 351.058H262.454C262.454 350.178 262.657 349.407 263.062 348.742C263.468 348.078 264.02 347.56 264.718 347.189C265.421 346.818 266.21 346.632 267.085 346.632C267.964 346.632 268.743 346.818 269.422 347.189C270.101 347.56 270.633 348.061 271.019 348.691C271.405 349.321 271.598 350.022 271.598 350.794C271.598 351.346 271.498 351.885 271.297 352.413C271.102 352.936 270.76 353.519 270.272 354.164C269.788 354.804 269.116 355.585 268.257 356.509L264.887 360.113V360.23H271.861V361.842H262.396ZM274.213 358.765V357.271L280.807 346.838H281.891V349.153H281.159L276.177 357.036V357.153H285.057V358.765H274.213ZM281.276 361.842V358.311V357.615V346.838H283.005V361.842H281.276Z" fill="#0F172A"/>
<path d="M403.79 351.895L409.684 357.79L415.579 351.895" stroke="#475569" stroke-width="1.30994" stroke-linecap="round" stroke-linejoin="round"/>
<rect x="36.1053" y="405.947" width="91.3684" height="51.5789" rx="8.10526" stroke="#E2E8F0" stroke-width="1.47368"/>
<path d="M90.6315 425.842H72.9473" stroke="#0F172A" stroke-width="1.30994" stroke-linecap="round" stroke-linejoin="round"/>
<path d="M84.7367 431.737H72.9473" stroke="#0F172A" stroke-width="1.30994" stroke-linecap="round" stroke-linejoin="round"/>
<path d="M86.7017 437.632H72.9473" stroke="#0F172A" stroke-width="1.30994" stroke-linecap="round" stroke-linejoin="round"/>
<rect x="140.246" y="405.947" width="91.3684" height="51.5789" rx="8.10526" stroke="#E2E8F0" stroke-width="1.47368"/>
<path d="M194.772 425.842H177.088" stroke="#0F172A" stroke-width="1.30994" stroke-linecap="round" stroke-linejoin="round"/>
<path d="M190.842 431.737H181.018" stroke="#0F172A" stroke-width="1.30994" stroke-linecap="round" stroke-linejoin="round"/>
<path d="M192.807 437.632H179.053" stroke="#0F172A" stroke-width="1.30994" stroke-linecap="round" stroke-linejoin="round"/>
<rect x="244.386" y="405.947" width="91.3684" height="51.5789" rx="8.10526" stroke="#E2E8F0" stroke-width="1.47368"/>
<path d="M298.912 425.842H281.228" stroke="#0F172A" stroke-width="1.30994" stroke-linecap="round" stroke-linejoin="round"/>
<path d="M298.912 431.737H287.123" stroke="#0F172A" stroke-width="1.30994" stroke-linecap="round" stroke-linejoin="round"/>
<path d="M298.912 437.632H285.158" stroke="#0F172A" stroke-width="1.30994" stroke-linecap="round" stroke-linejoin="round"/>
<rect x="348.526" y="405.947" width="91.3684" height="51.5789" rx="8.10526" stroke="#E2E8F0" stroke-width="1.47368"/>
<path d="M385.368 425.842H403.053" stroke="#0F172A" stroke-width="1.30994" stroke-linecap="round" stroke-linejoin="round"/>
<path d="M385.368 431.737H403.053" stroke="#0F172A" stroke-width="1.30994" stroke-linecap="round" stroke-linejoin="round"/>
<path d="M385.368 437.632H403.053" stroke="#0F172A" stroke-width="1.30994" stroke-linecap="round" stroke-linejoin="round"/>
<rect x="36.1053" y="482.579" width="131.158" height="52.1053" rx="8.10526" stroke="#E2E8F0" stroke-width="1.47368"/>
<path d="M74.6662 499.789V517.474H72.7013V499.789H74.6662ZM56.982 499.789V517.474H55.0171V499.789H56.982ZM62.8767 510.302H66.8066L64.8417 504.996L62.8767 510.302ZM64.0557 502.737H65.7259L70.3434 514.526H68.3785L67.4943 511.972H62.2873L61.4031 514.526H59.4381L64.0557 502.737Z" fill="#808A9D"/>
<path d="M88.974 515.837C87.8701 515.837 86.9299 515.536 86.1533 514.936C85.3766 514.33 84.7832 513.453 84.3729 512.305C83.9626 511.153 83.7575 509.761 83.7575 508.129C83.7575 506.508 83.9626 505.123 84.3729 503.975C84.7881 502.822 85.384 501.943 86.1606 501.337C86.9421 500.727 87.8799 500.422 88.974 500.422C90.0681 500.422 91.0034 500.727 91.7801 501.337C92.5615 501.943 93.1574 502.822 93.5677 503.975C93.9829 505.123 94.1905 506.508 94.1905 508.129C94.1905 509.761 93.9853 511.153 93.5751 512.305C93.1648 513.453 92.5713 514.33 91.7947 514.936C91.0181 515.536 90.0778 515.837 88.974 515.837ZM88.974 514.225C90.0681 514.225 90.918 513.697 91.5236 512.642C92.1293 511.587 92.4321 510.083 92.4321 508.129C92.4321 506.83 92.2929 505.724 92.0145 504.81C91.741 503.897 91.3453 503.201 90.8276 502.722C90.3147 502.244 89.6969 502.004 88.974 502.004C87.8896 502.004 87.0422 502.539 86.4317 503.609C85.8211 504.674 85.5158 506.18 85.5158 508.129C85.5158 509.428 85.6526 510.532 85.9261 511.441C86.1997 512.349 86.5928 513.04 87.1057 513.514C87.6235 513.988 88.2462 514.225 88.974 514.225ZM104.624 512.818V512.027C104.624 511.48 104.736 510.979 104.961 510.525C105.19 510.066 105.522 509.7 105.957 509.426C106.397 509.148 106.929 509.008 107.554 509.008C108.189 509.008 108.721 509.148 109.151 509.426C109.581 509.7 109.906 510.066 110.126 510.525C110.346 510.979 110.455 511.48 110.455 512.027V512.818C110.455 513.365 110.343 513.868 110.118 514.327C109.899 514.782 109.571 515.148 109.137 515.426C108.707 515.7 108.179 515.837 107.554 515.837C106.919 515.837 106.384 515.7 105.95 515.426C105.515 515.148 105.185 514.782 104.961 514.327C104.736 513.868 104.624 513.365 104.624 512.818ZM106.118 512.027V512.818C106.118 513.272 106.226 513.68 106.44 514.042C106.655 514.398 107.027 514.577 107.554 514.577C108.067 514.577 108.428 514.398 108.638 514.042C108.853 513.68 108.961 513.272 108.961 512.818V512.027C108.961 511.573 108.858 511.167 108.653 510.811C108.448 510.449 108.082 510.269 107.554 510.269C107.041 510.269 106.672 510.449 106.448 510.811C106.228 511.167 106.118 511.573 106.118 512.027ZM97.1504 504.231V503.44C97.1504 502.893 97.2628 502.393 97.4874 501.938C97.717 501.479 98.0491 501.113 98.4838 500.839C98.9234 500.561 99.4558 500.422 100.081 500.422C100.716 500.422 101.248 500.561 101.678 500.839C102.108 501.113 102.433 501.479 102.653 501.938C102.872 502.393 102.982 502.893 102.982 503.44V504.231C102.982 504.779 102.87 505.282 102.645 505.741C102.426 506.195 102.098 506.561 101.664 506.84C101.234 507.113 100.706 507.25 100.081 507.25C99.4461 507.25 98.9112 507.113 98.4765 506.84C98.0418 506.561 97.7121 506.195 97.4874 505.741C97.2628 505.282 97.1504 504.779 97.1504 504.231ZM98.645 503.44V504.231C98.645 504.686 98.7525 505.094 98.9674 505.455C99.1823 505.812 99.5535 505.99 100.081 505.99C100.594 505.99 100.955 505.812 101.165 505.455C101.38 505.094 101.488 504.686 101.488 504.231V503.44C101.488 502.986 101.385 502.581 101.18 502.224C100.975 501.863 100.609 501.682 100.081 501.682C99.5682 501.682 99.1994 501.863 98.9747 502.224C98.7549 502.581 98.645 502.986 98.645 503.44ZM97.7072 515.632L108.023 500.627H109.693L99.3777 515.632H97.7072Z" fill="#0F172A"/>
<path d="M142 505.684L147.895 511.579L153.789 505.684" stroke="#0F172A" stroke-width="1.30994" stroke-linecap="round" stroke-linejoin="round"/>
<rect x="174.631" y="482.579" width="131.158" height="52.1053" rx="8.10526" stroke="#E2E8F0" stroke-width="1.47368"/>
<path d="M213.193 499.789V517.474H211.228V499.789H213.193ZM195.508 499.789V517.474H193.543V499.789H195.508ZM201.403 510.302H205.333L203.368 504.996L201.403 510.302ZM202.582 502.737H204.252L208.87 514.526H206.905L206.021 511.972H200.814L199.929 514.526H197.965L202.582 502.737Z" fill="#808A9D"/>
<path d="M227.5 515.837C226.396 515.837 225.456 515.536 224.679 514.936C223.903 514.33 223.309 513.453 222.899 512.305C222.489 511.153 222.284 509.761 222.284 508.129C222.284 506.508 222.489 505.123 222.899 503.975C223.314 502.822 223.91 501.943 224.687 501.337C225.468 500.727 226.406 500.422 227.5 500.422C228.594 500.422 229.53 500.727 230.306 501.337C231.088 501.943 231.684 502.822 232.094 503.975C232.509 505.123 232.717 506.508 232.717 508.129C232.717 509.761 232.511 511.153 232.101 512.305C231.691 513.453 231.097 514.33 230.321 514.936C229.544 515.536 228.604 515.837 227.5 515.837ZM227.5 514.225C228.594 514.225 229.444 513.697 230.05 512.642C230.655 511.587 230.958 510.083 230.958 508.129C230.958 506.83 230.819 505.724 230.541 504.81C230.267 503.897 229.871 503.201 229.354 502.722C228.841 502.244 228.223 502.004 227.5 502.004C226.416 502.004 225.568 502.539 224.958 503.609C224.347 504.674 224.042 506.18 224.042 508.129C224.042 509.428 224.179 510.532 224.452 511.441C224.726 512.349 225.119 513.04 225.632 513.514C226.15 513.988 226.772 514.225 227.5 514.225ZM243.15 512.818V512.027C243.15 511.48 243.262 510.979 243.487 510.525C243.716 510.066 244.048 509.7 244.483 509.426C244.923 509.148 245.455 509.008 246.08 509.008C246.715 509.008 247.248 509.148 247.677 509.426C248.107 509.7 248.432 510.066 248.652 510.525C248.872 510.979 248.982 511.48 248.982 512.027V512.818C248.982 513.365 248.869 513.868 248.645 514.327C248.425 514.782 248.097 515.148 247.663 515.426C247.233 515.7 246.705 515.837 246.08 515.837C245.445 515.837 244.91 515.7 244.476 515.426C244.041 515.148 243.711 514.782 243.487 514.327C243.262 513.868 243.15 513.365 243.15 512.818ZM244.644 512.027V512.818C244.644 513.272 244.752 513.68 244.967 514.042C245.182 514.398 245.553 514.577 246.08 514.577C246.593 514.577 246.955 514.398 247.165 514.042C247.379 513.68 247.487 513.272 247.487 512.818V512.027C247.487 511.573 247.384 511.167 247.179 510.811C246.974 510.449 246.608 510.269 246.08 510.269C245.567 510.269 245.199 510.449 244.974 510.811C244.754 511.167 244.644 511.573 244.644 512.027ZM235.677 504.231V503.44C235.677 502.893 235.789 502.393 236.014 501.938C236.243 501.479 236.575 501.113 237.01 500.839C237.45 500.561 237.982 500.422 238.607 500.422C239.242 500.422 239.775 500.561 240.204 500.839C240.634 501.113 240.959 501.479 241.179 501.938C241.399 502.393 241.508 502.893 241.508 503.44V504.231C241.508 504.779 241.396 505.282 241.171 505.741C240.952 506.195 240.624 506.561 240.19 506.84C239.76 507.113 239.232 507.25 238.607 507.25C237.972 507.25 237.437 507.113 237.003 506.84C236.568 506.561 236.238 506.195 236.014 505.741C235.789 505.282 235.677 504.779 235.677 504.231ZM237.171 503.44V504.231C237.171 504.686 237.279 505.094 237.494 505.455C237.708 505.812 238.08 505.99 238.607 505.99C239.12 505.99 239.481 505.812 239.691 505.455C239.906 505.094 240.014 504.686 240.014 504.231V503.44C240.014 502.986 239.911 502.581 239.706 502.224C239.501 501.863 239.135 501.682 238.607 501.682C238.094 501.682 237.726 501.863 237.501 502.224C237.281 502.581 237.171 502.986 237.171 503.44ZM236.233 515.632L246.549 500.627H248.22L237.904 515.632H236.233Z" fill="#0F172A"/>
<path d="M280.526 505.684L286.421 511.579L292.316 505.684" stroke="#0F172A" stroke-width="1.30994" stroke-linecap="round" stroke-linejoin="round"/>
<rect x="313.158" y="482.579" width="123.526" height="52.1053" rx="8.10526" stroke="#E2E8F0" stroke-width="1.47368"/>
<path d="M333.053 518.456H350.737" stroke="#808A9D" stroke-width="1.47368" stroke-linecap="round" stroke-linejoin="round"/>
<path d="M333.053 498.807H350.737" stroke="#808A9D" stroke-width="1.47368" stroke-linecap="round" stroke-linejoin="round"/>
<path d="M341.895 502.737V514.526" stroke="#808A9D" stroke-width="1.47368" stroke-linecap="round" stroke-linejoin="round"/>
<path d="M344.675 504.427L341.895 501.646L339.115 504.427" stroke="#808A9D" stroke-width="1.47368" stroke-linecap="round" stroke-linejoin="round"/>
<path d="M344.675 512.453L341.895 515.233L339.115 512.453" stroke="#808A9D" stroke-width="1.47368" stroke-linecap="round" stroke-linejoin="round"/>
<path d="M366.026 515.837C364.923 515.837 363.982 515.536 363.206 514.936C362.429 514.33 361.836 513.453 361.425 512.305C361.015 511.153 360.81 509.761 360.81 508.129C360.81 506.508 361.015 505.123 361.425 503.975C361.841 502.822 362.436 501.943 363.213 501.337C363.995 500.727 364.932 500.422 366.026 500.422C367.121 500.422 368.056 500.727 368.833 501.337C369.614 501.943 370.21 502.822 370.62 503.975C371.035 505.123 371.243 506.508 371.243 508.129C371.243 509.761 371.038 511.153 370.628 512.305C370.217 513.453 369.624 514.33 368.847 514.936C368.071 515.536 367.13 515.837 366.026 515.837ZM366.026 514.225C367.121 514.225 367.97 513.697 368.576 512.642C369.182 511.587 369.485 510.083 369.485 508.129C369.485 506.83 369.345 505.724 369.067 504.81C368.793 503.897 368.398 503.201 367.88 502.722C367.367 502.244 366.749 502.004 366.026 502.004C364.942 502.004 364.095 502.539 363.484 503.609C362.874 504.674 362.568 506.18 362.568 508.129C362.568 509.428 362.705 510.532 362.979 511.441C363.252 512.349 363.645 513.04 364.158 513.514C364.676 513.988 365.299 514.225 366.026 514.225Z" fill="#0F172A"/>
<path d="M402.053 505.684L407.947 511.579L413.842 505.684" stroke="#0F172A" stroke-width="1.30994" stroke-linecap="round" stroke-linejoin="round"/>
<rect x="36.1053" y="559.737" width="91.3684" height="49" rx="8.10526" stroke="#E2E8F0" stroke-width="1.47368"/>
<path d="M72.289 590.737H70.2291L74.8574 577.876H77.0994L81.7276 590.737H79.6678L76.0318 580.212H75.9313L72.289 590.737ZM72.6343 585.7H79.3162V587.333H72.6343V585.7ZM83.2521 590.737V589.443L90.0156 579.546H83.1956V577.876H92.3894V579.169L85.6259 589.066H92.4459V590.737H83.2521Z" fill="#0F172A"/>
<rect x="140.246" y="559.737" width="91.3684" height="49" rx="8.10526" stroke="#E2E8F0" stroke-width="1.47368"/>
<path d="M176.929 590.737H174.87L179.498 577.876H181.74L186.368 590.737H184.308L180.672 580.212H180.572L176.929 590.737ZM177.275 585.7H183.957V587.333H177.275V585.7ZM187.874 590.737V589.449L193.099 582.812V582.724H188.043V581.091H195.441V582.46L190.417 589.016V589.104H195.617V590.737H187.874Z" fill="#0F172A"/>
<rect x="244.386" y="559.737" width="91.3684" height="49" rx="8.10526" stroke="#E2E8F0" stroke-width="1.47368"/>
<path d="M284.14 590.95C283.528 590.95 282.976 590.837 282.482 590.611C281.988 590.381 281.596 590.048 281.307 589.613C281.023 589.177 280.88 588.644 280.88 588.011C280.88 587.467 280.985 587.019 281.194 586.667C281.404 586.316 281.686 586.037 282.042 585.832C282.398 585.627 282.796 585.472 283.235 585.367C283.675 585.263 284.123 585.183 284.579 585.129C285.157 585.062 285.626 585.007 285.986 584.966C286.346 584.92 286.608 584.846 286.771 584.746C286.934 584.645 287.016 584.482 287.016 584.256V584.212C287.016 583.664 286.861 583.239 286.551 582.937C286.246 582.636 285.789 582.485 285.182 582.485C284.55 582.485 284.052 582.625 283.688 582.906C283.327 583.182 283.078 583.49 282.94 583.829L281.176 583.427C281.385 582.841 281.691 582.368 282.092 582.008C282.499 581.644 282.965 581.38 283.493 581.216C284.02 581.049 284.575 580.965 285.157 580.965C285.542 580.965 285.95 581.011 286.382 581.103C286.817 581.191 287.223 581.355 287.6 581.593C287.981 581.832 288.293 582.173 288.536 582.617C288.778 583.056 288.9 583.628 288.9 584.331V590.737H287.066V589.418H286.991C286.869 589.661 286.687 589.899 286.444 590.134C286.202 590.368 285.89 590.563 285.509 590.718C285.128 590.873 284.671 590.95 284.14 590.95ZM284.548 589.443C285.067 589.443 285.511 589.341 285.879 589.135C286.252 588.93 286.534 588.662 286.727 588.332C286.924 587.997 287.022 587.639 287.022 587.258V586.014C286.955 586.081 286.825 586.144 286.633 586.203C286.444 586.257 286.229 586.305 285.986 586.347C285.743 586.385 285.507 586.42 285.276 586.454C285.046 586.483 284.854 586.508 284.699 586.529C284.334 586.575 284.002 586.653 283.7 586.762C283.403 586.87 283.164 587.027 282.984 587.233C282.808 587.434 282.72 587.702 282.72 588.036C282.72 588.501 282.892 588.853 283.235 589.091C283.579 589.326 284.016 589.443 284.548 589.443ZM291.2 590.737V589.449L296.425 582.812V582.724H291.369V581.091H298.767V582.46L293.743 589.016V589.104H298.943V590.737H291.2Z" fill="#0F172A"/>
<rect x="348.526" y="559.737" width="91.3684" height="51.5789" rx="8.10526" stroke="#E2E8F0" stroke-width="1.47368"/>
<path d="M394.211 586.509C394.753 586.509 395.193 586.069 395.193 585.526C395.193 584.984 394.753 584.544 394.211 584.544C393.668 584.544 393.228 584.984 393.228 585.526C393.228 586.069 393.668 586.509 394.211 586.509Z" stroke="#0F172A" stroke-width="1.30994" stroke-linecap="round" stroke-linejoin="round"/>
<path d="M401.088 586.509C401.631 586.509 402.07 586.069 402.07 585.526C402.07 584.984 401.631 584.544 401.088 584.544C400.545 584.544 400.105 584.984 400.105 585.526C400.105 586.069 400.545 586.509 401.088 586.509Z" stroke="#0F172A" stroke-width="1.30994" stroke-linecap="round" stroke-linejoin="round"/>
<path d="M387.334 586.509C387.876 586.509 388.316 586.069 388.316 585.526C388.316 584.984 387.876 584.544 387.334 584.544C386.791 584.544 386.351 584.984 386.351 585.526C386.351 586.069 386.791 586.509 387.334 586.509Z" stroke="#0F172A" stroke-width="1.30994" stroke-linecap="round" stroke-linejoin="round"/>
</svg>
