<svg width="157" height="130" viewBox="0 0 157 130" fill="none" xmlns="http://www.w3.org/2000/svg">
<g clip-path="url(#clip0_437_14992)">
<path d="M0 28H147V122C147 126.418 143.418 130 139 130H8C3.58172 130 0 126.418 0 122V28Z" fill="white"/>
<rect x="10" y="35" width="85" height="28" fill="#D9D9D9"/>
<rect x="10" y="71" width="85" height="49" fill="#D9D9D9"/>
<rect x="103" y="35" width="33" height="85" fill="#D9D9D9"/>
<path opacity="0.35" d="M137.696 128.893L66.9809 56.098C64.7515 53.803 64.7151 50.1624 66.8982 47.8233L89.221 23.9061C90.3557 22.6903 91.9442 22 93.6073 22H142C145.314 22 148 24.6863 148 28V124.713C148 130.1 141.45 132.758 137.696 128.893Z" fill="#121212"/>
</g>
<path d="M0 6C0 2.68629 2.68629 0 6 0H141C144.314 0 147 2.68629 147 6V28H0V6Z" fill="#4285F4"/>
<circle cx="15.5" cy="13.5" r="5.5" fill="#D9D9D9"/>
<circle cx="32.5" cy="13.5" r="5.5" fill="#D9D9D9"/>
<path d="M89.221 23.9061C90.3557 22.6903 91.9442 22 93.6073 22H151C154.314 22 157 24.6863 157 28V76C157 79.3137 154.314 82 151 82H93.6073C91.9442 82 90.3557 81.3097 89.221 80.0939L66.821 56.0939C64.6694 53.7887 64.6694 50.2113 66.821 47.9061L89.221 23.9061Z" fill="#DB4437"/>
<defs>
<clipPath id="clip0_437_14992">
<path d="M0 28H147V122C147 126.418 143.418 130 139 130H8C3.58172 130 0 126.418 0 122V28Z" fill="white"/>
</clipPath>
</defs>
</svg>
