<svg width="143" height="26" viewBox="0 0 143 26" fill="none" xmlns="http://www.w3.org/2000/svg">
<path d="M141.112 5.26301L141.466 4.9103L141.112 5.26301C141.985 6.14064 142.397 7.12897 142.398 8.0891C142.4 9.04895 141.99 10.0379 141.114 10.9175C137.604 14.4401 134.087 17.9555 130.569 21.4712C129.793 22.2471 129.016 23.023 128.24 23.799C127.612 24.4273 127.217 24.6177 126.911 24.6199C126.608 24.6221 126.219 24.4397 125.598 23.8242C125.499 23.726 125.401 23.6275 125.282 23.509C125.253 23.4804 125.223 23.4507 125.192 23.4195C123.965 22.1911 122.74 20.9663 121.518 19.7439C118.605 16.831 115.706 13.9316 112.811 11.0274C111.835 10.048 111.395 9.03629 111.398 8.06962C111.402 7.10246 111.851 6.09158 112.831 5.11529L112.478 4.76117L112.831 5.11528C113.094 4.85283 113.357 4.59039 113.62 4.32807C114.501 3.44801 115.382 2.56931 116.268 1.69623C117.847 0.141262 119.979 0.107431 121.522 1.56479C122.448 2.43988 122.911 3.3908 122.971 4.31123C123.032 5.22828 122.697 6.18236 121.899 7.07914L122.273 7.41149L121.899 7.07914C121.729 7.26977 121.558 7.45278 121.405 7.61702C121.338 7.6879 121.275 7.75528 121.217 7.81827L120.89 8.17223L121.232 8.51214L126.737 13.9877L127.092 14.3406L127.444 13.9854L130.993 10.4101C131.13 10.2722 131.255 10.14 131.375 10.013C131.625 9.74878 131.854 9.50732 132.121 9.2848C132.413 9.04174 132.684 8.71795 132.668 8.28756C132.654 7.88566 132.39 7.57175 132.146 7.33737C131.527 6.74154 131.114 6.10545 130.928 5.4412C130.743 4.78365 130.77 4.06498 131.083 3.27645C131.65 1.85158 132.759 0.920889 133.967 0.615037C135.165 0.311619 136.497 0.612632 137.567 1.72411C138.286 2.47136 139.032 3.20608 139.773 3.93527C140.224 4.37937 140.672 4.82142 141.112 5.26301ZM126.866 22.2603L127.118 22.3144L127.308 22.1408C127.345 22.1073 127.387 22.0697 127.433 22.0291C127.545 21.9289 127.678 21.8108 127.796 21.6933C129.42 20.0712 131.044 18.4482 132.668 16.8252C133.419 16.0744 134.17 15.3236 134.921 14.573C135.436 14.059 135.951 13.5451 136.466 13.031C137.571 11.9288 138.677 10.8257 139.778 9.71885C140.169 9.32561 140.461 8.91198 140.568 8.45842C140.682 7.97896 140.572 7.52712 140.304 7.11102C139.937 6.54323 139.457 6.07853 138.77 5.63025L138.427 5.40661L138.14 5.69833L138.135 5.70409C136.013 7.86121 133.89 10.0187 131.693 12.2508C131.329 12.6155 130.966 12.9802 130.603 13.3447C129.773 14.1778 128.944 15.0095 128.109 15.8361C127.566 16.3745 127.192 16.5385 126.899 16.5366C126.603 16.5348 126.228 16.3647 125.682 15.821C125.039 15.1801 124.397 14.538 123.754 13.8956C122.619 12.7621 121.484 11.6279 120.345 10.4986C120.321 10.4748 120.3 10.4504 120.266 10.4117C120.254 10.3974 120.24 10.3811 120.223 10.3622C120.172 10.3034 120.097 10.2197 120.003 10.1452C119.907 10.068 119.777 9.98913 119.611 9.9524C119.441 9.91481 119.268 9.92917 119.099 9.98626C117.445 10.5453 116.94 12.6285 118.177 13.8684C120.761 16.4563 123.348 19.041 125.938 21.6224C125.952 21.6365 125.97 21.6575 125.993 21.6833C126.129 21.837 126.416 22.1637 126.866 22.2603ZM120.1 2.72001L120.072 2.69281L120.039 2.67043C119.703 2.43877 119.318 2.2825 118.909 2.28301C118.489 2.28353 118.097 2.45061 117.768 2.76941C116.391 4.10325 115.031 5.45901 113.703 6.84582C113.371 7.19308 113.19 7.611 113.186 8.05642C113.183 8.4956 113.353 8.91241 113.631 9.2702C114.029 9.78148 114.499 10.2676 115.058 10.6432L115.259 10.7783L115.489 10.7046C115.882 10.579 116.148 10.2834 116.288 10.1281C116.314 10.0993 116.336 10.0753 116.353 10.0582L116.04 9.74326L116.353 10.0582C117.578 8.83883 118.799 7.61559 120.019 6.39302L120.255 6.15713C120.78 5.63026 121.208 5.09237 121.177 4.44625C121.161 4.12246 121.032 3.82979 120.847 3.55764C120.665 3.28862 120.409 3.01387 120.1 2.72001ZM135.954 5.45439L135.968 5.44065L135.98 5.42588C136.335 5.01778 136.579 4.57546 136.62 4.11099C136.663 3.62171 136.475 3.18779 136.123 2.84039C135.771 2.4931 135.33 2.30038 134.861 2.30049C134.395 2.30061 133.947 2.49079 133.57 2.82438L133.821 3.10751L133.57 2.82438C133.415 2.9621 133.245 3.12229 133.094 3.30807C132.739 3.74629 132.552 4.23321 132.659 4.77549C132.759 5.27968 133.098 5.73473 133.544 6.17197C133.759 6.38286 134.001 6.54484 134.279 6.58609C134.579 6.63059 134.82 6.52111 134.989 6.39623C135.132 6.29117 135.253 6.15255 135.334 6.06054C135.34 6.05382 135.345 6.04735 135.351 6.04116C135.45 5.92823 135.501 5.87508 135.543 5.8462C135.639 5.78037 135.713 5.70488 135.769 5.64671C135.786 5.62812 135.803 5.6105 135.819 5.59305C135.86 5.5497 135.9 5.50746 135.954 5.45439Z" fill="white" stroke="white"/>
<path d="M6.11581 16.292L6.57812 17.4144L7.04044 16.292L10.7489 7.28906H12.3912L7.47791 18.5H5.67834L0.76504 7.28906H2.40739L6.11581 16.292ZM17.5007 17.3359H25.0867V18.5H15.5242V7.28906H24.9226V8.46094H17.5007H17.0007V8.96094V11.3984V11.8984H17.5007H24.0164V12.9375H17.5007H17.0007V13.4375V16.8359V17.3359H17.5007ZM36.924 15.3749L39.049 18.5H37.231L35.0825 15.2552L34.9342 15.0312H34.6656L34.5963 15.0313L34.5952 15.0312L30.8463 15.0234L30.3452 15.0224V15.5234V18.5H28.8687V7.28906H34.5796C35.4839 7.28906 36.2477 7.38474 36.8788 7.56644L36.8822 7.56738C37.5177 7.74553 38.0225 7.99924 38.4119 8.31706C38.8019 8.63533 39.087 9.01859 39.2735 9.47163L39.2751 9.47548C39.4693 9.93595 39.5718 10.4699 39.5718 11.0859C39.5718 11.4983 39.5221 11.887 39.4247 12.2538C39.3291 12.6083 39.1822 12.933 38.9839 13.2305L38.9839 13.2304L38.981 13.2349C38.7891 13.5294 38.5438 13.7965 38.2408 14.0355C37.9412 14.2667 37.5824 14.4649 37.159 14.6267L36.5686 14.8522L36.924 15.3749ZM34.6421 13.8828C35.1477 13.8828 35.6087 13.8241 36.0172 13.6962C36.4212 13.5713 36.7775 13.3898 37.072 13.1416C37.3722 12.8931 37.5987 12.5877 37.7449 12.2298C37.8926 11.8757 37.9624 11.4921 37.9624 11.0859C37.9624 10.2759 37.6765 9.59519 37.0703 9.11631C36.4749 8.6407 35.6367 8.44531 34.6421 8.44531H30.8452H30.3452V8.94531V13.3828V13.8828H30.8452H34.6421ZM47.221 8.96094V8.46094H46.721H42.7132V7.28906H53.2054V8.46094H49.1976H48.6976V8.96094V18.5H47.221V8.96094ZM58.3546 12.0938V18.5H56.878V7.28906H58.3546V9.97656V10.4766H58.8546H66.4483H66.9483V9.97656V7.28906H68.4327V18.5H66.9483V12.0938V11.5938H66.4483H58.8546H58.3546V12.0938ZM74.91 17.3359H82.4959V18.5H72.9334V7.28906H82.3319V8.46094H74.91H74.41V8.96094V11.3984V11.8984H74.91H81.4256V12.9375H74.91H74.41V13.4375V16.8359V17.3359H74.91ZM93.054 11.5951L97.3449 7.28906H99.1139V18.5H97.6373V10.2188V9.04308L96.7905 9.8586L92.6998 13.798L88.6091 9.8586L87.7623 9.04308V10.2188V18.5H86.2858V7.28906H88.0547L92.3456 11.5951L92.6998 11.9505L93.054 11.5951Z" fill="white" stroke="white"/>
</svg>
